<?xml version="1.0" encoding="UTF-8" standalone="no"?>
<!-- Uploaded to: SVG Repo, www.svgrepo.com, Generator: SVG Repo Mixer Tools -->

<svg
   fill="#000000"
   width="621.88306"
   height="666.65381"
   viewBox="0 0 18.656492 19.999614"
   xml:space="preserve"
   version="1.1"
   id="svg4"
   sodipodi:docname="mastodon-svgrepo-com.svg"
   inkscape:version="1.2 (dc2aedaf03, 2022-05-15)"
   xmlns:inkscape="http://www.inkscape.org/namespaces/inkscape"
   xmlns:sodipodi="http://sodipodi.sourceforge.net/DTD/sodipodi-0.dtd"
   xmlns="http://www.w3.org/2000/svg"
   xmlns:svg="http://www.w3.org/2000/svg"><defs
     id="defs8" /><sodipodi:namedview
     id="namedview6"
     pagecolor="#ffffff"
     bordercolor="#666666"
     borderopacity="1.0"
     inkscape:showpageshadow="2"
     inkscape:pageopacity="0.0"
     inkscape:pagecheckerboard="0"
     inkscape:deskcolor="#d1d1d1"
     showgrid="false"
     inkscape:zoom="1.05875"
     inkscape:cx="306.49351"
     inkscape:cy="333.41204"
     inkscape:window-width="1920"
     inkscape:window-height="1027"
     inkscape:window-x="-8"
     inkscape:window-y="-8"
     inkscape:window-maximized="1"
     inkscape:current-layer="svg4" /><path
     d="m 18.655763,6.566 c 0,-4.339 -2.843,-5.61 -2.843,-5.61 -1.433,-0.658 -3.894,-0.935 -6.4510003,-0.956 h -0.063 c -2.557,0.021 -5.016,0.298 -6.45,0.956 0,0 -2.84300005,1.272 -2.84300005,5.61 0,0.993 -0.019,2.181 0.012,3.441 0.103,4.243 0.778,8.425 4.70100005,9.463 1.809,0.479 3.362,0.579 4.612,0.51 2.2680003,-0.126 3.5410003,-0.809 3.5410003,-0.809 l -0.075,-1.646 c 0,0 -1.621,0.511 -3.4410003,0.449 -1.804,-0.062 -3.707,-0.194 -3.999,-2.409 a 4.523,4.523 0 0 1 -0.04,-0.621 c 0,0 1.77,0.433 4.014,0.536 1.3720003,0.063 2.6580003,-0.08 3.9650003,-0.236 2.506,-0.299 4.688,-1.843 4.962,-3.254 0.434,-2.223 0.398,-5.424 0.398,-5.424 z m -3.353,5.59 h -2.081 V 7.057 c 0,-1.075 -0.452,-1.62 -1.357,-1.62 -1,0 -1.501,0.647 -1.501,1.927 v 2.791 H 8.2947627 V 7.364 c 0,-1.28 -0.501,-1.927 -1.502,-1.927 -0.905,0 -1.357,0.546 -1.357,1.62 v 5.099 h -2.081 V 6.903 c 0,-1.074 0.273,-1.927 0.823,-2.558 0.566,-0.631 1.307,-0.955 2.228,-0.955 1.065,0 1.872,0.409 2.405,1.228 l 0.518,0.869 0.519,-0.869 C 10.380763,3.799 11.187763,3.39 12.252763,3.39 c 0.92,0 1.662,0.324 2.228,0.955 0.549,0.631 0.822,1.484 0.822,2.558 z"
     id="path2" /></svg>
