<?xml version="1.0" encoding="UTF-8" standalone="no"?>
<!-- Generator: Adobe Illustrator 25.0.1, SVG Export Plug-In . SVG Version: 6.00 Build 0)  -->

<svg
   version="1.0"
   id="Capa_1"
   x="0px"
   y="0px"
   viewBox="0 0 449.2218 511.29999"
   xml:space="preserve"
   sodipodi:docname="tiktok.svg"
   width="449.2218"
   height="511.29999"
   inkscape:version="1.2 (dc2aedaf03, 2022-05-15)"
   xmlns:inkscape="http://www.inkscape.org/namespaces/inkscape"
   xmlns:sodipodi="http://sodipodi.sourceforge.net/DTD/sodipodi-0.dtd"
   xmlns="http://www.w3.org/2000/svg"
   xmlns:svg="http://www.w3.org/2000/svg"><defs
   id="defs1471" /><sodipodi:namedview
   id="namedview1469"
   pagecolor="#ffffff"
   bordercolor="#666666"
   borderopacity="1.0"
   inkscape:showpageshadow="2"
   inkscape:pageopacity="0.0"
   inkscape:pagecheckerboard="0"
   inkscape:deskcolor="#d1d1d1"
   showgrid="false"
   inkscape:zoom="0.50928524"
   inkscape:cx="74.614375"
   inkscape:cy="378.96248"
   inkscape:window-width="1920"
   inkscape:window-height="1027"
   inkscape:window-x="-8"
   inkscape:window-y="-8"
   inkscape:window-maximized="1"
   inkscape:current-layer="Capa_1" />
<g
   id="g1466"
   transform="translate(-194.2986,-38.4)">
	<path
   d="m 643.3,166.4 c -29.2,0 -56.2,-9.7 -77.8,-26 -24.8,-18.7 -42.7,-46.2 -49,-77.8 -1.6,-7.8 -2.4,-15.9 -2.5,-24.2 h -83.5 v 228.1 l -0.1,124.9 c 0,33.4 -21.8,61.7 -51.9,71.7 -8.8,2.9 -18.2,4.3 -28,3.7 -12.6,-0.7 -24.3,-4.5 -34.6,-10.6 -21.8,-13 -36.5,-36.6 -36.9,-63.7 -0.6,-42.2 33.5,-76.7 75.7,-76.7 8.3,0 16.3,1.4 23.8,3.8 V 257.3 235 c -7.9,-1.2 -15.9,-1.8 -24.1,-1.8 -46.2,0 -89.4,19.2 -120.3,53.8 -23.3,26.1 -37.3,59.5 -39.5,94.5 -2.8,45.9 14,89.6 46.6,121.8 4.8,4.7 9.8,9.1 15.1,13.2 27.9,21.5 62.1,33.2 98.1,33.2 8.1,0 16.2,-0.6 24.1,-1.8 33.6,-5 64.6,-20.4 89.1,-44.6 30.1,-29.7 46.7,-69.2 46.9,-111.2 l -0.4,-186.6 c 14.3,11.1 30,20.2 46.9,27.3 26.2,11.1 54,16.6 82.5,16.6 v -60.6 -22.5 c 0.1,0.1 -0.2,0.1 -0.2,0.1 z"
   id="path1464" />
</g>
</svg>
