<?xml version="1.0" encoding="UTF-8" standalone="no"?>
<!-- Created with Inkscape (http://www.inkscape.org/) -->

<svg
   width="1500"
   height="200"
   viewBox="0 0 396.875 52.916668"
   version="1.1"
   id="svg5"
   xml:space="preserve"
   inkscape:version="1.2 (dc2aedaf03, 2022-05-15)"
   sodipodi:docname="about.svg"
   xmlns:inkscape="http://www.inkscape.org/namespaces/inkscape"
   xmlns:sodipodi="http://sodipodi.sourceforge.net/DTD/sodipodi-0.dtd"
   xmlns="http://www.w3.org/2000/svg"
   xmlns:svg="http://www.w3.org/2000/svg"><sodipodi:namedview
     id="namedview7"
     pagecolor="#989898"
     bordercolor="#666666"
     borderopacity="1.0"
     inkscape:showpageshadow="2"
     inkscape:pageopacity="0"
     inkscape:pagecheckerboard="0"
     inkscape:deskcolor="#d1d1d1"
     inkscape:document-units="px"
     showgrid="false"
     inkscape:zoom="1.4142136"
     inkscape:cx="691.19686"
     inkscape:cy="83.438598"
     inkscape:window-width="1920"
     inkscape:window-height="1027"
     inkscape:window-x="-8"
     inkscape:window-y="-8"
     inkscape:window-maximized="1"
     inkscape:current-layer="text6179" /><defs
     id="defs2" /><g
     inkscape:label="Layer 1"
     inkscape:groupmode="layer"
     id="layer1"><path
       style="fill:#000000;stroke-width:0.264583"
       id="path461"
       d="" /><path
       style="fill:#000000;stroke-width:0.264583"
       id="path493"
       d="" /><path
       style="fill:#000000;stroke-width:0.264583"
       id="path487"
       d="" /><path
       style="fill:#000000;stroke-width:0.264583"
       id="path485"
       d="" /><path
       style="fill:#000000;stroke-width:0.264583"
       id="path481"
       d="" /><path
       style="fill:#000000;stroke-width:0.264583"
       id="path479"
       d="" /><g
       aria-label="Song Lyrics"
       transform="scale(0.98401545,1.0162442)"
       id="text993"
       style="font-size:28.5242px;line-height:1.25;font-family:mini-wakuwaku;-inkscape-font-specification:mini-wakuwaku;font-variant-ligatures:none;stroke-width:1.24402"><g
         aria-label="About"
         transform="scale(1.0162442,0.98401545)"
         id="text6179"
         style="font-size:29.212px;font-family:SistersFL;-inkscape-font-specification:SistersFL;fill:#ffffff;stroke-width:0.340691"><path
           d="m 170.13837,14.419793 0.88435,1.82575 q 0.54202,1.569004 0.54202,1.93986 0,0.370855 0.51349,0.85582 l 0.68466,3.451809 0.22822,0.484964 0.71318,2.738625 q 0.68466,2.196606 1.16962,4.19352 l 0.45644,2.738625 q 0.48496,2.453352 0.59907,3.480336 0.11411,0.998457 -0.11411,1.198148 -0.19969,0.228219 -0.37085,0.228219 -0.14264,0 -0.37086,-0.228219 -0.22822,-0.228218 -0.54202,-1.82575 l -0.85582,-5.077867 h -7.01772 q -0.48497,0.456438 -0.6276,1.055512 -0.11411,0.599074 -0.34233,1.055512 l -0.48497,2.396296 q -0.22822,1.597532 -0.22822,1.882805 0,0.313801 -0.39938,0.713184 -0.51349,-0.171164 -0.65613,-0.399383 -0.11411,-0.199691 -0.11411,-0.770238 l 0.45644,-2.738625 q 0.37086,-1.283731 0.82729,-3.138008 1.19815,-4.164992 1.54048,-5.220504 l 0.71318,-2.79568 0.57055,-1.968386 q 0.37086,-1.51195 0.59907,-2.196606 l 0.91288,-3.6515 q 0.22822,-0.228219 0.71318,-0.228219 z m 3.10948,14.834219 q -0.37085,-2.367769 -0.96993,-4.336156 l -0.45643,-2.339242 q -0.37086,-1.255203 -0.71319,-2.767153 l -1.11256,-2.909789 -0.77024,3.138008 q -0.59908,1.968387 -1.31226,4.307629 -0.68466,2.310715 -1.19815,4.535848 l 0.39938,0.370855 z"
           id="path303" /><path
           d="m 181.46373,27.656481 q 0.9414,-0.741711 2.31071,-1.426367 h 1.99692 q 2.33924,1.340785 2.90979,2.196605 0.59907,0.827293 0.79876,1.226676 v 3.166535 q -0.19969,1.084039 -0.45644,1.312258 -0.22821,0.228219 -0.68465,1.39784 l -1.36931,1.369312 q -1.56901,0.54202 -2.31072,0.656129 l -2.25366,-0.42791 -0.34233,-0.313801 q -0.59907,0.54202 -0.59907,0.770238 0,0.228219 -0.19969,0.427911 -0.62761,-0.11411 -1.19815,-0.656129 V 15.075922 q 0.42791,-0.42791 0.68465,-0.42791 0.28528,0 0.71319,0.42791 z m 2.65304,8.786422 q 1.569,0 3.05243,-1.340785 l 1.14109,-2.196606 v -2.653043 q -0.28527,-0.484965 -0.51349,-1.226676 l -1.65459,-1.626058 q -2.02544,0 -2.85273,0.570547 -0.8273,0.542019 -1.82575,2.053968 v 4.050883 q 0.51349,1.026985 0.96993,1.454895 0.45644,0.42791 0.82729,0.542019 0.37086,0.11411 0.85582,0.370856 z"
           id="path305" /><path
           d="m 197.89548,38.382762 q -0.68466,-0.370855 -1.1411,-0.484965 -0.45643,-0.08558 -0.91287,-0.513492 -0.42791,-0.42791 -1.42637,-2.025441 v -4.992286 q 0.91288,-2.225132 1.39784,-2.68157 0.51349,-0.456437 1.65459,-1.084039 l 1.91133,-0.370855 2.11102,0.456437 1.68312,1.454895 0.68465,1.968386 v 4.107938 l -0.45643,1.340785 -0.91288,1.740168 q -0.88435,0.741711 -2.0825,1.198148 z m 0.37085,-1.055512 h 2.28219 l 1.51195,-1.569004 q 0.48496,-1.426367 0.85582,-2.396296 v -2.396297 l -0.74171,-2.196606 q -1.11257,-0.741711 -1.65459,-1.141094 h -2.25366 q -0.79876,0.54202 -1.48342,1.198149 -0.68465,0.656129 -0.79876,1.026984 -0.11411,0.370856 -0.37086,0.855821 v 3.822664 q 0.48497,1.226675 0.91288,1.797222 0.45643,0.54202 0.82729,0.627602 0.39938,0.114109 0.91287,0.370855 z"
           id="path307" /><path
           d="m 208.33649,26.857715 q 0.39938,-0.142637 0.54202,-0.142637 0.17116,0 0.6276,0.427911 l 0.22822,5.990742 q 0.48496,1.854277 0.48496,2.111023 0,0.228219 0.25675,0.684656 0.25674,0.456438 0.96993,0.770239 h 2.5104 q 1.39784,-1.39784 1.91134,-2.624516 v -7.616801 q 0.42791,-0.456437 0.68465,-0.456437 0.28528,0 0.71319,0.456437 l 0.25674,6.675399 0.68466,2.824207 q 0.48496,0.884347 0.48496,1.255203 0,0.370855 -0.22822,0.570547 -0.22822,0.228219 -0.37085,0.228219 -0.14264,0 -0.6276,-0.456438 -0.45644,-0.456437 -0.74171,-1.797223 -1.82575,1.711641 -2.90979,2.253661 l -2.56746,-0.11411 q -0.0856,-0.08558 -0.48497,-0.228219 -0.39938,-0.114109 -0.6276,-0.114109 -0.19969,0 -0.57055,-0.342328 -0.34233,-0.342328 -1.22667,-1.626059 z"
           id="path309" /><path
           d="m 226.70809,29.025793 h -3.87971 q -0.14264,-0.399382 -0.14264,-0.656129 0,-0.285273 0.14264,-0.399382 0.14263,-0.142637 0.51349,-0.342329 h 3.3377 l 0.25674,-3.594445 V 23.69118 h 1.16962 v 3.936773 h 4.50733 q 0.45643,0.456438 0.45643,0.713184 0,0.256746 -0.45643,0.684656 h -4.50733 v 7.160364 q 0.91288,0.884347 1.48343,1.141093 h 3.0239 q 0.19969,0.199692 0.19969,0.570547 0,0.399383 -0.19969,0.599074 l -3.48034,-0.114109 q -0.34233,-0.228219 -0.91288,-0.399383 -0.54202,-0.171164 -0.88434,-0.542019 -0.3138,-0.342328 -0.62761,-1.141094 z"
           id="path311" /></g></g></g></svg>
