<?xml version="1.0" encoding="UTF-8" standalone="no"?>
<!-- Created with Inkscape (http://www.inkscape.org/) -->

<svg
   width="1500"
   height="200"
   viewBox="0 0 396.875 52.916668"
   version="1.1"
   id="svg5"
   xml:space="preserve"
   inkscape:version="1.2 (dc2aedaf03, 2022-05-15)"
   sodipodi:docname="arise.svg"
   xmlns:inkscape="http://www.inkscape.org/namespaces/inkscape"
   xmlns:sodipodi="http://sodipodi.sourceforge.net/DTD/sodipodi-0.dtd"
   xmlns="http://www.w3.org/2000/svg"
   xmlns:svg="http://www.w3.org/2000/svg"><sodipodi:namedview
     id="namedview7"
     pagecolor="#989898"
     bordercolor="#666666"
     borderopacity="1.0"
     inkscape:showpageshadow="2"
     inkscape:pageopacity="0"
     inkscape:pagecheckerboard="0"
     inkscape:deskcolor="#d1d1d1"
     inkscape:document-units="px"
     showgrid="false"
     inkscape:zoom="1"
     inkscape:cx="788.5"
     inkscape:cy="86"
     inkscape:window-width="1350"
     inkscape:window-height="1041"
     inkscape:window-x="52"
     inkscape:window-y="0"
     inkscape:window-maximized="0"
     inkscape:current-layer="text993" /><defs
     id="defs2" /><g
     inkscape:label="Layer 1"
     inkscape:groupmode="layer"
     id="layer1"><path
       style="fill:#000000;stroke-width:0.264583"
       id="path461"
       d="" /><path
       style="fill:#000000;stroke-width:0.264583"
       id="path493"
       d="" /><path
       style="fill:#000000;stroke-width:0.264583"
       id="path487"
       d="" /><path
       style="fill:#000000;stroke-width:0.264583"
       id="path485"
       d="" /><path
       style="fill:#000000;stroke-width:0.264583"
       id="path481"
       d="" /><path
       style="fill:#000000;stroke-width:0.264583"
       id="path479"
       d="" /><g
       aria-label="Arise"
       transform="scale(0.98401545,1.0162442)"
       id="text993"
       style="font-size:12.497px;line-height:1.25;font-family:mini-wakuwaku;-inkscape-font-specification:mini-wakuwaku;font-variant-ligatures:none;stroke-width:0.545028"><g
         id="g851"
         transform="matrix(0.84362586,0,0,0.84362586,6.0551007,-4.8492865)"><path
           d="m 194.99497,20.995116 1.1449,2.363597 q 0.7017,2.031217 0.7017,2.511322 0,0.480105 0.66474,1.107936 l 0.88634,4.468677 0.29535,0.627831 0.92332,3.545398 q 0.88632,2.843705 1.51416,5.428887 l 0.59091,3.545398 q 0.62782,3.176082 0.77556,4.505609 0.14766,1.292589 -0.14766,1.551109 -0.25847,0.29544 -0.48007,0.29544 -0.18451,0 -0.48013,-0.29544 -0.29535,-0.295443 -0.70167,-2.363597 l -1.10797,-6.573757 h -9.08507 q -0.62785,0.590899 -0.81249,1.366453 -0.14766,0.775556 -0.44317,1.366458 l -0.62784,3.102221 q -0.29535,2.068146 -0.29535,2.43746 0,0.406242 -0.51705,0.923282 -0.66475,-0.221599 -0.84939,-0.51704 -0.14766,-0.258527 -0.14766,-0.997141 l 0.59091,-3.545396 q 0.4801,-1.661906 1.07102,-4.062434 1.55111,-5.391959 1.99428,-6.758414 l 0.92327,-3.619258 0.7386,-2.548254 q 0.48013,-1.957355 0.77558,-2.843702 l 1.1818,-4.727194 q 0.29535,-0.295443 0.92327,-0.295443 z m 4.02552,19.204229 q -0.4801,-3.06529 -1.25565,-5.613544 l -0.59089,-3.028359 q -0.48012,-1.624975 -0.9233,-3.582327 l -1.44032,-3.766983 -0.99713,4.062434 q -0.77556,2.548254 -1.69885,5.57661 -0.88632,2.991428 -1.55112,5.872064 l 0.51706,0.480105 z"
           style="font-family:SistersFL;-inkscape-font-specification:SistersFL;fill:#ffffff;stroke-width:1.64933"
           id="path802" /><path
           d="m 209.84132,37.392575 q 2.40056,-1.292593 3.69314,-1.994286 h 3.54542 q 0.77553,0.258527 1.07099,0.701693 0.29537,0.443174 0.9602,0.849419 0,0.886347 -0.14766,1.034073 -0.11082,0.110786 -0.62784,0.110786 -0.51706,0 -0.77556,-0.110786 -0.22163,-0.147742 -0.9233,-0.775556 h -2.91758 l -1.03406,0.62783 -2.43745,1.846561 q -0.25847,0.184643 -0.59091,0.923281 l -0.29535,10.414601 -0.25847,0.221599 -1.21873,-0.221599 -0.36934,-0.590896 v -15.40032 q 0.29535,-0.480105 0.44317,-0.664762 0.14766,-0.184643 0.62784,-0.184643 0.51706,0 0.66477,0.184643 0.14766,0.184643 0.25847,0.443176 0.14766,0.221572 0.33236,2.585186 z"
           style="font-family:SistersFL;-inkscape-font-specification:SistersFL;fill:#ffffff;stroke-width:1.64933"
           id="path799" /><path
           d="m 232.84951,50.429295 -0.96023,0.184643 -0.59089,-0.517037 V 38.057326 q 0.59089,-0.553968 0.92327,-0.553968 0.36932,0 0.92327,0.553968 z m -0.77559,-16.69291 q -0.44317,-0.406242 -0.44317,-1.218733 0,-0.812484 0.11081,-1.03407 0.14766,-0.258528 0.29535,-0.406248 0.14766,-0.184643 0.4801,-0.184643 0.36931,0 0.62784,0.295443 0.29535,0.258528 0.29535,1.218727 0,0.923282 -0.55398,1.47725 z"
           style="font-family:SistersFL;-inkscape-font-specification:SistersFL;fill:#ffffff;stroke-width:1.64933"
           id="path796" /><path
           d="m 245.66462,47.105482 q 1.29258,1.698838 1.99428,2.400531 0.73863,0.664762 2.06814,1.144867 h 3.50847 q 1.1818,-0.775556 1.66192,-1.403387 0.51703,-0.664762 0.51703,-1.809629 0,-1.144867 -0.1845,-1.477249 -0.18451,-0.369311 -1.95736,-1.661904 -5.17036,-1.661906 -6.13059,-2.400528 -0.92327,-0.775556 -1.18177,-2.585185 l 0.29535,-2.732908 q 1.14484,-1.403387 2.99141,-2.695982 h 3.21301 q 1.73578,0.295443 2.65905,1.292595 0.92327,0.997139 1.51418,2.068146 0.59089,1.071004 0.59089,1.440315 0,0.369314 -0.14766,0.51704 -0.11081,0.110786 -0.44317,0.110786 -0.29535,0 -0.84944,-0.738625 -0.55396,-0.775556 -1.2187,-1.809629 -0.62784,-1.034076 -1.66193,-1.181799 -0.99715,-0.184643 -2.28971,-0.03693 -1.29258,0.147742 -1.58807,0.443173 -0.25847,0.258528 -0.77553,0.923279 -0.48012,0.627834 -0.48012,2.991431 l 1.84656,1.477249 5.17037,1.477249 1.8835,1.588041 0.40624,1.366456 v 3.06529 q -0.40624,1.440315 -1.29261,2.068149 -0.84939,0.62783 -2.14197,1.218727 h -5.28118 q -0.59091,-0.590897 -1.03408,-0.738622 -0.40625,-0.147742 -1.29259,-1.181799 -0.84941,-0.997144 -0.92327,-1.920423 -0.074,-0.960213 0.0368,-1.071004 0.14766,-0.147742 0.51705,-0.147742 z"
           style="font-family:SistersFL;-inkscape-font-specification:SistersFL;fill:#ffffff;stroke-width:1.64933"
           id="path793" /><path
           d="m 265.79215,44.778816 q 0,2.252803 0.29535,2.917568 0.33238,0.664762 1.21869,1.514178 0.92333,0.849416 2.5852,1.144867 l 3.50847,-0.553968 2.10507,-1.772697 q 0.66479,0 0.96022,0.295442 0.29535,0.258528 0.29535,0.480103 0,0.18467 -0.14766,0.443173 -0.11081,0.2216 -0.81248,0.849422 l -2.95451,1.440318 -1.14487,0.332377 -2.76987,-0.184643 q -0.11081,-0.110786 -0.77553,-0.29544 -0.66477,-0.147742 -0.92327,-0.147742 -0.25847,0 -0.99715,-0.553971 -0.7017,-0.517036 -1.99432,-2.585185 v -6.204443 q 0.73866,-2.142012 1.625,-3.360739 0.88634,-1.255664 2.58517,-2.252805 h 4.46869 q 1.10794,0.443176 1.73576,1.071007 0.62784,0.627828 1.6619,2.622116 l 0.14766,2.659045 q -0.84942,0.997145 -1.36647,1.55111 -0.48007,0.553971 -1.58804,0.81249 l -2.69598,0.33238 -3.17609,-0.184643 z m -0.25848,-2.10508 q 0.84942,0.849422 1.58805,0.923282 0.73862,0.07386 3.24993,0.517036 l 2.99144,-0.62783 1.25569,-0.886348 v -2.954499 q -1.51419,-1.514178 -2.5483,-1.84656 h -2.88062 q -2.28972,2.215874 -3.65619,4.874919 z"
           style="font-family:SistersFL;-inkscape-font-specification:SistersFL;fill:#ffffff;stroke-width:1.64933"
           id="path790" /></g></g></g></svg>
