<?xml version="1.0" encoding="UTF-8" standalone="no"?>
<!-- Created with Inkscape (http://www.inkscape.org/) -->

<svg
   width="1500"
   height="200"
   viewBox="0 0 396.875 52.916668"
   version="1.1"
   id="svg5"
   xml:space="preserve"
   inkscape:version="1.2 (dc2aedaf03, 2022-05-15)"
   sodipodi:docname="believe.svg"
   xmlns:inkscape="http://www.inkscape.org/namespaces/inkscape"
   xmlns:sodipodi="http://sodipodi.sourceforge.net/DTD/sodipodi-0.dtd"
   xmlns="http://www.w3.org/2000/svg"
   xmlns:svg="http://www.w3.org/2000/svg"><sodipodi:namedview
     id="namedview7"
     pagecolor="#989898"
     bordercolor="#666666"
     borderopacity="1.0"
     inkscape:showpageshadow="2"
     inkscape:pageopacity="0"
     inkscape:pagecheckerboard="0"
     inkscape:deskcolor="#d1d1d1"
     inkscape:document-units="px"
     showgrid="false"
     inkscape:zoom="0.50000001"
     inkscape:cx="1007"
     inkscape:cy="-265.99999"
     inkscape:window-width="1920"
     inkscape:window-height="1027"
     inkscape:window-x="-8"
     inkscape:window-y="-8"
     inkscape:window-maximized="1"
     inkscape:current-layer="layer1" /><defs
     id="defs2" /><g
     inkscape:label="Layer 1"
     inkscape:groupmode="layer"
     id="layer1"><rect
       style="fill:#3c3c3c;fill-opacity:1;stroke:#ffffff;stroke-width:0.792;stroke-linecap:square;stroke-dasharray:none;stroke-opacity:1;paint-order:markers fill stroke"
       id="rect330"
       width="196.63019"
       height="49.765583"
       x="100.12241"
       y="1.5755421"
       ry="24.882792" /><path
       style="fill:#000000;stroke-width:0.264583"
       id="path461"
       d="" /><path
       style="fill:#000000;stroke-width:0.264583"
       id="path493"
       d="" /><path
       style="fill:#000000;stroke-width:0.264583"
       id="path487"
       d="" /><path
       style="fill:#000000;stroke-width:0.264583"
       id="path485"
       d="" /><path
       style="fill:#000000;stroke-width:0.264583"
       id="path481"
       d="" /><path
       style="fill:#000000;stroke-width:0.264583"
       id="path479"
       d="" /><g
       aria-label="Believe"
       transform="scale(0.98401545,1.0162442)"
       id="text993"
       style="font-size:32.2092px;line-height:1.25;font-family:mini-wakuwaku;-inkscape-font-specification:mini-wakuwaku;font-variant-ligatures:none;stroke-width:1.40473"><path
         d="m 155.98931,24.431242 2.83089,2.767978 q 0.37745,0.975083 0.7549,2.736524 v 3.208338 q -1.13235,2.075984 -2.39052,3.36561 -1.25818,1.289627 -3.2398,2.138893 h -6.35376 l -0.22018,-0.22018 v -23.77945 q 0.59763,-0.849266 0.7549,-1.006538 h 5.81904 q 1.98162,1.006538 2.61071,1.604169 0.62909,0.597632 1.60417,2.296164 l 0.12582,2.327618 q -1.25818,3.239793 -2.29617,4.560874 z m -7.32885,0.975083 0.12582,12.046996 h 4.7496 q 1.88726,-0.943629 2.83088,-1.729986 0.94363,-0.817812 1.91872,-2.70507 l 0.12581,-3.019613 -0.94362,-2.327618 q -2.04453,-1.98162 -3.17689,-2.264709 z m 0.12582,-1.258172 h 5.31578 q 1.13235,-0.849266 1.72998,-1.604169 0.62909,-0.754903 0.62909,-1.006538 0,-0.251634 0.53472,-0.754903 v -2.70507 q -0.31454,-0.817811 -0.47181,-1.1009 -0.12582,-0.283089 -0.94363,-0.880721 -0.78636,-0.597631 -1.47835,-1.163809 h -4.87542 l -0.56618,0.534723 z"
         style="font-family:SistersFL;-inkscape-font-specification:SistersFL;fill:#ffffff"
         id="path2899" /><path
         d="m 166.08614,33.144082 q 0,1.918713 0.25164,2.48489 0.28309,0.566177 1.03799,1.289626 0.78636,0.723449 2.2018,0.975083 l 2.98816,-0.471814 1.79289,-1.509806 q 0.56618,0 0.81782,0.251634 0.25163,0.22018 0.25163,0.408906 0,0.157271 -0.12582,0.377451 -0.0944,0.188726 -0.69199,0.723449 l -2.51635,1.226718 -0.97508,0.283089 -2.35907,-0.157272 q -0.0944,-0.09436 -0.66054,-0.251634 -0.56618,-0.125817 -0.78636,-0.125817 -0.22018,0 -0.84927,-0.471815 -0.59763,-0.44036 -1.69853,-2.201801 v -5.284322 q 0.62909,-1.824349 1.38399,-2.862341 0.7549,-1.069446 2.2018,-1.918712 h 3.80597 q 0.94363,0.377451 1.47835,0.912174 0.53473,0.534723 1.41545,2.233256 l 0.12582,2.264709 q -0.72345,0.849266 -1.16381,1.321081 -0.40891,0.471814 -1.35254,0.691994 l -2.29616,0.283089 -2.70507,-0.157272 z m -0.22018,-1.792895 q 0.72345,0.723449 1.35254,0.786358 0.62908,0.06291 2.76798,0.44036 l 2.54779,-0.534723 1.06945,-0.754903 v -2.516344 q -1.28963,-1.289626 -2.17035,-1.572715 h -2.45343 q -1.95017,1.887258 -3.11398,4.151967 z"
         style="font-family:SistersFL;-inkscape-font-specification:SistersFL;fill:#ffffff"
         id="path2901" /><path
         d="m 185.68217,38.522767 -0.12582,-0.09436 V 13.610963 q 0.75491,-0.723449 0.91218,-0.723449 0.15727,0 0.66054,0.471814 v 25.069077 l -0.25164,0.22018 z"
         style="font-family:SistersFL;-inkscape-font-specification:SistersFL;fill:#ffffff"
         id="path2903" /><path
         d="m 202.44731,37.95659 -0.81781,0.157272 -0.50327,-0.440361 V 27.4194 q 0.50327,-0.471815 0.78636,-0.471815 0.31454,0 0.78636,0.471815 z m -0.66054,-14.217343 q -0.37745,-0.345997 -0.37745,-1.037992 0,-0.691994 0.0944,-0.88072 0.12581,-0.22018 0.25163,-0.345997 0.12582,-0.157272 0.40891,-0.157272 0.31454,0 0.53472,0.251634 0.25163,0.220181 0.25163,1.037992 0,0.786358 -0.47181,1.258172 z"
         style="font-family:SistersFL;-inkscape-font-specification:SistersFL;fill:#ffffff"
         id="path2905" /><path
         d="m 214.39995,33.144082 q 0,1.918713 0.25163,2.48489 0.28309,0.566177 1.03799,1.289626 0.78636,0.723449 2.2018,0.975083 l 2.98816,-0.471814 1.7929,-1.509806 q 0.56617,0 0.81781,0.251634 0.25163,0.22018 0.25163,0.408906 0,0.157271 -0.12581,0.377451 -0.0944,0.188726 -0.692,0.723449 l -2.51634,1.226718 -0.97509,0.283089 -2.35907,-0.157272 q -0.0944,-0.09436 -0.66054,-0.251634 -0.56618,-0.125817 -0.78636,-0.125817 -0.22018,0 -0.84926,-0.471815 -0.59763,-0.44036 -1.69853,-2.201801 v -5.284322 q 0.62908,-1.824349 1.38398,-2.862341 0.75491,-1.069446 2.20181,-1.918712 h 3.80597 q 0.94362,0.377451 1.47835,0.912174 0.53472,0.534723 1.41544,2.233256 l 0.12582,2.264709 q -0.72345,0.849266 -1.16381,1.321081 -0.40891,0.471814 -1.35254,0.691994 l -2.29616,0.283089 -2.70507,-0.157272 z m -0.22018,-1.792895 q 0.72344,0.723449 1.35253,0.786358 0.62909,0.06291 2.76798,0.44036 l 2.5478,-0.534723 1.06944,-0.754903 v -2.516344 q -1.28962,-1.289626 -2.17034,-1.572715 h -2.45344 q -1.95017,1.887258 -3.11397,4.151967 z"
         style="font-family:SistersFL;-inkscape-font-specification:SistersFL;fill:#ffffff"
         id="path2907" /><path
         d="m 233.74434,36.729872 q 1.25817,-2.359072 1.72998,-3.145429 0.47182,-0.817812 0.47182,-1.069447 0,-0.251634 0.88072,-1.729986 l 1.06944,-2.48489 0.0944,-0.566177 q 1.1009,0 1.35253,0.251634 0.25164,0.22018 0.25164,0.503269 0,0.283089 -0.25164,0.503269 -0.25163,0.22018 -0.72345,1.289626 -0.44036,1.069446 -0.91217,1.950167 -0.44036,0.88072 -0.72345,1.415443 -0.25163,0.534723 -0.25163,0.786358 0,0.251634 -0.88072,1.729986 l -1.35254,2.170347 -1.1009,0.44036 q -0.50327,-0.408906 -1.06945,-1.226718 -0.53472,-0.786357 -0.53472,-1.037992 0,-0.283088 -1.60417,-3.36561 l -1.54126,-4.655236 q -0.22018,-0.22018 -0.22018,-0.503269 0,-0.314543 0.22018,-0.534723 0.25164,-0.251634 0.53472,-0.251634 0.28309,0 0.53473,0.471814 0.28309,0.440361 0.84926,2.013075 0.59763,1.572715 1.1009,2.673616 0.50327,1.069446 0.56618,1.54126 0.0629,0.440361 0.346,0.849267 0.28309,0.408905 1.16381,1.98162 z"
         style="font-family:SistersFL;-inkscape-font-specification:SistersFL;fill:#ffffff"
         id="path2909" /><path
         d="m 246.60915,33.144082 q 0,1.918713 0.25164,2.48489 0.28308,0.566177 1.03799,1.289626 0.78635,0.723449 2.2018,0.975083 l 2.98816,-0.471814 1.79289,-1.509806 q 0.56618,0 0.81781,0.251634 0.25164,0.22018 0.25164,0.408906 0,0.157271 -0.12582,0.377451 -0.0944,0.188726 -0.69199,0.723449 l -2.51635,1.226718 -0.97508,0.283089 -2.35907,-0.157272 q -0.0944,-0.09436 -0.66054,-0.251634 -0.56618,-0.125817 -0.78636,-0.125817 -0.22018,0 -0.84927,-0.471815 -0.59763,-0.44036 -1.69853,-2.201801 v -5.284322 q 0.62909,-1.824349 1.38399,-2.862341 0.7549,-1.069446 2.2018,-1.918712 h 3.80597 q 0.94363,0.377451 1.47835,0.912174 0.53473,0.534723 1.41545,2.233256 l 0.12581,2.264709 q -0.72345,0.849266 -1.16381,1.321081 -0.4089,0.471814 -1.35253,0.691994 l -2.29616,0.283089 -2.70507,-0.157272 z m -0.22018,-1.792895 q 0.72345,0.723449 1.35254,0.786358 0.62908,0.06291 2.76797,0.44036 l 2.5478,-0.534723 1.06945,-0.754903 v -2.516344 q -1.28963,-1.289626 -2.17035,-1.572715 h -2.45343 q -1.95017,1.887258 -3.11398,4.151967 z"
         style="font-family:SistersFL;-inkscape-font-specification:SistersFL;fill:#ffffff"
         id="path2911" /></g></g></svg>
