<?xml version="1.0" encoding="UTF-8" standalone="no"?>
<svg
   xmlns:dc="http://purl.org/dc/elements/1.1/"
   xmlns:cc="http://creativecommons.org/ns#"
   xmlns:rdf="http://www.w3.org/1999/02/22-rdf-syntax-ns#"
   xmlns:svg="http://www.w3.org/2000/svg"
   xmlns="http://www.w3.org/2000/svg"
   xmlns:sodipodi="http://sodipodi.sourceforge.net/DTD/sodipodi-0.dtd"
   xmlns:inkscape="http://www.inkscape.org/namespaces/inkscape"
   sodipodi:docname="bgm.svg"
   inkscape:version="1.0 (4035a4fb49, 2020-05-01)"
   id="svg1967"
   version="1.1"
   viewBox="0 0 285.74999 508.00002"
   height="1920"
   width="1080">
  <defs
     id="defs1961" />
  <sodipodi:namedview
     inkscape:window-maximized="1"
     inkscape:window-y="-4"
     inkscape:window-x="-4"
     inkscape:window-height="1027"
     inkscape:window-width="1920"
     units="px"
     showgrid="false"
     inkscape:document-rotation="0"
     inkscape:current-layer="layer1"
     inkscape:document-units="mm"
     inkscape:cy="972.00843"
     inkscape:cx="681.53845"
     inkscape:zoom="0.35"
     inkscape:pageshadow="2"
     inkscape:pageopacity="0.0"
     borderopacity="1.0"
     bordercolor="#666666"
     pagecolor="#ffffff"
     id="base" />
  <metadata
     id="metadata1964">
    <rdf:RDF>
      <cc:Work
         rdf:about="">
        <dc:format>image/svg+xml</dc:format>
        <dc:type
           rdf:resource="http://purl.org/dc/dcmitype/StillImage" />
        <dc:title></dc:title>
      </cc:Work>
    </rdf:RDF>
  </metadata>
  <g
     id="layer1"
     inkscape:groupmode="layer"
     inkscape:label="Layer 1">
    <rect
       transform="rotate(90)"
       y="-285.75"
       x="-2.8421709e-14"
       height="285.75"
       width="508"
       id="rect2538"
       style="fill:#00001d;fill-opacity:1;stroke:none;stroke-width:0.532618" />
    <path
       transform="rotate(90,34.745038,41.694047)"
       inkscape:transform-center-y="-0.066905496"
       inkscape:transform-center-x="-0.53346714"
       d="m 40.624966,39.55589 -2.873059,3.001322 0.843635,4.068253 -3.74225,-1.804983 -3.608441,2.059504 0.560221,-4.116862 -3.073774,-2.795409 4.088486,-0.739378 1.708744,-3.787163 1.966602,3.659902 z"
       inkscape:randomized="0"
       inkscape:rounded="0"
       inkscape:flatsided="false"
       sodipodi:arg2="0.27954753"
       sodipodi:arg1="-0.348771"
       sodipodi:r2="3.1283095"
       sodipodi:r1="6.256619"
       sodipodi:cy="41.694046"
       sodipodi:cx="34.745037"
       sodipodi:sides="5"
       id="path2542"
       style="fill:#ffeeaa;stroke:none;stroke-width:0.564999"
       sodipodi:type="star" />
    <path
       transform="rotate(90,62.006532,112.2532)"
       inkscape:transform-center-y="0.062940365"
       inkscape:transform-center-x="0.37582267"
       d="m 57.730219,113.85681 2.075216,-2.21171 -0.645488,-2.96337 2.744745,1.29019 2.618866,-1.52963 -0.378871,3.0091 2.264035,2.01801 -2.978899,0.56953 -1.219615,2.77683 -1.462191,-2.65711 z"
       inkscape:randomized="0"
       inkscape:rounded="0"
       inkscape:flatsided="false"
       sodipodi:arg2="3.4111405"
       sodipodi:arg1="2.782822"
       sodipodi:r2="2.2835517"
       sodipodi:r1="4.5671034"
       sodipodi:cy="112.2532"
       sodipodi:cx="62.006531"
       sodipodi:sides="5"
       id="path2544"
       style="fill:#ffeeaa;stroke:none;stroke-width:0.564999"
       sodipodi:type="star" />
    <path
       transform="rotate(90,41.694047,211.67748)"
       inkscape:transform-center-y="-0.38109786"
       inkscape:transform-center-x="0.26619068"
       d="m 47.573976,214.88471 -4.444031,-0.18181 -2.669162,3.55781 -1.200367,-4.28271 -4.208498,-1.4391 3.702163,-2.46504 0.06817,-4.44723 3.48843,2.75923 4.250627,-1.30944 -1.546195,4.17034 z"
       inkscape:randomized="0"
       inkscape:rounded="0"
       inkscape:flatsided="false"
       sodipodi:arg2="1.1276653"
       sodipodi:arg1="0.49934672"
       sodipodi:r2="3.3488774"
       sodipodi:r1="6.6977553"
       sodipodi:cy="211.67747"
       sodipodi:cx="41.694046"
       sodipodi:sides="5"
       id="path2546"
       style="fill:#ffeeaa;stroke:none;stroke-width:0.564999"
       sodipodi:type="star" />
    <path
       transform="rotate(90,212.20978,-66.476603)"
       inkscape:transform-center-y="-0.59617079"
       inkscape:transform-center-x="-0.13471277"
       d="m 473.60161,32.072343 -4.91532,-1.136753 -3.723,3.404682 -0.43781,-5.026025 -4.38851,-2.48868 4.64474,-1.969501 1.01075,-4.94277 3.30842,3.808806 5.01319,-0.566121 -2.60004,4.323473 z"
       inkscape:randomized="0"
       inkscape:rounded="0"
       inkscape:flatsided="false"
       sodipodi:arg2="1.314048"
       sodipodi:arg1="0.68572951"
       sodipodi:r2="3.7986135"
       sodipodi:r1="7.5972271"
       sodipodi:cy="27.261492"
       sodipodi:cx="467.72168"
       sodipodi:sides="5"
       id="path2548"
       style="fill:#ffeeaa;stroke:none;stroke-width:0.564999"
       sodipodi:type="star" />
    <path
       transform="rotate(90,214.41931,142.95446)"
       inkscape:transform-center-y="0.14617287"
       inkscape:transform-center-x="0.14616706"
       d="m 444.73651,133.63475 1.90164,0.64486 1.60929,-1.20094 -0.0257,2.00784 1.63947,1.15942 -1.91751,0.59605 -0.59605,1.9175 -1.15942,-1.63946 -2.00784,0.0257 1.20094,-1.60929 z"
       inkscape:randomized="0"
       inkscape:rounded="0"
       inkscape:flatsided="false"
       sodipodi:arg2="-1.727876"
       sodipodi:arg1="-2.3561945"
       sodipodi:r2="1.5119048"
       sodipodi:r1="3.0238092"
       sodipodi:cy="135.7729"
       sodipodi:cx="446.87466"
       sodipodi:sides="5"
       id="path2550"
       style="fill:#ffeeaa;stroke:none;stroke-width:0.564999"
       sodipodi:type="star" />
    <path
       transform="rotate(90,193.57229,188.39029)"
       inkscape:transform-center-y="-0.38944234"
       inkscape:transform-center-x="-0.15870812"
       d="m 430.30396,184.95051 -3.64619,-0.97141 -2.86731,2.45293 -0.20286,-3.76792 -3.21892,-1.96897 3.52081,-1.35729 0.87791,-3.66982 2.37884,2.92907 3.7615,-0.2991 -2.05061,3.16754 z"
       inkscape:randomized="0"
       inkscape:rounded="0"
       inkscape:flatsided="false"
       sodipodi:arg2="1.3471485"
       sodipodi:arg1="0.71883"
       sodipodi:r2="2.8411138"
       sodipodi:r1="5.6822281"
       sodipodi:cy="181.20874"
       sodipodi:cx="426.02765"
       sodipodi:sides="5"
       id="path2552"
       style="fill:#ffeeaa;stroke:none;stroke-width:0.564999"
       sodipodi:type="star" />
    <path
       transform="rotate(90,248.09524,254.13858)"
       inkscape:transform-center-y="-0.44007993"
       inkscape:transform-center-x="0.48438876"
       d="m 489.10322,251.23334 -6.34979,-0.0329 -3.62694,5.21212 -1.93085,-6.04919 -6.07781,-1.83879 5.15646,-3.70565 -0.12936,-6.34856 5.11772,3.75897 5.99787,-2.08484 -1.99354,6.02883 z"
       inkscape:randomized="0"
       inkscape:rounded="0"
       inkscape:flatsided="false"
       sodipodi:arg2="1.0919661"
       sodipodi:arg1="0.46364761"
       sodipodi:r2="4.7810626"
       sodipodi:r1="9.5621252"
       sodipodi:cy="246.95703"
       sodipodi:cx="480.5506"
       sodipodi:sides="5"
       id="path2554"
       style="fill:#ffeeaa;stroke:none;stroke-width:0.564999"
       sodipodi:type="star" />
    <path
       transform="rotate(90,14.375012,284.88438)"
       inkscape:transform-center-y="0.096020763"
       inkscape:transform-center-x="-0.64425568"
       d="m 88.198943,251.23336 -4.431673,-2.56298 -4.623709,2.19771 1.068082,-5.00678 -3.518952,-3.71828 5.091783,-0.53137 2.448877,-4.49573 2.078814,4.67837 5.032441,0.93976 -3.807006,3.42276 z"
       inkscape:randomized="0"
       inkscape:rounded="0"
       inkscape:flatsided="false"
       sodipodi:arg2="1.6111123"
       sodipodi:arg1="0.98279372"
       sodipodi:r2="3.8546159"
       sodipodi:r1="7.7092319"
       sodipodi:cy="244.81889"
       sodipodi:cx="83.92263"
       sodipodi:sides="5"
       id="path2556"
       style="fill:#ffeeaa;stroke:none;stroke-width:0.564999"
       sodipodi:type="star" />
    <path
       transform="rotate(90,87.129861,17.10525)"
       inkscape:transform-center-y="-0.015861801"
       inkscape:transform-center-x="0.63055648"
       d="m 93.544329,19.243406 -4.448151,0.611911 -2.017646,4.011181 -1.956516,-4.041351 -4.438347,-0.679372 3.238957,-3.109604 -0.725404,-4.431056 3.958302,2.11951 3.990023,-2.059171 -0.792592,4.419533 z"
       inkscape:randomized="0"
       inkscape:rounded="0"
       inkscape:flatsided="false"
       sodipodi:arg2="0.95006909"
       sodipodi:arg1="0.32175055"
       sodipodi:r2="3.3807216"
       sodipodi:r1="6.7614436"
       sodipodi:cy="17.105249"
       sodipodi:cx="87.12986"
       sodipodi:sides="5"
       id="path2558"
       style="fill:#ffeeaa;stroke:none;stroke-width:0.564999"
       sodipodi:type="star" />
    <path
       transform="rotate(90,203.72914,90.336315)"
       inkscape:transform-center-y="-0.31118103"
       inkscape:transform-center-x="0.34251222"
       d="m 417.28569,72.571432 -4.48998,-0.0233 -2.56464,3.685529 -1.36532,-4.277427 -4.29766,-1.300221 3.64617,-2.620293 -0.0915,-4.48911 3.61878,2.657997 4.24113,-1.474201 -1.40964,4.263025 z"
       inkscape:randomized="0"
       inkscape:rounded="0"
       inkscape:flatsided="false"
       sodipodi:arg2="1.0919661"
       sodipodi:arg1="0.46364761"
       sodipodi:r2="3.3807216"
       sodipodi:r1="6.7614436"
       sodipodi:cy="69.547623"
       sodipodi:cx="411.23807"
       sodipodi:sides="5"
       id="path2560"
       style="fill:#ffeeaa;stroke:none;stroke-width:0.564999"
       sodipodi:type="star" />
    <path
       transform="rotate(90,151.94643,121.70833)"
       inkscape:transform-center-y="0.13876292"
       inkscape:transform-center-x="0.2335987"
       d="m 155.72619,122.46428 -2.47299,0.66068 -0.85772,2.41174 -1.39254,-2.14779 -2.55874,-0.0705 1.61235,-1.98809 -0.72368,-2.45529 2.38903,0.91908 2.11149,-1.44698 -0.13585,2.55611 z"
       inkscape:randomized="0"
       inkscape:rounded="0"
       inkscape:flatsided="false"
       sodipodi:arg2="0.82571409"
       sodipodi:arg1="0.19739556"
       sodipodi:r2="1.927308"
       sodipodi:r1="3.8546159"
       sodipodi:cy="121.70833"
       sodipodi:cx="151.94643"
       sodipodi:sides="5"
       id="path2562"
       style="fill:#ffeeaa;stroke:none;stroke-width:0.564999"
       sodipodi:type="star" />
    <path
       transform="rotate(90,104.6994,221.87203)"
       inkscape:transform-center-y="-0.20672437"
       inkscape:transform-center-x="-0.20672648"
       d="m 340.17856,217.71428 -2.68932,-0.91197 -2.27589,1.69839 0.0363,-2.83952 -2.31855,-1.63967 2.71176,-0.84294 0.84294,-2.71176 1.63967,2.31855 2.83952,-0.0363 -1.69839,2.27589 z"
       inkscape:randomized="0"
       inkscape:rounded="0"
       inkscape:flatsided="false"
       sodipodi:arg2="1.4137167"
       sodipodi:arg1="0.78539816"
       sodipodi:r2="2.1381564"
       sodipodi:r1="4.2763124"
       sodipodi:cy="214.69048"
       sodipodi:cx="337.15475"
       sodipodi:sides="5"
       id="path2564"
       style="fill:#ffeeaa;stroke:none;stroke-width:0.564999"
       sodipodi:type="star" />
    <path
       transform="rotate(90,94.116063,51.02679)"
       inkscape:transform-center-y="-0.6055439"
       inkscape:transform-center-x="0.016209555"
       d="m 331.86308,47.625003 -4.26199,-0.695634 -2.98923,3.116557 -0.65544,-4.268353 -3.88774,-1.879859 3.8569,-1.942353 0.58647,-4.278374 3.03914,3.067912 4.2502,-0.764321 -1.97861,3.838427 z"
       inkscape:randomized="0"
       inkscape:rounded="0"
       inkscape:flatsided="false"
       sodipodi:arg2="1.248568"
       sodipodi:arg1="0.62024949"
       sodipodi:r2="3.2514739"
       sodipodi:r1="6.5029478"
       sodipodi:cy="43.845242"
       sodipodi:cx="326.57141"
       sodipodi:sides="5"
       id="path2566"
       style="fill:#ffeeaa;stroke:none;stroke-width:0.564999"
       sodipodi:type="star" />
    <path
       transform="rotate(90,187.47618,47.625001)"
       inkscape:transform-center-y="0.060972957"
       inkscape:transform-center-x="0.46720669"
       d="m 192.76785,49.136905 -3.59548,0.654855 -1.49888,3.333118 -1.73387,-3.217143 -3.63316,-0.395528 2.52389,-2.643159 -0.74654,-3.577568 3.29372,1.583581 3.17177,-1.815531 -0.48826,3.621866 z"
       inkscape:randomized="0"
       inkscape:rounded="0"
       inkscape:flatsided="false"
       sodipodi:arg2="0.90661819"
       sodipodi:arg1="0.27829966"
       sodipodi:r2="2.7517083"
       sodipodi:r1="5.5034165"
       sodipodi:cy="47.625"
       sodipodi:cx="187.47618"
       sodipodi:sides="5"
       id="path2568"
       style="fill:#ffeeaa;stroke:none;stroke-width:0.564999"
       sodipodi:type="star" />
    <path
       transform="rotate(90,203.35118,227.54166)"
       inkscape:transform-center-y="-0.08340086"
       inkscape:transform-center-x="-0.30856317"
       d="m 207.13094,226.02975 -1.80648,2.01117 0.63264,2.6283 -2.47097,-1.09658 -2.30417,1.41386 0.27934,-2.68889 -2.05669,-1.75449 2.64361,-0.56524 1.03306,-2.49819 1.35451,2.33954 z"
       inkscape:randomized="0"
       inkscape:rounded="0"
       inkscape:flatsided="false"
       sodipodi:arg2="0.24781215"
       sodipodi:arg1="-0.38050638"
       sodipodi:r2="2.035464"
       sodipodi:r1="4.0709281"
       sodipodi:cy="227.54166"
       sodipodi:cx="203.35118"
       sodipodi:sides="5"
       id="path2570"
       style="fill:#ffeeaa;stroke:none;stroke-width:0.564999"
       sodipodi:type="star" />
    <path
       transform="rotate(90,239.63692,189.74405)"
       inkscape:transform-center-y="0.13315619"
       inkscape:transform-center-x="-0.4672115"
       d="m 161.01786,181.42857 -3.15696,2.67768 0.41607,4.11865 -3.52218,-2.17501 -3.7885,1.66844 0.98015,-4.0219 -2.7575,-3.0875 4.12794,-0.31067 2.08428,-3.57662 1.57106,3.82991 z"
       inkscape:randomized="0"
       inkscape:rounded="0"
       inkscape:flatsided="false"
       sodipodi:arg2="0.38333987"
       sodipodi:arg1="-0.24497866"
       sodipodi:r2="3.1168716"
       sodipodi:r1="6.2337432"
       sodipodi:cy="182.94048"
       sodipodi:cx="154.97025"
       sodipodi:sides="5"
       id="path2572"
       style="fill:#ffeeaa;stroke:none;stroke-width:0.564999"
       sodipodi:type="star" />
    <path
       transform="rotate(90,132.66964,143.25298)"
       inkscape:transform-center-y="-0.53334606"
       inkscape:transform-center-x="-0.15352165"
       d="m 371.17262,132.29166 -2.49046,4.02817 1.90642,4.33521 -4.6006,-1.12379 -3.53392,3.15277 -0.35287,-4.72271 -4.0905,-2.38669 4.38252,-1.795 1.00584,-4.62783 3.06142,3.61334 z"
       inkscape:randomized="0"
       inkscape:rounded="0"
       inkscape:flatsided="false"
       sodipodi:arg2="0.069719215"
       sodipodi:arg1="-0.55859932"
       sodipodi:r2="3.5658202"
       sodipodi:r1="7.1316404"
       sodipodi:cy="136.07143"
       sodipodi:cx="365.125"
       sodipodi:sides="5"
       id="path2574"
       style="fill:#ffeeaa;stroke:none;stroke-width:0.564999"
       sodipodi:type="star" />
  </g>
</svg>
