<?xml version="1.0" encoding="UTF-8" standalone="no"?>
<svg
   width="400"
   height="100"
   viewBox="0 0 105.83335 26.458349"
   version="1.1"
   id="svg8"
   inkscape:export-filename="F:\Desktop\bitmap.png"
   inkscape:export-xdpi="120.95"
   inkscape:export-ydpi="120.95"
   inkscape:version="1.2 (dc2aedaf03, 2022-05-15)"
   sodipodi:docname="commission.svg"
   xmlns:inkscape="http://www.inkscape.org/namespaces/inkscape"
   xmlns:sodipodi="http://sodipodi.sourceforge.net/DTD/sodipodi-0.dtd"
   xmlns:xlink="http://www.w3.org/1999/xlink"
   xmlns="http://www.w3.org/2000/svg"
   xmlns:svg="http://www.w3.org/2000/svg"
   xmlns:rdf="http://www.w3.org/1999/02/22-rdf-syntax-ns#"
   xmlns:cc="http://creativecommons.org/ns#"
   xmlns:dc="http://purl.org/dc/elements/1.1/">
  <defs
     id="defs2">
    <inkscape:path-effect
       effect="powerclip"
       id="path-effect1293"
       is_visible="true"
       lpeversion="1"
       inverse="true"
       flatten="false"
       hide_clip="false"
       message="Use fill-rule evenodd on &lt;b&gt;fill and stroke&lt;/b&gt; dialog if no flatten result after convert clip to paths." />
    <inkscape:path-effect
       effect="powerclip"
       id="path-effect1291"
       is_visible="true"
       lpeversion="1"
       inverse="true"
       flatten="false"
       hide_clip="false"
       message="Use fill-rule evenodd on &lt;b&gt;fill and stroke&lt;/b&gt; dialog if no flatten result after convert clip to paths." />
    <inkscape:path-effect
       effect="powerclip"
       id="path-effect1223"
       is_visible="true"
       lpeversion="1"
       inverse="true"
       flatten="false"
       hide_clip="false"
       message="Use fill-rule evenodd on &lt;b&gt;fill and stroke&lt;/b&gt; dialog if no flatten result after convert clip to paths." />
    <inkscape:path-effect
       effect="powerclip"
       id="path-effect1221"
       is_visible="true"
       lpeversion="1"
       inverse="true"
       flatten="false"
       hide_clip="false"
       message="Use fill-rule evenodd on &lt;b&gt;fill and stroke&lt;/b&gt; dialog if no flatten result after convert clip to paths." />
    <linearGradient
       id="linearGradient920"
       inkscape:swatch="solid">
      <stop
         style="stop-color:#fae2f4;stop-opacity:1;"
         offset="0"
         id="stop918" />
    </linearGradient>
    <inkscape:path-effect
       effect="powerclip"
       id="path-effect1002"
       is_visible="true"
       lpeversion="1"
       inverse="true"
       flatten="false"
       hide_clip="false"
       message="Use fill-rule evenodd on &lt;b&gt;fill and stroke&lt;/b&gt; dialog if no flatten result after convert clip to paths." />
    <inkscape:path-effect
       effect="powerclip"
       id="path-effect922"
       is_visible="true"
       lpeversion="1"
       inverse="true"
       flatten="false"
       hide_clip="false"
       message="Use fill-rule evenodd on &lt;b&gt;fill and stroke&lt;/b&gt; dialog if no flatten result after convert clip to paths." />
    <filter
       style="color-interpolation-filters:sRGB"
       inkscape:label="Brilliance"
       id="filter853">
      <feColorMatrix
         values="1 -0 -0 0 -10 -0 1 -0 0 -10 -0 -0 1 0 -10 0 0 0 1 0 "
         id="feColorMatrix851"
         result="fbSourceGraphic" />
      <feColorMatrix
         result="fbSourceGraphicAlpha"
         in="fbSourceGraphic"
         values="0 0 0 -1 0 0 0 0 -1 0 0 0 0 -1 0 0 0 0 1 0"
         id="feColorMatrix855" />
      <feColorMatrix
         id="feColorMatrix857"
         values="1 -0 -0 0 -10 -0 1 -0 0 -10 -0 -0 1 0 -10 0 0 0 1 0 "
         in="fbSourceGraphic" />
    </filter>
    <clipPath
       clipPathUnits="userSpaceOnUse"
       id="clipPath918">
      <path
         style="display:none;fill:#ffffff;stroke:none;stroke-width:1.43718;stroke-linejoin:round;stroke-miterlimit:0;stroke-opacity:1"
         d="m 41.629402,136.1588 c -2.84277,-0.49477 -4.641291,-3.10489 -5.015108,-7.2782 -0.07674,-0.85674 -0.03112,-3.55982 0.07695,-4.55963 0.378944,-3.50574 1.283769,-5.70317 2.828784,-6.86989 1.149321,-0.86791 2.957224,-1.09784 4.405439,-0.5603 2.624555,0.97418 3.948772,4.43168 3.949323,10.31162 3.95e-4,4.48453 -1.659786,8.0229 -4.146834,8.83807 -0.48306,0.15833 -1.529632,0.21734 -2.098552,0.11833 z"
         id="path920" />
    </clipPath>
    <clipPath
       clipPathUnits="userSpaceOnUse"
       id="clipath_lpe_path-effect1002">
      <path
         style="display:block;fill:#ffffff;stroke:none;stroke-width:1.43718;stroke-linejoin:round;stroke-miterlimit:0;stroke-opacity:1"
         d="m 41.629402,136.1588 c -2.84277,-0.49477 -4.641291,-3.10489 -5.015108,-7.2782 -0.07674,-0.85674 -0.03112,-3.55982 0.07695,-4.55963 0.378944,-3.50574 1.283769,-5.70317 2.828784,-6.86989 1.149321,-0.86791 2.957224,-1.09784 4.405439,-0.5603 2.624555,0.97418 3.948772,4.43168 3.949323,10.31162 3.95e-4,4.48453 -1.659786,8.0229 -4.146834,8.83807 -0.48306,0.15833 -1.529632,0.21734 -2.098552,0.11833 z"
         id="path1004" />
    </clipPath>
    <linearGradient
       inkscape:collect="always"
       xlink:href="#linearGradient920"
       id="linearGradient1059"
       gradientUnits="userSpaceOnUse"
       x1="20.771488"
       y1="183.59206"
       x2="223.66801"
       y2="183.59206" />
    <clipPath
       clipPathUnits="userSpaceOnUse"
       id="clipath_lpe_path-effect1002-4">
      <path
         style="display:none;fill:#ffffff;stroke:none;stroke-width:1.43718;stroke-linejoin:round;stroke-miterlimit:0;stroke-opacity:1"
         d="m 41.629402,136.1588 c -2.84277,-0.49477 -4.641291,-3.10489 -5.015108,-7.2782 -0.07674,-0.85674 -0.03112,-3.55982 0.07695,-4.55963 0.378944,-3.50574 1.283769,-5.70317 2.828784,-6.86989 1.149321,-0.86791 2.957224,-1.09784 4.405439,-0.5603 2.624555,0.97418 3.948772,4.43168 3.949323,10.31162 3.95e-4,4.48453 -1.659786,8.0229 -4.146834,8.83807 -0.48306,0.15833 -1.529632,0.21734 -2.098552,0.11833 z"
         id="path1004-1" />
      <path
         id="lpe_path-effect1002-9"
         style="fill:#ffffff;stroke:none;stroke-width:1.43718;stroke-linejoin:round;stroke-miterlimit:0;stroke-opacity:1"
         class="powerclip"
         d="m 0,0 m 41.629402,136.1588 h 2e-6 c 0.56892,0.099 1.615492,0.04 2.098552,-0.11833 2.487048,-0.81517 4.147229,-4.35354 4.146834,-8.83807 -5.51e-4,-5.87994 -1.324768,-9.33744 -3.949323,-10.31162 -1.448215,-0.53754 -3.256118,-0.30761 -4.405439,0.5603 -1.545015,1.16672 -2.44984,3.36415 -2.828784,6.86989 -0.10807,0.99981 -0.15369,3.70289 -0.07695,4.55963 0.373817,4.17331 2.172338,6.78343 5.015108,7.2782 z" />
    </clipPath>
    <clipPath
       clipPathUnits="userSpaceOnUse"
       id="clipath_lpe_path-effect922">
      <path
         style="display:none;fill:#ffffff;stroke:none;stroke-width:1.43718;stroke-linejoin:round;stroke-miterlimit:0;stroke-opacity:1"
         d="m 41.629402,136.1588 c -2.84277,-0.49477 -4.641291,-3.10489 -5.015108,-7.2782 -0.07674,-0.85674 -0.03112,-3.55982 0.07695,-4.55963 0.378944,-3.50574 1.283769,-5.70317 2.828784,-6.86989 1.149321,-0.86791 2.957224,-1.09784 4.405439,-0.5603 2.624555,0.97418 3.948772,4.43168 3.949323,10.31162 3.95e-4,4.48453 -1.659786,8.0229 -4.146834,8.83807 -0.48306,0.15833 -1.529632,0.21734 -2.098552,0.11833 z"
         id="path1172" />
      <path
         id="lpe_path-effect922-0"
         style="fill:#ffffff;stroke:none;stroke-width:1.43718;stroke-linejoin:round;stroke-miterlimit:0;stroke-opacity:1"
         class="powerclip"
         d="m 0,0 m 41.629402,136.1588 h 2e-6 c 0.56892,0.099 1.615492,0.04 2.098552,-0.11833 2.487048,-0.81517 4.147229,-4.35354 4.146834,-8.83807 -5.51e-4,-5.87994 -1.324768,-9.33744 -3.949323,-10.31162 -1.448215,-0.53754 -3.256118,-0.30761 -4.405439,0.5603 -1.545015,1.16672 -2.44984,3.36415 -2.828784,6.86989 -0.10807,0.99981 -0.15369,3.70289 -0.07695,4.55963 0.373817,4.17331 2.172338,6.78343 5.015108,7.2782 z" />
    </clipPath>
    <clipPath
       clipPathUnits="userSpaceOnUse"
       id="clipath_lpe_path-effect1221">
      <path
         style="display:none;fill:#ffffff;stroke:none;stroke-width:1.43718;stroke-linejoin:round;stroke-miterlimit:0;stroke-opacity:1"
         d="m 41.629402,136.1588 c -2.84277,-0.49477 -4.641291,-3.10489 -5.015108,-7.2782 -0.07674,-0.85674 -0.03112,-3.55982 0.07695,-4.55963 0.378944,-3.50574 1.283769,-5.70317 2.828784,-6.86989 1.149321,-0.86791 2.957224,-1.09784 4.405439,-0.5603 2.624555,0.97418 3.948772,4.43168 3.949323,10.31162 3.95e-4,4.48453 -1.659786,8.0229 -4.146834,8.83807 -0.48306,0.15833 -1.529632,0.21734 -2.098552,0.11833 z"
         id="path1225" />
    </clipPath>
    <clipPath
       clipPathUnits="userSpaceOnUse"
       id="clipath_lpe_path-effect1223">
      <path
         style="display:block;fill:#ffffff;stroke:none;stroke-width:1.43718;stroke-linejoin:round;stroke-miterlimit:0;stroke-opacity:1"
         d="m 41.629402,136.1588 c -2.84277,-0.49477 -4.641291,-3.10489 -5.015108,-7.2782 -0.07674,-0.85674 -0.03112,-3.55982 0.07695,-4.55963 0.378944,-3.50574 1.283769,-5.70317 2.828784,-6.86989 1.149321,-0.86791 2.957224,-1.09784 4.405439,-0.5603 2.624555,0.97418 3.948772,4.43168 3.949323,10.31162 3.95e-4,4.48453 -1.659786,8.0229 -4.146834,8.83807 -0.48306,0.15833 -1.529632,0.21734 -2.098552,0.11833 z"
         id="path1230" />
    </clipPath>
    <clipPath
       clipPathUnits="userSpaceOnUse"
       id="clipath_lpe_path-effect1002-6">
      <path
         style="display:none;fill:#ffffff;stroke:none;stroke-width:1.43718;stroke-linejoin:round;stroke-miterlimit:0;stroke-opacity:1"
         d="m 41.629402,136.1588 c -2.84277,-0.49477 -4.641291,-3.10489 -5.015108,-7.2782 -0.07674,-0.85674 -0.03112,-3.55982 0.07695,-4.55963 0.378944,-3.50574 1.283769,-5.70317 2.828784,-6.86989 1.149321,-0.86791 2.957224,-1.09784 4.405439,-0.5603 2.624555,0.97418 3.948772,4.43168 3.949323,10.31162 3.95e-4,4.48453 -1.659786,8.0229 -4.146834,8.83807 -0.48306,0.15833 -1.529632,0.21734 -2.098552,0.11833 z"
         id="path1004-4" />
      <path
         id="lpe_path-effect1002-7"
         style="fill:#ffffff;stroke:none;stroke-width:1.43718;stroke-linejoin:round;stroke-miterlimit:0;stroke-opacity:1"
         class="powerclip"
         d="m 0,0 m 41.629402,136.1588 h 2e-6 c 0.56892,0.099 1.615492,0.04 2.098552,-0.11833 2.487048,-0.81517 4.147229,-4.35354 4.146834,-8.83807 -5.51e-4,-5.87994 -1.324768,-9.33744 -3.949323,-10.31162 -1.448215,-0.53754 -3.256118,-0.30761 -4.405439,0.5603 -1.545015,1.16672 -2.44984,3.36415 -2.828784,6.86989 -0.10807,0.99981 -0.15369,3.70289 -0.07695,4.55963 0.373817,4.17331 2.172338,6.78343 5.015108,7.2782 z" />
    </clipPath>
    <clipPath
       clipPathUnits="userSpaceOnUse"
       id="clipath_lpe_path-effect922-1">
      <path
         style="display:none;fill:#ffffff;stroke:none;stroke-width:1.43718;stroke-linejoin:round;stroke-miterlimit:0;stroke-opacity:1"
         d="m 41.629402,136.1588 c -2.84277,-0.49477 -4.641291,-3.10489 -5.015108,-7.2782 -0.07674,-0.85674 -0.03112,-3.55982 0.07695,-4.55963 0.378944,-3.50574 1.283769,-5.70317 2.828784,-6.86989 1.149321,-0.86791 2.957224,-1.09784 4.405439,-0.5603 2.624555,0.97418 3.948772,4.43168 3.949323,10.31162 3.95e-4,4.48453 -1.659786,8.0229 -4.146834,8.83807 -0.48306,0.15833 -1.529632,0.21734 -2.098552,0.11833 z"
         id="path1172-0" />
      <path
         id="lpe_path-effect922-7"
         style="fill:#ffffff;stroke:none;stroke-width:1.43718;stroke-linejoin:round;stroke-miterlimit:0;stroke-opacity:1"
         class="powerclip"
         d="m 0,0 m 41.629402,136.1588 h 2e-6 c 0.56892,0.099 1.615492,0.04 2.098552,-0.11833 2.487048,-0.81517 4.147229,-4.35354 4.146834,-8.83807 -5.51e-4,-5.87994 -1.324768,-9.33744 -3.949323,-10.31162 -1.448215,-0.53754 -3.256118,-0.30761 -4.405439,0.5603 -1.545015,1.16672 -2.44984,3.36415 -2.828784,6.86989 -0.10807,0.99981 -0.15369,3.70289 -0.07695,4.55963 0.373817,4.17331 2.172338,6.78343 5.015108,7.2782 z" />
    </clipPath>
    <clipPath
       clipPathUnits="userSpaceOnUse"
       id="clipath_lpe_path-effect1291">
      <path
         style="display:none;fill:#ffffff;stroke:none;stroke-width:1.43718;stroke-linejoin:round;stroke-miterlimit:0;stroke-opacity:1"
         d="m 41.629402,136.1588 c -2.84277,-0.49477 -4.641291,-3.10489 -5.015108,-7.2782 -0.07674,-0.85674 -0.03112,-3.55982 0.07695,-4.55963 0.378944,-3.50574 1.283769,-5.70317 2.828784,-6.86989 1.149321,-0.86791 2.957224,-1.09784 4.405439,-0.5603 2.624555,0.97418 3.948772,4.43168 3.949323,10.31162 3.95e-4,4.48453 -1.659786,8.0229 -4.146834,8.83807 -0.48306,0.15833 -1.529632,0.21734 -2.098552,0.11833 z"
         id="path1295" />
    </clipPath>
    <clipPath
       clipPathUnits="userSpaceOnUse"
       id="clipath_lpe_path-effect1293">
      <path
         style="display:block;fill:#ffffff;stroke:none;stroke-width:1.43718;stroke-linejoin:round;stroke-miterlimit:0;stroke-opacity:1"
         d="m 41.629402,136.1588 c -2.84277,-0.49477 -4.641291,-3.10489 -5.015108,-7.2782 -0.07674,-0.85674 -0.03112,-3.55982 0.07695,-4.55963 0.378944,-3.50574 1.283769,-5.70317 2.828784,-6.86989 1.149321,-0.86791 2.957224,-1.09784 4.405439,-0.5603 2.624555,0.97418 3.948772,4.43168 3.949323,10.31162 3.95e-4,4.48453 -1.659786,8.0229 -4.146834,8.83807 -0.48306,0.15833 -1.529632,0.21734 -2.098552,0.11833 z"
         id="path1300" />
    </clipPath>
  </defs>
  <sodipodi:namedview
     id="base"
     pagecolor="#ffffff"
     bordercolor="#666666"
     borderopacity="1.0"
     inkscape:pageopacity="0.0"
     inkscape:pageshadow="2"
     inkscape:zoom="2"
     inkscape:cx="68.75"
     inkscape:cy="163"
     inkscape:document-units="mm"
     inkscape:current-layer="layer1"
     inkscape:document-rotation="0"
     showgrid="false"
     inkscape:window-width="1920"
     inkscape:window-height="1027"
     inkscape:window-x="-8"
     inkscape:window-y="-8"
     inkscape:window-maximized="1"
     showguides="false"
     units="px"
     inkscape:showpageshadow="2"
     inkscape:pagecheckerboard="0"
     inkscape:deskcolor="#d1d1d1" />
  <metadata
     id="metadata5">
    <rdf:RDF>
      <cc:Work
         rdf:about="">
        <dc:format>image/svg+xml</dc:format>
        <dc:type
           rdf:resource="http://purl.org/dc/dcmitype/StillImage" />
      </cc:Work>
    </rdf:RDF>
  </metadata>
  <g
     inkscape:label="Layer 1"
     inkscape:groupmode="layer"
     id="layer1">
    <g
       aria-label="Request a"
       id="text306"
       style="font-size:6.35px;line-height:1.25;font-family:'Yuzu Pop A [M] Bold';-inkscape-font-specification:'Yuzu Pop A [M] Bold, Normal';font-variant-ligatures:none;stroke-width:0.165"
       transform="matrix(1.8841443,0,0,1.8841443,0.29736075,0.12055783)">
      <path
         d="m 14.121784,5.1862467 h -0.0124 q -0.223242,-0.031006 -0.235644,-0.2604492 0.04961,-1.5254883 0.0186,-3.0571777 -0.0186,-0.7007324 -0.0186,-1.40146485 0.0186,-0.22944335 0.248047,-0.24804687 0.0124,0 0.03101,0.006201 0.725538,-0.29145507 1.438672,0.0682129 0.768946,0.4836914 0.84336,1.41386712 0.05581,0.9549805 -0.731739,1.4758789 0.595313,0.7193359 0.868164,1.6309082 0.05581,0.2232422 -0.155029,0.3162597 -0.03721,0.012402 -0.08061,0.012402 -0.167432,-0.0062 -0.229443,-0.1612305 -0.266651,-0.8805664 -0.849561,-1.5688965 -0.297656,0.10542 -0.620117,0.1178223 -0.124024,0 -0.241846,-0.018604 0,0.7193359 -0.0248,1.4386719 -0.03101,0.217041 -0.248047,0.2356445 z m 0.260449,-3.3238281 q 0.0124,0.5643066 0.0186,1.1224121 0.496094,0.1302246 0.954981,-0.1674316 0.620117,-0.3472657 0.589111,-1.0541992 -0.04341,-0.6697266 -0.589111,-1.04179691 -0.483692,-0.24184569 -0.985986,-0.0558105 0,0.60151361 0.0124,1.19682611 z"
         style="fill:#bb9df6;stroke:#fae2f4"
         id="path1834" />
      <path
         d="m 18.406793,5.1800455 q -0.675927,-0.012402 -1.110009,-0.5333008 -0.551905,-0.9735839 0.04961,-1.9657714 0.390674,-0.6883301 1.184424,-0.6387207 0.601513,0.055811 0.818554,0.613916 0.130225,0.3782715 -0.08682,0.7069336 -0.285254,0.254248 -0.657324,0.2480468 -0.365869,-0.0062 -0.719336,-0.049609 -0.161231,-0.018603 -0.328662,-0.031006 -0.111621,0.4402832 0.136426,0.8185547 0.359668,0.4154785 0.905371,0.3162597 0.47749,-0.086816 0.613916,-0.5519042 0.07441,-0.2108399 0.297656,-0.1736329 0.217041,0.074414 0.179834,0.2976563 -0.229443,0.7441406 -0.992188,0.9115722 -0.142627,0.031006 -0.291455,0.031006 z m -0.694531,-2.1332031 0.223242,0.024805 q 0.483692,0.093018 0.94878,-0.024805 0.03721,-0.1302246 -0.0124,-0.2604492 -0.117822,-0.2356445 -0.390674,-0.254248 -0.465087,-0.031006 -0.700732,0.3720703 -0.03721,0.068213 -0.06821,0.1426269 z"
         style="fill:#bb9df6;stroke:#fae2f4"
         id="path1836" />
      <path
         d="m 21.798834,5.0374186 q -0.117822,0 -0.235644,-0.024805 -0.576709,-0.1240235 -0.992188,-0.5581055 -0.415478,-0.434082 -0.353467,-1.0541992 0.248047,-0.9363769 1.15962,-1.2898437 0.564306,-0.2294434 1.072802,-0.0062 0.08682,-0.1922363 0.297657,-0.1550293 0.210839,0.080615 0.173632,0.3038574 -0.210839,0.9859863 -0.04341,1.9905762 0.08061,0.6077148 0.06201,1.2216308 -0.02481,0.217041 -0.241846,0.2356445 h -0.0124 q -0.223242,-0.031006 -0.235645,-0.2604492 0.0062,-0.3658691 -0.0186,-0.7317382 -0.192237,0.3348632 -0.63252,0.3286621 z M 21.544586,2.5693522 q -0.651123,0.2480469 -0.843359,0.9115722 -0.0186,0.4154785 0.279053,0.6945313 0.297656,0.2728515 0.675927,0.3596679 0.248047,0.074414 0.372071,-0.1240234 0.06821,-0.217041 0.291455,-0.1860351 l 0.06201,0.024805 Q 22.25152,3.4251139 22.35694,2.6127604 21.972467,2.3895182 21.544586,2.5693522 Z"
         style="fill:#bb9df6;stroke:#fae2f4"
         id="path1838" />
      <path
         d="M 24.762994,5.1056314 Q 23.963043,5.0932291 23.590973,4.3986979 23.392535,3.7785807 23.411139,3.1150553 q 0.0186,-0.6635254 0.378271,-1.2154297 0.179834,-0.1426269 0.347266,0.0062 0.142627,0.179834 -0.0062,0.3472656 -0.390674,0.9487793 -0.08682,1.947168 0.266651,0.4526855 0.799951,0.4154785 0.551905,-0.049609 0.725538,-0.5705078 0.0062,-0.024805 0.0186,-0.043408 0.02481,-0.973584 -0.04341,-1.9533691 -0.0186,-0.2232422 0.192236,-0.2852539 0.229443,-0.024805 0.291455,0.1984375 0.08682,1.1038085 0.04341,2.2138183 0,0.4402832 -0.0062,0.8743652 -0.0186,0.2294434 -0.248047,0.2480469 -0.223242,-0.024805 -0.241845,-0.2480469 V 4.8637857 q -0.279053,0.2046387 -0.694532,0.2418457 z"
         style="fill:#bb9df6;stroke:#fae2f4"
         id="path1840" />
      <path
         d="m 27.931793,5.1800455 q -0.675928,-0.012402 -1.11001,-0.5333008 -0.551904,-0.9735839 0.04961,-1.9657714 0.390674,-0.6883301 1.184424,-0.6387207 0.601513,0.055811 0.818554,0.613916 0.130225,0.3782715 -0.08682,0.7069336 -0.285254,0.254248 -0.657324,0.2480468 -0.365869,-0.0062 -0.719336,-0.049609 -0.161231,-0.018603 -0.328662,-0.031006 -0.111621,0.4402832 0.136425,0.8185547 0.359668,0.4154785 0.905372,0.3162597 0.47749,-0.086816 0.613916,-0.5519042 0.07441,-0.2108399 0.297656,-0.1736329 0.217041,0.074414 0.179834,0.2976563 -0.229444,0.7441406 -0.992188,0.9115722 -0.142627,0.031006 -0.291455,0.031006 z m -0.694531,-2.1332031 0.223242,0.024805 q 0.483692,0.093018 0.948779,-0.024805 0.03721,-0.1302246 -0.0124,-0.2604492 -0.117822,-0.2356445 -0.390674,-0.254248 -0.465088,-0.031006 -0.700732,0.3720703 -0.03721,0.068213 -0.06821,0.1426269 z"
         style="fill:#bb9df6;stroke:#fae2f4"
         id="path1842" />
      <path
         d="m 31.001373,5.1676432 q -0.316259,0.0062 -0.607714,-0.10542 -0.725537,-0.3224609 -0.682129,-1.1162109 0.03721,-0.2232422 0.260449,-0.2294433 0.223242,0.031006 0.229443,0.2604492 -0.03721,0.4526855 0.378272,0.6263183 0.725537,0.2232422 1.308447,-0.254248 0.186035,-0.2418457 0,-0.5022949 Q 31.522272,3.5553385 31.050983,3.4685221 30.703717,3.3879069 30.356452,3.2390787 30.009186,3.0840494 29.909967,2.6995768 29.860358,2.0546549 30.468073,1.8004069 31.35484,1.4469401 32.012164,2.129069 32.136188,2.3151041 31.974957,2.4763346 31.782721,2.5941569 31.627692,2.4329264 31.212213,2.0236491 30.66651,2.2468913 q -0.260449,0.093017 -0.272851,0.3658691 0.316259,0.3162597 0.787548,0.3844726 0.675928,0.099219 1.122413,0.5891114 0.353466,0.5581054 -0.03721,1.0790038 -0.5271,0.5084961 -1.26504,0.502295 z"
         style="fill:#bb9df6;stroke:#fae2f4"
         id="path1844" />
      <path
         d="m 34.182574,2.4453288 q -0.03101,0.2046386 -0.05581,0.4154785 -0.08682,0.6635253 0.05581,1.3208495 0.155029,0.3472657 0.520898,0.4464844 0.08682,0.0062 0.117823,-0.080615 0.117822,-0.1984375 0.328662,-0.1116211 0.198437,0.1178223 0.111621,0.3286621 -0.167432,0.3410644 -0.545703,0.3534668 h -0.04961 q -0.682129,-0.1302246 -0.95498,-0.7813477 -0.167432,-0.7131347 -0.08682,-1.444873 0.03101,-0.2604492 0.06821,-0.5208984 -0.10542,-0.024805 -0.21084,-0.068213 -0.204638,-0.093018 -0.148828,-0.3162598 0.09922,-0.2046386 0.31626,-0.1426269 0.06201,0.024805 0.124024,0.037207 0.03721,-0.2108398 0.08062,-0.4278808 0.0124,-0.055811 0.0248,-0.10542 0.06201,-0.217041 0.285254,-0.1922363 0.217041,0.062012 0.198438,0.2852539 -0.0124,0.055811 -0.02481,0.1054199 -0.04341,0.2046387 -0.07441,0.4092774 0.09922,0 0.204639,-0.0062 h 0.26665 q 0.229444,0.018603 0.248047,0.2480469 -0.02481,0.2232422 -0.248047,0.2418457 h -0.03101 q -0.117822,0 -0.229443,0.0062 z"
         style="fill:#bb9df6;stroke:#fae2f4"
         id="path1846" />
      <path
         d="m 41.741803,5.0932291 q -0.03101,0 -0.05581,-0.0062 -0.272851,-0.086816 -0.434082,-0.254248 -0.0186,0.018603 -0.03721,0.031006 -0.396875,0.2914551 -0.886767,0.2914551 -0.272852,0 -0.5271,-0.1116211 -0.520898,-0.2728515 -0.5271,-0.868164 -0.03101,-0.6697266 0.465088,-1.1038086 0.626319,-0.4154785 1.345655,-0.2914551 0.0062,-0.1674316 -0.0062,-0.3348632 -0.09922,-0.5519043 -0.651123,-0.4960938 -0.347265,0.037207 -0.489892,0.3348633 0.0062,0.2294433 -0.217041,0.2728515 -0.223242,0 -0.266651,-0.217041 0.10542,-0.7689453 0.905371,-0.8743652 0.992188,-0.093018 1.203028,0.8929687 0.04341,0.4526856 -0.03101,0.9053711 -0.03101,0.3472656 -0.05581,0.7441406 -0.0248,0.396875 0.31626,0.6015137 0.217041,0.068213 0.186035,0.2914551 -0.04961,0.179834 -0.235644,0.1922363 z m -1.69292,-1.6433105 q -0.310059,0.2914551 -0.279053,0.7255371 -0.0124,0.2914551 0.241846,0.4216797 0.47749,0.1674316 0.89917,-0.1116211 0.09302,-0.068213 0.08682,-0.1736328 -0.0062,-0.068213 0.0062,-0.1178223 -0.04341,-0.4836914 0.02481,-0.9239746 -0.514697,-0.093018 -0.979785,0.179834 z"
         style="fill:#bb9df6;stroke:#fae2f4"
         id="path1848" />
    </g>
    <g
       aria-label="Commission"
       id="text1038"
       style="font-size:11.2889px;line-height:1.25;font-family:'Yuzu Pop A [M] Bold';-inkscape-font-specification:'Yuzu Pop A [M] Bold, Normal';font-variant-ligatures:none;stroke-width:0.264583"
       transform="matrix(1.8841443,0,0,1.8841443,0.3016479,0.12055783)">
      <path
         d="M 2.8709903,13.791119 Q 2.3197745,13.780094 1.8457289,13.482438 0.80944308,12.688687 0.46768926,11.442939 0.13695976,10.197191 0.26925156,8.9404193 0.34642178,7.8490119 0.74329718,6.7796532 1.1401726,5.6992701 2.198507,5.2142002 3.6867898,5.0378111 4.5025892,6.3827778 4.7120512,6.7245316 4.4033704,6.9891152 4.0616165,7.2096015 3.7970329,6.9009207 3.3229873,6.0961455 2.441042,6.0630726 1.7024127,6.5150696 1.4598778,7.3529176 1.2173428,8.1907657 1.1401726,9.0175895 q -0.099219,1.0142375 0.1322918,2.0394985 0.2315106,1.014237 1.0473101,1.686721 0.4630213,0.30868 0.9480912,0.06614 0.9921885,-1.036285 0.7827265,-2.513544 0.022049,-0.3968752 0.4189241,-0.4519968 0.3968754,0.011024 0.4630213,0.4078998 0.066146,0.926043 -0.1874134,1.841061 -0.242535,0.915018 -1.0362858,1.466234 -0.3858511,0.231511 -0.8378481,0.231511 z"
         style="fill:#bb9df6;stroke:#fae2f4"
         id="path1813" />
      <path
         d="M 8.0634435,13.747021 Q 7.2917413,13.735997 6.7184769,13.217854 5.3735102,11.542158 6.1341881,9.5136837 6.4649176,8.653787 7.3248143,8.3451062 7.3358386,8.3340818 7.3578872,8.3340818 8.3170028,7.9151578 9.1879238,8.5104709 10.665182,9.6349512 10.643134,11.487036 10.53289,12.820979 9.3312399,13.416292 8.7359268,13.735997 8.0634435,13.747021 Z M 7.7988599,9.1609056 q -0.6394104,0.07717 -0.8598967,0.694532 -0.5512158,1.4772584 0.3858511,2.7230064 0.7717022,0.56224 1.6205746,0.05512 Q 9.717091,12.269763 9.7722126,11.420891 9.7611883,10.075924 8.7028539,9.2380758 8.4603189,9.0727111 8.1736867,9.0286138 8.0413949,9.1719299 7.8429572,9.1609056 Z"
         style="fill:#bb9df6;stroke:#fae2f4"
         id="path1815" />
      <path
         d="m 11.932979,13.802143 q -0.396876,-0.0441 -0.429949,-0.440973 0.01103,-0.992188 0.05512,-1.984377 0.08819,-1.4221366 0.05512,-2.8442735 0,-0.3968754 0.396875,-0.4740456 0.341754,0.011024 0.440973,0.2976566 0.187413,-0.1212675 0.418924,-0.209462 0.628386,-0.1763891 1.058334,0.3086808 0.03307,0.066146 0.07717,0.1433161 0.319705,-0.385851 0.881946,-0.5732644 0.926042,0.033073 1.190626,0.9811642 0.286632,1.0252618 0.253559,2.0946198 0,0.209462 0.01102,0.418924 0,0.89297 -0.0441,1.78594 -0.06615,0.374826 -0.440973,0.407899 h -0.02205 q -0.396876,-0.06615 -0.4079,-0.463021 0.0441,-0.848872 0.0441,-1.697745 -0.01102,-0.209462 -0.01102,-0.429948 0.02205,-0.926043 -0.198438,-1.8190123 -0.06615,-0.2645836 -0.286632,-0.4078997 -0.507118,0.3527781 -0.551216,1.0032128 -0.01102,0.022049 -0.01102,0.033073 0.03307,0.2535592 0.0441,0.4960942 0.02205,1.058334 0,2.083596 -0.01102,0.385851 0,0.760678 -0.03307,0.407899 -0.440972,0.440972 -0.396876,-0.03307 -0.440973,-0.429948 0.01102,-0.385851 0.01102,-0.782726 0.01103,-0.881946 0,-1.763891 0,-0.8929698 -0.330729,-1.7197935 -0.05512,-0.066146 -0.143316,-0.033073 -0.429949,0.1984377 -0.595314,0.6394104 l -0.02205,0.066146 q 0,0.8598971 -0.05512,1.7197931 -0.05512,0.97014 -0.06615,1.951304 -0.03307,0.4079 -0.440972,0.440973 z"
         style="fill:#bb9df6;stroke:#fae2f4"
         id="path1817" />
      <path
         d="m 17.577428,13.802143 q -0.396875,-0.0441 -0.429948,-0.440973 0.01102,-0.992188 0.05512,-1.984377 0.08819,-1.4221366 0.05512,-2.8442735 0,-0.3968754 0.396875,-0.4740456 0.341754,0.011024 0.440973,0.2976566 0.187413,-0.1212675 0.418924,-0.209462 0.628386,-0.1763891 1.058334,0.3086808 0.03307,0.066146 0.07717,0.1433161 0.319706,-0.385851 0.881946,-0.5732644 0.926042,0.033073 1.190626,0.9811642 0.286632,1.0252618 0.253559,2.0946198 0,0.209462 0.01103,0.418924 0,0.89297 -0.0441,1.78594 -0.06615,0.374826 -0.440972,0.407899 h -0.02205 q -0.396875,-0.06615 -0.4079,-0.463021 0.0441,-0.848872 0.0441,-1.697745 -0.01103,-0.209462 -0.01103,-0.429948 0.02205,-0.926043 -0.198437,-1.8190123 -0.06615,-0.2645836 -0.286633,-0.4078997 -0.507118,0.3527781 -0.551215,1.0032128 -0.01103,0.022049 -0.01103,0.033073 0.03307,0.2535592 0.0441,0.4960942 0.02205,1.058334 0,2.083596 -0.01102,0.385851 0,0.760678 -0.03307,0.407899 -0.440972,0.440972 -0.396876,-0.03307 -0.440973,-0.429948 0.01102,-0.385851 0.01102,-0.782726 0.01103,-0.881946 0,-1.763891 0,-0.8929698 -0.330729,-1.7197935 -0.05512,-0.066146 -0.143316,-0.033073 -0.429949,0.1984377 -0.595313,0.6394104 l -0.02205,0.066146 q 0,0.8598971 -0.05512,1.7197931 -0.05512,0.97014 -0.06615,1.951304 -0.03307,0.4079 -0.440973,0.440973 z"
         style="fill:#bb9df6;stroke:#fae2f4"
         id="path1819" />
      <path
         d="m 25.107037,6.6914586 q -0.198437,0 -0.341754,-0.1433161 -0.275607,-0.4078997 0.05512,-0.7937508 0.275608,-0.2866322 0.606337,-0.066146 0.165365,0.1433161 0.165365,0.3527782 0.121268,0.3086808 -0.143316,0.5181428 -0.15434,0.1212675 -0.341754,0.1322918 z m -0.02205,6.9563444 q -0.396876,-0.0441 -0.429949,-0.440973 -0.01102,-0.551216 -0.0441,-1.091408 -0.187413,-1.918231 0.132292,-3.8033888 0.143316,-0.3748268 0.540191,-0.2976565 0.374827,0.1433161 0.297657,0.5401915 -0.264584,1.7528668 -0.09922,3.5167568 0.03307,0.56224 0.0441,1.135505 -0.03307,0.4079 -0.440971,0.440973 z"
         style="fill:#bb9df6;stroke:#fae2f4"
         id="path1821" />
      <path
         d="m 30.685342,13.76907 q -0.56224,0.01102 -1.080383,-0.187413 -1.289845,-0.573265 -1.212674,-1.984377 0.06615,-0.396876 0.463021,-0.4079 0.396875,0.05512 0.4079,0.463021 -0.06615,0.804775 0.672483,1.113456 1.289845,0.396876 2.326131,-0.451997 0.330729,-0.429948 0,-0.892969 -0.650435,-0.518143 -1.488283,-0.672484 -0.617362,-0.143316 -1.234723,-0.4079 Q 28.921452,10.0649 28.745063,9.3813919 28.656868,8.234863 29.737251,7.782866 q 1.576478,-0.6283861 2.745055,0.5842888 0.220486,0.3307295 -0.06615,0.6173617 -0.341754,0.209462 -0.617362,-0.07717 -0.738629,-0.7276049 -1.708769,-0.3307295 -0.463021,0.1653648 -0.48507,0.6504347 0.562241,0.5622402 1.400089,0.6835076 1.20165,0.1763887 1.995401,1.0473097 0.628386,0.992189 -0.06615,1.918231 -0.937067,0.903994 -2.248961,0.89297 z"
         style="fill:#bb9df6;stroke:#fae2f4"
         id="path1823" />
      <path
         d="m 36.32979,13.76907 q -0.56224,0.01102 -1.080383,-0.187413 -1.289845,-0.573265 -1.212675,-1.984377 0.06615,-0.396876 0.463021,-0.4079 0.396876,0.05512 0.4079,0.463021 -0.06615,0.804775 0.672483,1.113456 1.289845,0.396876 2.326131,-0.451997 0.33073,-0.429948 0,-0.892969 -0.650435,-0.518143 -1.488283,-0.672484 -0.617361,-0.143316 -1.234723,-0.4079 Q 34.565899,10.0649 34.38951,9.3813919 34.301316,8.234863 35.381699,7.782866 q 1.576477,-0.6283861 2.745054,0.5842888 0.220487,0.3307295 -0.06614,0.6173617 -0.341754,0.209462 -0.617362,-0.07717 -0.738629,-0.7276049 -1.708769,-0.3307295 -0.463022,0.1653648 -0.48507,0.6504347 0.56224,0.5622402 1.400088,0.6835076 1.201651,0.1763887 1.995401,1.0473097 0.628386,0.992189 -0.06615,1.918231 -0.937066,0.903994 -2.24896,0.89297 z"
         style="fill:#bb9df6;stroke:#fae2f4"
         id="path1825" />
      <path
         d="m 42.040387,6.6914586 q -0.198438,0 -0.341754,-0.1433161 -0.275608,-0.4078997 0.05512,-0.7937508 0.275608,-0.2866322 0.606337,-0.066146 0.165365,0.1433161 0.165365,0.3527782 0.121267,0.3086808 -0.143316,0.5181428 -0.154341,0.1212675 -0.341754,0.1322918 z m -0.02205,6.9563444 q -0.396875,-0.0441 -0.429948,-0.440973 -0.01102,-0.551216 -0.0441,-1.091408 -0.187414,-1.918231 0.132291,-3.8033888 0.143317,-0.3748268 0.540192,-0.2976565 0.374827,0.1433161 0.297656,0.5401915 -0.264583,1.7528668 -0.09922,3.5167568 0.03307,0.56224 0.0441,1.135505 -0.03307,0.4079 -0.440973,0.440973 z"
         style="fill:#bb9df6;stroke:#fae2f4"
         id="path1827" />
      <path
         d="m 47.574595,13.747021 q -0.771702,-0.01102 -1.344967,-0.529167 -1.344966,-1.675696 -0.584289,-3.7041703 0.33073,-0.8598967 1.190627,-1.1685775 0.01102,-0.011024 0.03307,-0.011024 0.959115,-0.418924 1.830036,0.1763891 1.477259,1.1244803 1.45521,2.9765647 -0.110243,1.333943 -1.311894,1.929256 -0.595313,0.319705 -1.267796,0.330729 z M 47.310011,9.1609056 q -0.63941,0.07717 -0.859896,0.694532 -0.551216,1.4772584 0.385851,2.7230064 0.771702,0.56224 1.620574,0.05512 0.771702,-0.363802 0.826824,-1.212674 -0.01102,-1.344967 -1.069359,-2.1828152 -0.242535,-0.1653647 -0.529167,-0.209462 -0.132292,0.1433161 -0.33073,0.1322918 z"
         style="fill:#bb9df6;stroke:#fae2f4"
         id="path1829" />
      <path
         d="m 51.598471,13.747021 q -0.385851,-0.03307 -0.440972,-0.418924 -0.03307,-1.168577 -0.01103,-2.348179 0.02205,-1.4000884 -0.05512,-2.7891523 -0.132292,-0.2756079 0.05512,-0.5071185 0.286633,-0.275608 0.617362,-0.044097 0.176389,0.3197052 0.231511,0.6724833 0.661459,-0.4850699 1.565453,-0.5512158 1.025261,-0.044097 1.620574,0.7827265 0.341754,0.7606778 0.352778,1.5985258 0.01103,0.837848 0.01103,1.653647 -0.02205,0.661459 0.03307,1.311894 0.132292,0.319705 -0.121268,0.551216 -0.121267,0.08819 -0.264583,0.08819 -0.209462,0 -0.352778,-0.165364 -0.275608,-0.870921 -0.165365,-1.796964 0.08819,-1.400088 -0.209462,-2.7450546 -0.319705,-0.4409727 -0.870921,-0.4078997 -0.992189,0.07717 -1.576478,0.8819453 0,0.1653648 0.01102,0.3307295 0.01102,0.5622395 -0.01102,1.1355045 -0.01102,1.157553 0.01102,2.315106 -0.02205,0.396876 -0.418924,0.451997 z"
         style="fill:#bb9df6;stroke:#fae2f4"
         id="path1831" />
    </g>
  </g>
  <script
     id="mesh_polyfill"
     type="text/javascript">
!function(){const t=&quot;http://www.w3.org/2000/svg&quot;,e=&quot;http://www.w3.org/1999/xlink&quot;,s=&quot;http://www.w3.org/1999/xhtml&quot;,r=2;if(document.createElementNS(t,&quot;meshgradient&quot;).x)return;const n=(t,e,s,r)=&gt;{let n=new x(.5*(e.x+s.x),.5*(e.y+s.y)),o=new x(.5*(t.x+e.x),.5*(t.y+e.y)),i=new x(.5*(s.x+r.x),.5*(s.y+r.y)),a=new x(.5*(n.x+o.x),.5*(n.y+o.y)),h=new x(.5*(n.x+i.x),.5*(n.y+i.y)),l=new x(.5*(a.x+h.x),.5*(a.y+h.y));return[[t,o,a,l],[l,h,i,r]]},o=t=&gt;{let e=t[0].distSquared(t[1]),s=t[2].distSquared(t[3]),r=.25*t[0].distSquared(t[2]),n=.25*t[1].distSquared(t[3]),o=e&gt;s?e:s,i=r&gt;n?r:n;return 18*(o&gt;i?o:i)},i=(t,e)=&gt;Math.sqrt(t.distSquared(e)),a=(t,e)=&gt;t.scale(2/3).add(e.scale(1/3)),h=t=&gt;{let e,s,r,n,o,i,a,h=new g;return t.match(/(\w+\(\s*[^)]+\))+/g).forEach(t=&gt;{let l=t.match(/[\w.-]+/g),d=l.shift();switch(d){case&quot;translate&quot;:2===l.length?e=new g(1,0,0,1,l[0],l[1]):(console.error(&quot;mesh.js: translate does not have 2 arguments!&quot;),e=new g(1,0,0,1,0,0)),h=h.append(e);break;case&quot;scale&quot;:1===l.length?s=new g(l[0],0,0,l[0],0,0):2===l.length?s=new g(l[0],0,0,l[1],0,0):(console.error(&quot;mesh.js: scale does not have 1 or 2 arguments!&quot;),s=new g(1,0,0,1,0,0)),h=h.append(s);break;case&quot;rotate&quot;:if(3===l.length&amp;&amp;(e=new g(1,0,0,1,l[1],l[2]),h=h.append(e)),l[0]){r=l[0]*Math.PI/180;let t=Math.cos(r),e=Math.sin(r);Math.abs(t)&lt;1e-16&amp;&amp;(t=0),Math.abs(e)&lt;1e-16&amp;&amp;(e=0),a=new g(t,e,-e,t,0,0),h=h.append(a)}else console.error(&quot;math.js: No argument to rotate transform!&quot;);3===l.length&amp;&amp;(e=new g(1,0,0,1,-l[1],-l[2]),h=h.append(e));break;case&quot;skewX&quot;:l[0]?(r=l[0]*Math.PI/180,n=Math.tan(r),o=new g(1,0,n,1,0,0),h=h.append(o)):console.error(&quot;math.js: No argument to skewX transform!&quot;);break;case&quot;skewY&quot;:l[0]?(r=l[0]*Math.PI/180,n=Math.tan(r),i=new g(1,n,0,1,0,0),h=h.append(i)):console.error(&quot;math.js: No argument to skewY transform!&quot;);break;case&quot;matrix&quot;:6===l.length?h=h.append(new g(...l)):console.error(&quot;math.js: Incorrect number of arguments for matrix!&quot;);break;default:console.error(&quot;mesh.js: Unhandled transform type: &quot;+d)}}),h},l=t=&gt;{let e=[],s=t.split(/[ ,]+/);for(let t=0,r=s.length-1;t&lt;r;t+=2)e.push(new x(parseFloat(s[t]),parseFloat(s[t+1])));return e},d=(t,e)=&gt;{for(let s in e)t.setAttribute(s,e[s])},c=(t,e,s,r,n)=&gt;{let o,i,a=[0,0,0,0];for(let h=0;h&lt;3;++h)e[h]&lt;t[h]&amp;&amp;e[h]&lt;s[h]||t[h]&lt;e[h]&amp;&amp;s[h]&lt;e[h]?a[h]=0:(a[h]=.5*((e[h]-t[h])/r+(s[h]-e[h])/n),o=Math.abs(3*(e[h]-t[h])/r),i=Math.abs(3*(s[h]-e[h])/n),a[h]&gt;o?a[h]=o:a[h]&gt;i&amp;&amp;(a[h]=i));return a},u=[[1,0,0,0,0,0,0,0,0,0,0,0,0,0,0,0],[0,0,0,0,1,0,0,0,0,0,0,0,0,0,0,0],[-3,3,0,0,-2,-1,0,0,0,0,0,0,0,0,0,0],[2,-2,0,0,1,1,0,0,0,0,0,0,0,0,0,0],[0,0,0,0,0,0,0,0,1,0,0,0,0,0,0,0],[0,0,0,0,0,0,0,0,0,0,0,0,1,0,0,0],[0,0,0,0,0,0,0,0,-3,3,0,0,-2,-1,0,0],[0,0,0,0,0,0,0,0,2,-2,0,0,1,1,0,0],[-3,0,3,0,0,0,0,0,-2,0,-1,0,0,0,0,0],[0,0,0,0,-3,0,3,0,0,0,0,0,-2,0,-1,0],[9,-9,-9,9,6,3,-6,-3,6,-6,3,-3,4,2,2,1],[-6,6,6,-6,-3,-3,3,3,-4,4,-2,2,-2,-2,-1,-1],[2,0,-2,0,0,0,0,0,1,0,1,0,0,0,0,0],[0,0,0,0,2,0,-2,0,0,0,0,0,1,0,1,0],[-6,6,6,-6,-4,-2,4,2,-3,3,-3,3,-2,-1,-2,-1],[4,-4,-4,4,2,2,-2,-2,2,-2,2,-2,1,1,1,1]],f=t=&gt;{let e=[];for(let s=0;s&lt;16;++s){e[s]=0;for(let r=0;r&lt;16;++r)e[s]+=u[s][r]*t[r]}return e},p=(t,e,s)=&gt;{const r=e*e,n=s*s,o=e*e*e,i=s*s*s;return t[0]+t[1]*e+t[2]*r+t[3]*o+t[4]*s+t[5]*s*e+t[6]*s*r+t[7]*s*o+t[8]*n+t[9]*n*e+t[10]*n*r+t[11]*n*o+t[12]*i+t[13]*i*e+t[14]*i*r+t[15]*i*o},y=t=&gt;{let e=[],s=[],r=[];for(let s=0;s&lt;4;++s)e[s]=[],e[s][0]=n(t[0][s],t[1][s],t[2][s],t[3][s]),e[s][1]=[],e[s][1].push(...n(...e[s][0][0])),e[s][1].push(...n(...e[s][0][1])),e[s][2]=[],e[s][2].push(...n(...e[s][1][0])),e[s][2].push(...n(...e[s][1][1])),e[s][2].push(...n(...e[s][1][2])),e[s][2].push(...n(...e[s][1][3]));for(let t=0;t&lt;8;++t){s[t]=[];for(let r=0;r&lt;4;++r)s[t][r]=[],s[t][r][0]=n(e[0][2][t][r],e[1][2][t][r],e[2][2][t][r],e[3][2][t][r]),s[t][r][1]=[],s[t][r][1].push(...n(...s[t][r][0][0])),s[t][r][1].push(...n(...s[t][r][0][1])),s[t][r][2]=[],s[t][r][2].push(...n(...s[t][r][1][0])),s[t][r][2].push(...n(...s[t][r][1][1])),s[t][r][2].push(...n(...s[t][r][1][2])),s[t][r][2].push(...n(...s[t][r][1][3]))}for(let t=0;t&lt;8;++t){r[t]=[];for(let e=0;e&lt;8;++e)r[t][e]=[],r[t][e][0]=s[t][0][2][e],r[t][e][1]=s[t][1][2][e],r[t][e][2]=s[t][2][2][e],r[t][e][3]=s[t][3][2][e]}return r};class x{constructor(t,e){this.x=t||0,this.y=e||0}toString(){return`(x=${this.x}, y=${this.y})`}clone(){return new x(this.x,this.y)}add(t){return new x(this.x+t.x,this.y+t.y)}scale(t){return void 0===t.x?new x(this.x*t,this.y*t):new x(this.x*t.x,this.y*t.y)}distSquared(t){let e=this.x-t.x,s=this.y-t.y;return e*e+s*s}transform(t){let e=this.x*t.a+this.y*t.c+t.e,s=this.x*t.b+this.y*t.d+t.f;return new x(e,s)}}class g{constructor(t,e,s,r,n,o){void 0===t?(this.a=1,this.b=0,this.c=0,this.d=1,this.e=0,this.f=0):(this.a=t,this.b=e,this.c=s,this.d=r,this.e=n,this.f=o)}toString(){return`affine: ${this.a} ${this.c} ${this.e} \n       ${this.b} ${this.d} ${this.f}`}append(t){t instanceof g||console.error(&quot;mesh.js: argument to Affine.append is not affine!&quot;);let e=this.a*t.a+this.c*t.b,s=this.b*t.a+this.d*t.b,r=this.a*t.c+this.c*t.d,n=this.b*t.c+this.d*t.d,o=this.a*t.e+this.c*t.f+this.e,i=this.b*t.e+this.d*t.f+this.f;return new g(e,s,r,n,o,i)}}class w{constructor(t,e){this.nodes=t,this.colors=e}paintCurve(t,e){if(o(this.nodes)&gt;r){const s=n(...this.nodes);let r=[[],[]],o=[[],[]];for(let t=0;t&lt;4;++t)r[0][t]=this.colors[0][t],r[1][t]=(this.colors[0][t]+this.colors[1][t])/2,o[0][t]=r[1][t],o[1][t]=this.colors[1][t];let i=new w(s[0],r),a=new w(s[1],o);i.paintCurve(t,e),a.paintCurve(t,e)}else{let s=Math.round(this.nodes[0].x);if(s&gt;=0&amp;&amp;s&lt;e){let r=4*(~~this.nodes[0].y*e+s);t[r]=Math.round(this.colors[0][0]),t[r+1]=Math.round(this.colors[0][1]),t[r+2]=Math.round(this.colors[0][2]),t[r+3]=Math.round(this.colors[0][3])}}}}class m{constructor(t,e){this.nodes=t,this.colors=e}split(){let t=[[],[],[],[]],e=[[],[],[],[]],s=[[[],[]],[[],[]]],r=[[[],[]],[[],[]]];for(let s=0;s&lt;4;++s){const r=n(this.nodes[0][s],this.nodes[1][s],this.nodes[2][s],this.nodes[3][s]);t[0][s]=r[0][0],t[1][s]=r[0][1],t[2][s]=r[0][2],t[3][s]=r[0][3],e[0][s]=r[1][0],e[1][s]=r[1][1],e[2][s]=r[1][2],e[3][s]=r[1][3]}for(let t=0;t&lt;4;++t)s[0][0][t]=this.colors[0][0][t],s[0][1][t]=this.colors[0][1][t],s[1][0][t]=(this.colors[0][0][t]+this.colors[1][0][t])/2,s[1][1][t]=(this.colors[0][1][t]+this.colors[1][1][t])/2,r[0][0][t]=s[1][0][t],r[0][1][t]=s[1][1][t],r[1][0][t]=this.colors[1][0][t],r[1][1][t]=this.colors[1][1][t];return[new m(t,s),new m(e,r)]}paint(t,e){let s,n=!1;for(let t=0;t&lt;4;++t)if((s=o([this.nodes[0][t],this.nodes[1][t],this.nodes[2][t],this.nodes[3][t]]))&gt;r){n=!0;break}if(n){let s=this.split();s[0].paint(t,e),s[1].paint(t,e)}else{new w([...this.nodes[0]],[...this.colors[0]]).paintCurve(t,e)}}}class b{constructor(t){this.readMesh(t),this.type=t.getAttribute(&quot;type&quot;)||&quot;bilinear&quot;}readMesh(t){let e=[[]],s=[[]],r=Number(t.getAttribute(&quot;x&quot;)),n=Number(t.getAttribute(&quot;y&quot;));e[0][0]=new x(r,n);let o=t.children;for(let t=0,r=o.length;t&lt;r;++t){e[3*t+1]=[],e[3*t+2]=[],e[3*t+3]=[],s[t+1]=[];let r=o[t].children;for(let n=0,o=r.length;n&lt;o;++n){let o=r[n].children;for(let r=0,i=o.length;r&lt;i;++r){let i=r;0!==t&amp;&amp;++i;let h,d=o[r].getAttribute(&quot;path&quot;),c=&quot;l&quot;;null!=d&amp;&amp;(c=(h=d.match(/\s*([lLcC])\s*(.*)/))[1]);let u=l(h[2]);switch(c){case&quot;l&quot;:0===i?(e[3*t][3*n+3]=u[0].add(e[3*t][3*n]),e[3*t][3*n+1]=a(e[3*t][3*n],e[3*t][3*n+3]),e[3*t][3*n+2]=a(e[3*t][3*n+3],e[3*t][3*n])):1===i?(e[3*t+3][3*n+3]=u[0].add(e[3*t][3*n+3]),e[3*t+1][3*n+3]=a(e[3*t][3*n+3],e[3*t+3][3*n+3]),e[3*t+2][3*n+3]=a(e[3*t+3][3*n+3],e[3*t][3*n+3])):2===i?(0===n&amp;&amp;(e[3*t+3][3*n+0]=u[0].add(e[3*t+3][3*n+3])),e[3*t+3][3*n+1]=a(e[3*t+3][3*n],e[3*t+3][3*n+3]),e[3*t+3][3*n+2]=a(e[3*t+3][3*n+3],e[3*t+3][3*n])):(e[3*t+1][3*n]=a(e[3*t][3*n],e[3*t+3][3*n]),e[3*t+2][3*n]=a(e[3*t+3][3*n],e[3*t][3*n]));break;case&quot;L&quot;:0===i?(e[3*t][3*n+3]=u[0],e[3*t][3*n+1]=a(e[3*t][3*n],e[3*t][3*n+3]),e[3*t][3*n+2]=a(e[3*t][3*n+3],e[3*t][3*n])):1===i?(e[3*t+3][3*n+3]=u[0],e[3*t+1][3*n+3]=a(e[3*t][3*n+3],e[3*t+3][3*n+3]),e[3*t+2][3*n+3]=a(e[3*t+3][3*n+3],e[3*t][3*n+3])):2===i?(0===n&amp;&amp;(e[3*t+3][3*n+0]=u[0]),e[3*t+3][3*n+1]=a(e[3*t+3][3*n],e[3*t+3][3*n+3]),e[3*t+3][3*n+2]=a(e[3*t+3][3*n+3],e[3*t+3][3*n])):(e[3*t+1][3*n]=a(e[3*t][3*n],e[3*t+3][3*n]),e[3*t+2][3*n]=a(e[3*t+3][3*n],e[3*t][3*n]));break;case&quot;c&quot;:0===i?(e[3*t][3*n+1]=u[0].add(e[3*t][3*n]),e[3*t][3*n+2]=u[1].add(e[3*t][3*n]),e[3*t][3*n+3]=u[2].add(e[3*t][3*n])):1===i?(e[3*t+1][3*n+3]=u[0].add(e[3*t][3*n+3]),e[3*t+2][3*n+3]=u[1].add(e[3*t][3*n+3]),e[3*t+3][3*n+3]=u[2].add(e[3*t][3*n+3])):2===i?(e[3*t+3][3*n+2]=u[0].add(e[3*t+3][3*n+3]),e[3*t+3][3*n+1]=u[1].add(e[3*t+3][3*n+3]),0===n&amp;&amp;(e[3*t+3][3*n+0]=u[2].add(e[3*t+3][3*n+3]))):(e[3*t+2][3*n]=u[0].add(e[3*t+3][3*n]),e[3*t+1][3*n]=u[1].add(e[3*t+3][3*n]));break;case&quot;C&quot;:0===i?(e[3*t][3*n+1]=u[0],e[3*t][3*n+2]=u[1],e[3*t][3*n+3]=u[2]):1===i?(e[3*t+1][3*n+3]=u[0],e[3*t+2][3*n+3]=u[1],e[3*t+3][3*n+3]=u[2]):2===i?(e[3*t+3][3*n+2]=u[0],e[3*t+3][3*n+1]=u[1],0===n&amp;&amp;(e[3*t+3][3*n+0]=u[2])):(e[3*t+2][3*n]=u[0],e[3*t+1][3*n]=u[1]);break;default:console.error(&quot;mesh.js: &quot;+c+&quot; invalid path type.&quot;)}if(0===t&amp;&amp;0===n||r&gt;0){let e=window.getComputedStyle(o[r]).stopColor.match(/^rgb\s*\(\s*(\d+)\s*,\s*(\d+)\s*,\s*(\d+)\s*\)$/i),a=window.getComputedStyle(o[r]).stopOpacity,h=255;a&amp;&amp;(h=Math.floor(255*a)),e&amp;&amp;(0===i?(s[t][n]=[],s[t][n][0]=Math.floor(e[1]),s[t][n][1]=Math.floor(e[2]),s[t][n][2]=Math.floor(e[3]),s[t][n][3]=h):1===i?(s[t][n+1]=[],s[t][n+1][0]=Math.floor(e[1]),s[t][n+1][1]=Math.floor(e[2]),s[t][n+1][2]=Math.floor(e[3]),s[t][n+1][3]=h):2===i?(s[t+1][n+1]=[],s[t+1][n+1][0]=Math.floor(e[1]),s[t+1][n+1][1]=Math.floor(e[2]),s[t+1][n+1][2]=Math.floor(e[3]),s[t+1][n+1][3]=h):3===i&amp;&amp;(s[t+1][n]=[],s[t+1][n][0]=Math.floor(e[1]),s[t+1][n][1]=Math.floor(e[2]),s[t+1][n][2]=Math.floor(e[3]),s[t+1][n][3]=h))}}e[3*t+1][3*n+1]=new x,e[3*t+1][3*n+2]=new x,e[3*t+2][3*n+1]=new x,e[3*t+2][3*n+2]=new x,e[3*t+1][3*n+1].x=(-4*e[3*t][3*n].x+6*(e[3*t][3*n+1].x+e[3*t+1][3*n].x)+-2*(e[3*t][3*n+3].x+e[3*t+3][3*n].x)+3*(e[3*t+3][3*n+1].x+e[3*t+1][3*n+3].x)+-1*e[3*t+3][3*n+3].x)/9,e[3*t+1][3*n+2].x=(-4*e[3*t][3*n+3].x+6*(e[3*t][3*n+2].x+e[3*t+1][3*n+3].x)+-2*(e[3*t][3*n].x+e[3*t+3][3*n+3].x)+3*(e[3*t+3][3*n+2].x+e[3*t+1][3*n].x)+-1*e[3*t+3][3*n].x)/9,e[3*t+2][3*n+1].x=(-4*e[3*t+3][3*n].x+6*(e[3*t+3][3*n+1].x+e[3*t+2][3*n].x)+-2*(e[3*t+3][3*n+3].x+e[3*t][3*n].x)+3*(e[3*t][3*n+1].x+e[3*t+2][3*n+3].x)+-1*e[3*t][3*n+3].x)/9,e[3*t+2][3*n+2].x=(-4*e[3*t+3][3*n+3].x+6*(e[3*t+3][3*n+2].x+e[3*t+2][3*n+3].x)+-2*(e[3*t+3][3*n].x+e[3*t][3*n+3].x)+3*(e[3*t][3*n+2].x+e[3*t+2][3*n].x)+-1*e[3*t][3*n].x)/9,e[3*t+1][3*n+1].y=(-4*e[3*t][3*n].y+6*(e[3*t][3*n+1].y+e[3*t+1][3*n].y)+-2*(e[3*t][3*n+3].y+e[3*t+3][3*n].y)+3*(e[3*t+3][3*n+1].y+e[3*t+1][3*n+3].y)+-1*e[3*t+3][3*n+3].y)/9,e[3*t+1][3*n+2].y=(-4*e[3*t][3*n+3].y+6*(e[3*t][3*n+2].y+e[3*t+1][3*n+3].y)+-2*(e[3*t][3*n].y+e[3*t+3][3*n+3].y)+3*(e[3*t+3][3*n+2].y+e[3*t+1][3*n].y)+-1*e[3*t+3][3*n].y)/9,e[3*t+2][3*n+1].y=(-4*e[3*t+3][3*n].y+6*(e[3*t+3][3*n+1].y+e[3*t+2][3*n].y)+-2*(e[3*t+3][3*n+3].y+e[3*t][3*n].y)+3*(e[3*t][3*n+1].y+e[3*t+2][3*n+3].y)+-1*e[3*t][3*n+3].y)/9,e[3*t+2][3*n+2].y=(-4*e[3*t+3][3*n+3].y+6*(e[3*t+3][3*n+2].y+e[3*t+2][3*n+3].y)+-2*(e[3*t+3][3*n].y+e[3*t][3*n+3].y)+3*(e[3*t][3*n+2].y+e[3*t+2][3*n].y)+-1*e[3*t][3*n].y)/9}}this.nodes=e,this.colors=s}paintMesh(t,e){let s=(this.nodes.length-1)/3,r=(this.nodes[0].length-1)/3;if(&quot;bilinear&quot;===this.type||s&lt;2||r&lt;2){let n;for(let o=0;o&lt;s;++o)for(let s=0;s&lt;r;++s){let r=[];for(let t=3*o,e=3*o+4;t&lt;e;++t)r.push(this.nodes[t].slice(3*s,3*s+4));let i=[];i.push(this.colors[o].slice(s,s+2)),i.push(this.colors[o+1].slice(s,s+2)),(n=new m(r,i)).paint(t,e)}}else{let n,o,a,h,l,d,u;const x=s,g=r;s++,r++;let w=new Array(s);for(let t=0;t&lt;s;++t){w[t]=new Array(r);for(let e=0;e&lt;r;++e)w[t][e]=[],w[t][e][0]=this.nodes[3*t][3*e],w[t][e][1]=this.colors[t][e]}for(let t=0;t&lt;s;++t)for(let e=0;e&lt;r;++e)0!==t&amp;&amp;t!==x&amp;&amp;(n=i(w[t-1][e][0],w[t][e][0]),o=i(w[t+1][e][0],w[t][e][0]),w[t][e][2]=c(w[t-1][e][1],w[t][e][1],w[t+1][e][1],n,o)),0!==e&amp;&amp;e!==g&amp;&amp;(n=i(w[t][e-1][0],w[t][e][0]),o=i(w[t][e+1][0],w[t][e][0]),w[t][e][3]=c(w[t][e-1][1],w[t][e][1],w[t][e+1][1],n,o));for(let t=0;t&lt;r;++t){w[0][t][2]=[],w[x][t][2]=[];for(let e=0;e&lt;4;++e)n=i(w[1][t][0],w[0][t][0]),o=i(w[x][t][0],w[x-1][t][0]),w[0][t][2][e]=n&gt;0?2*(w[1][t][1][e]-w[0][t][1][e])/n-w[1][t][2][e]:0,w[x][t][2][e]=o&gt;0?2*(w[x][t][1][e]-w[x-1][t][1][e])/o-w[x-1][t][2][e]:0}for(let t=0;t&lt;s;++t){w[t][0][3]=[],w[t][g][3]=[];for(let e=0;e&lt;4;++e)n=i(w[t][1][0],w[t][0][0]),o=i(w[t][g][0],w[t][g-1][0]),w[t][0][3][e]=n&gt;0?2*(w[t][1][1][e]-w[t][0][1][e])/n-w[t][1][3][e]:0,w[t][g][3][e]=o&gt;0?2*(w[t][g][1][e]-w[t][g-1][1][e])/o-w[t][g-1][3][e]:0}for(let s=0;s&lt;x;++s)for(let r=0;r&lt;g;++r){let n=i(w[s][r][0],w[s+1][r][0]),o=i(w[s][r+1][0],w[s+1][r+1][0]),c=i(w[s][r][0],w[s][r+1][0]),x=i(w[s+1][r][0],w[s+1][r+1][0]),g=[[],[],[],[]];for(let t=0;t&lt;4;++t){(d=[])[0]=w[s][r][1][t],d[1]=w[s+1][r][1][t],d[2]=w[s][r+1][1][t],d[3]=w[s+1][r+1][1][t],d[4]=w[s][r][2][t]*n,d[5]=w[s+1][r][2][t]*n,d[6]=w[s][r+1][2][t]*o,d[7]=w[s+1][r+1][2][t]*o,d[8]=w[s][r][3][t]*c,d[9]=w[s+1][r][3][t]*x,d[10]=w[s][r+1][3][t]*c,d[11]=w[s+1][r+1][3][t]*x,d[12]=0,d[13]=0,d[14]=0,d[15]=0,u=f(d);for(let e=0;e&lt;9;++e){g[t][e]=[];for(let s=0;s&lt;9;++s)g[t][e][s]=p(u,e/8,s/8),g[t][e][s]&gt;255?g[t][e][s]=255:g[t][e][s]&lt;0&amp;&amp;(g[t][e][s]=0)}}h=[];for(let t=3*s,e=3*s+4;t&lt;e;++t)h.push(this.nodes[t].slice(3*r,3*r+4));l=y(h);for(let s=0;s&lt;8;++s)for(let r=0;r&lt;8;++r)(a=new m(l[s][r],[[[g[0][s][r],g[1][s][r],g[2][s][r],g[3][s][r]],[g[0][s][r+1],g[1][s][r+1],g[2][s][r+1],g[3][s][r+1]]],[[g[0][s+1][r],g[1][s+1][r],g[2][s+1][r],g[3][s+1][r]],[g[0][s+1][r+1],g[1][s+1][r+1],g[2][s+1][r+1],g[3][s+1][r+1]]]])).paint(t,e)}}}transform(t){if(t instanceof x)for(let e=0,s=this.nodes.length;e&lt;s;++e)for(let s=0,r=this.nodes[0].length;s&lt;r;++s)this.nodes[e][s]=this.nodes[e][s].add(t);else if(t instanceof g)for(let e=0,s=this.nodes.length;e&lt;s;++e)for(let s=0,r=this.nodes[0].length;s&lt;r;++s)this.nodes[e][s]=this.nodes[e][s].transform(t)}scale(t){for(let e=0,s=this.nodes.length;e&lt;s;++e)for(let s=0,r=this.nodes[0].length;s&lt;r;++s)this.nodes[e][s]=this.nodes[e][s].scale(t)}}document.querySelectorAll(&quot;rect,circle,ellipse,path,text&quot;).forEach((r,n)=&gt;{let o=r.getAttribute(&quot;id&quot;);o||(o=&quot;patchjs_shape&quot;+n,r.setAttribute(&quot;id&quot;,o));const i=r.style.fill.match(/^url\(\s*&quot;?\s*#([^\s&quot;]+)&quot;?\s*\)/),a=r.style.stroke.match(/^url\(\s*&quot;?\s*#([^\s&quot;]+)&quot;?\s*\)/);if(i&amp;&amp;i[1]){const a=document.getElementById(i[1]);if(a&amp;&amp;&quot;meshgradient&quot;===a.nodeName){const i=r.getBBox();let l=document.createElementNS(s,&quot;canvas&quot;);d(l,{width:i.width,height:i.height});const c=l.getContext(&quot;2d&quot;);let u=c.createImageData(i.width,i.height);const f=new b(a);&quot;objectBoundingBox&quot;===a.getAttribute(&quot;gradientUnits&quot;)&amp;&amp;f.scale(new x(i.width,i.height));const p=a.getAttribute(&quot;gradientTransform&quot;);null!=p&amp;&amp;f.transform(h(p)),&quot;userSpaceOnUse&quot;===a.getAttribute(&quot;gradientUnits&quot;)&amp;&amp;f.transform(new x(-i.x,-i.y)),f.paintMesh(u.data,l.width),c.putImageData(u,0,0);const y=document.createElementNS(t,&quot;image&quot;);d(y,{width:i.width,height:i.height,x:i.x,y:i.y});let g=l.toDataURL();y.setAttributeNS(e,&quot;xlink:href&quot;,g),r.parentNode.insertBefore(y,r),r.style.fill=&quot;none&quot;;const w=document.createElementNS(t,&quot;use&quot;);w.setAttributeNS(e,&quot;xlink:href&quot;,&quot;#&quot;+o);const m=&quot;patchjs_clip&quot;+n,M=document.createElementNS(t,&quot;clipPath&quot;);M.setAttribute(&quot;id&quot;,m),M.appendChild(w),r.parentElement.insertBefore(M,r),y.setAttribute(&quot;clip-path&quot;,&quot;url(#&quot;+m+&quot;)&quot;),u=null,l=null,g=null}}if(a&amp;&amp;a[1]){const o=document.getElementById(a[1]);if(o&amp;&amp;&quot;meshgradient&quot;===o.nodeName){const i=parseFloat(r.style.strokeWidth.slice(0,-2))*(parseFloat(r.style.strokeMiterlimit)||parseFloat(r.getAttribute(&quot;stroke-miterlimit&quot;))||1),a=r.getBBox(),l=Math.trunc(a.width+i),c=Math.trunc(a.height+i),u=Math.trunc(a.x-i/2),f=Math.trunc(a.y-i/2);let p=document.createElementNS(s,&quot;canvas&quot;);d(p,{width:l,height:c});const y=p.getContext(&quot;2d&quot;);let g=y.createImageData(l,c);const w=new b(o);&quot;objectBoundingBox&quot;===o.getAttribute(&quot;gradientUnits&quot;)&amp;&amp;w.scale(new x(l,c));const m=o.getAttribute(&quot;gradientTransform&quot;);null!=m&amp;&amp;w.transform(h(m)),&quot;userSpaceOnUse&quot;===o.getAttribute(&quot;gradientUnits&quot;)&amp;&amp;w.transform(new x(-u,-f)),w.paintMesh(g.data,p.width),y.putImageData(g,0,0);const M=document.createElementNS(t,&quot;image&quot;);d(M,{width:l,height:c,x:0,y:0});let S=p.toDataURL();M.setAttributeNS(e,&quot;xlink:href&quot;,S);const k=&quot;pattern_clip&quot;+n,A=document.createElementNS(t,&quot;pattern&quot;);d(A,{id:k,patternUnits:&quot;userSpaceOnUse&quot;,width:l,height:c,x:u,y:f}),A.appendChild(M),o.parentNode.appendChild(A),r.style.stroke=&quot;url(#&quot;+k+&quot;)&quot;,g=null,p=null,S=null}}})}();
</script>
</svg>
