<?xml version="1.0" encoding="UTF-8" standalone="no"?>
<!-- Created with Inkscape (http://www.inkscape.org/) -->

<svg
   width="1500"
   height="200"
   viewBox="0 0 396.875 52.916668"
   version="1.1"
   id="svg5"
   xml:space="preserve"
   inkscape:version="1.2 (dc2aedaf03, 2022-05-15)"
   sodipodi:docname="freemusic.svg"
   xmlns:inkscape="http://www.inkscape.org/namespaces/inkscape"
   xmlns:sodipodi="http://sodipodi.sourceforge.net/DTD/sodipodi-0.dtd"
   xmlns="http://www.w3.org/2000/svg"
   xmlns:svg="http://www.w3.org/2000/svg"><sodipodi:namedview
     id="namedview7"
     pagecolor="#989898"
     bordercolor="#666666"
     borderopacity="1.0"
     inkscape:showpageshadow="2"
     inkscape:pageopacity="0"
     inkscape:pagecheckerboard="0"
     inkscape:deskcolor="#d1d1d1"
     inkscape:document-units="px"
     showgrid="false"
     inkscape:zoom="1.4142136"
     inkscape:cx="712.41006"
     inkscape:cy="82.731491"
     inkscape:window-width="1920"
     inkscape:window-height="1027"
     inkscape:window-x="-8"
     inkscape:window-y="-8"
     inkscape:window-maximized="1"
     inkscape:current-layer="layer1" /><defs
     id="defs2" /><g
     inkscape:label="Layer 1"
     inkscape:groupmode="layer"
     id="layer1"><path
       style="fill:#000000;stroke-width:0.264583"
       id="path461"
       d="" /><path
       style="fill:#000000;stroke-width:0.264583"
       id="path493"
       d="" /><path
       style="fill:#000000;stroke-width:0.264583"
       id="path487"
       d="" /><path
       style="fill:#000000;stroke-width:0.264583"
       id="path485"
       d="" /><path
       style="fill:#000000;stroke-width:0.264583"
       id="path481"
       d="" /><path
       style="fill:#000000;stroke-width:0.264583"
       id="path479"
       d="" /><g
       aria-label="Free Music"
       transform="scale(0.98401545,1.0162442)"
       id="text993"
       style="font-size:31.5672px;line-height:1.25;font-family:mini-wakuwaku;-inkscape-font-specification:mini-wakuwaku;font-variant-ligatures:none;stroke-width:1.37673"><path
         d="m 137.37054,13.90485 q 0.12331,0.369928 0,0.739856 -0.0925,0.339101 -0.0925,0.493238 h -10.45047 v 9.309858 h 7.18278 q 0.46241,0.46241 0.46241,0.863165 0,0.400756 -0.2158,0.616547 h -7.42939 l -0.24661,12.700866 q -0.83234,0.154136 -1.29475,-0.184964 V 14.583052 q 0.21579,-0.400756 0.49324,-0.678202 z"
         style="font-family:SistersFL;-inkscape-font-specification:SistersFL;fill:#ffffff"
         id="path2359" /><path
         d="m 143.78262,26.852334 q 2.00378,-1.078957 3.08274,-1.664676 h 2.95942 q 0.64738,0.215791 0.894,0.585719 0.24661,0.369928 0.80151,0.709029 0,0.739857 -0.12331,0.863166 -0.0925,0.09248 -0.52407,0.09248 -0.43158,0 -0.64737,-0.09248 -0.18497,-0.123309 -0.77069,-0.647374 h -2.43536 l -0.86316,0.524065 -2.03461,1.541367 q -0.21579,0.154136 -0.49323,0.770683 l -0.24662,8.693311 -0.21579,0.184964 -1.01731,-0.184964 -0.30827,-0.493237 V 24.879384 q 0.24662,-0.400755 0.36993,-0.554892 0.12331,-0.154137 0.52406,-0.154137 0.43159,0 0.5549,0.154137 0.12331,0.154137 0.21579,0.369928 0.12331,0.184964 0.27744,2.157914 z"
         style="font-family:SistersFL;-inkscape-font-specification:SistersFL;fill:#ffffff"
         id="path2361" /><path
         d="m 158.91885,33.017803 q 0,1.880468 0.24662,2.43536 0.27744,0.554892 1.0173,1.263921 0.77068,0.709029 2.15791,0.955648 l 2.9286,-0.46241 1.75716,-1.479713 q 0.55489,0 0.80151,0.246619 0.24662,0.215791 0.24662,0.400756 0,0.154136 -0.12331,0.369928 -0.0925,0.184964 -0.6782,0.709029 l -2.46619,1.202266 -0.95565,0.277446 -2.31205,-0.154137 q -0.0925,-0.09248 -0.64737,-0.246618 -0.55489,-0.12331 -0.77068,-0.12331 -0.2158,0 -0.83234,-0.46241 -0.58572,-0.431583 -1.66468,-2.157914 V 30.61327 q 0.61655,-1.787986 1.3564,-2.805288 0.73986,-1.04813 2.15792,-1.880468 h 3.73011 q 0.92482,0.369928 1.44888,0.893993 0.52407,0.524065 1.38723,2.188741 l 0.12331,2.219569 q -0.70903,0.832338 -1.14061,1.294749 -0.40076,0.46241 -1.32558,0.678201 l -2.25039,0.277446 -2.65115,-0.154136 z m -0.21579,-1.757159 q 0.70903,0.709029 1.32557,0.770684 0.61655,0.06165 2.71281,0.431583 l 2.49701,-0.524065 1.04813,-0.739856 v -2.466188 q -1.26392,-1.263921 -2.12708,-1.541367 h -2.40454 q -1.91129,1.849641 -3.0519,4.069209 z"
         style="font-family:SistersFL;-inkscape-font-specification:SistersFL;fill:#ffffff"
         id="path2363" /><path
         d="m 174.70245,33.017803 q 0,1.880468 0.24662,2.43536 0.27744,0.554892 1.0173,1.263921 0.77068,0.709029 2.15791,0.955648 l 2.9286,-0.46241 1.75716,-1.479713 q 0.55489,0 0.80151,0.246619 0.24662,0.215791 0.24662,0.400756 0,0.154136 -0.12331,0.369928 -0.0925,0.184964 -0.6782,0.709029 l -2.46619,1.202266 -0.95565,0.277446 -2.31205,-0.154137 q -0.0925,-0.09248 -0.64737,-0.246618 -0.55489,-0.12331 -0.77068,-0.12331 -0.2158,0 -0.83234,-0.46241 -0.58572,-0.431583 -1.66468,-2.157914 V 30.61327 q 0.61655,-1.787986 1.3564,-2.805288 0.73986,-1.04813 2.15792,-1.880468 h 3.73011 q 0.92482,0.369928 1.44888,0.893993 0.52407,0.524065 1.38723,2.188741 l 0.12331,2.219569 q -0.70903,0.832338 -1.14061,1.294749 -0.40076,0.46241 -1.32558,0.678201 l -2.25039,0.277446 -2.65115,-0.154136 z m -0.21579,-1.757159 q 0.70903,0.709029 1.32557,0.770684 0.61655,0.06165 2.71281,0.431583 l 2.49701,-0.524065 1.04813,-0.739856 v -2.466188 q -1.26392,-1.263921 -2.12708,-1.541367 h -2.40454 q -1.91129,1.849641 -3.0519,4.069209 z"
         style="font-family:SistersFL;-inkscape-font-specification:SistersFL;fill:#ffffff"
         id="path2365" /><path
         d="m 203.71098,13.658231 1.0173,-0.678201 q 0.55489,0.431583 0.6782,0.92482 0.12331,0.493238 0.36993,0.770684 0.24662,0.246618 1.63385,5.548922 0.49324,1.633849 1.51054,5.148166 l 0.52407,2.250396 0.49323,2.497015 0.18497,2.250396 0.6782,-0.369928 0.55489,-2.866943 q 0.46241,-1.726331 0.77068,-2.219569 l 0.49324,-3.051907 0.36993,-1.603022 0.52406,-2.157914 0.52407,-1.757158 0.61655,-2.497015 q 0.52406,-1.787986 0.52406,-2.003778 0,-0.215791 0.24662,-0.46241 0.27745,-0.246618 0.49324,-0.369928 0.21579,-0.123309 0.36993,-0.123309 0.18496,0 0.64737,0.493237 v 24.106983 q -0.21579,0.400755 -0.3391,0.524065 -0.12331,0.154136 -0.27745,0.154136 -0.15413,0 -0.30827,-0.154136 -0.12331,-0.12331 -0.3391,-0.524065 l -0.12331,-19.914464 -1.26392,3.051907 -0.52407,2.404533 -0.49323,2.990252 -1.14062,4.747411 -0.27744,0.770684 -0.49324,2.990252 q -0.64737,2.003777 -0.73986,2.928598 h -0.58572 l -0.0925,-0.770684 -0.49323,-2.89777 -0.40076,-1.017303 -0.49324,-2.497014 -0.36993,-1.387231 -0.52406,-2.497015 -0.77068,-3.144389 -0.61655,-2.497015 -1.17144,-3.329353 -0.12331,20.037774 q -0.52406,0.493237 -0.80151,0.647374 l -0.46241,-0.400756 z"
         style="font-family:SistersFL;-inkscape-font-specification:SistersFL;fill:#ffffff"
         id="path2367" /><path
         d="m 220.01864,26.605716 q 0.43159,-0.154137 0.58572,-0.154137 0.18497,0 0.67821,0.46241 l 0.24661,6.473742 q 0.52407,2.003778 0.52407,2.281224 0,0.246618 0.27744,0.739856 0.27745,0.493237 1.04813,0.832338 h 2.71281 q 1.51054,-1.51054 2.06543,-2.836115 v -8.230901 q 0.46241,-0.493238 0.73986,-0.493238 0.30827,0 0.77068,0.493238 l 0.27745,7.213598 0.73985,3.051907 q 0.52407,0.955648 0.52407,1.356403 0,0.400756 -0.24662,0.616547 -0.24662,0.246619 -0.40075,0.246619 -0.15414,0 -0.67821,-0.493238 -0.49323,-0.493237 -0.80151,-1.942122 -1.97295,1.84964 -3.14439,2.43536 l -2.77446,-0.123309 q -0.0925,-0.09248 -0.52406,-0.246619 -0.43158,-0.12331 -0.6782,-0.12331 -0.21579,0 -0.61655,-0.369928 -0.36993,-0.369928 -1.32558,-1.757158 z"
         style="font-family:SistersFL;-inkscape-font-specification:SistersFL;fill:#ffffff"
         id="path2369" /><path
         d="m 236.81955,34.959926 q 1.07895,1.418058 1.66467,2.003777 0.61655,0.554892 1.72633,0.955648 h 2.9286 q 0.98648,-0.647375 1.38723,-1.171439 0.43158,-0.554893 0.43158,-1.51054 0,-0.955648 -0.15413,-1.233094 -0.15414,-0.308273 -1.63385,-1.38723 -4.31583,-1.387231 -5.11734,-2.003778 -0.77068,-0.647374 -0.98648,-2.157914 l 0.24662,-2.281223 q 0.95565,-1.171439 2.49702,-2.250396 h 2.68198 q 1.44888,0.246618 2.21957,1.078957 0.77068,0.832338 1.26392,1.726331 0.49323,0.893993 0.49323,1.202266 0,0.308274 -0.1233,0.431583 -0.0925,0.09248 -0.36993,0.09248 -0.24662,0 -0.70903,-0.616547 -0.46241,-0.647374 -1.0173,-1.510539 -0.52407,-0.863166 -1.38723,-0.986475 -0.83234,-0.154137 -1.9113,-0.03083 -1.07896,0.12331 -1.32558,0.369928 -0.21579,0.215792 -0.64737,0.770684 -0.40076,0.524065 -0.40076,2.497015 l 1.54137,1.233093 4.31583,1.233094 1.57219,1.325576 0.33911,1.140612 v 2.558669 q -0.33911,1.202267 -1.07896,1.726331 -0.70903,0.524065 -1.78799,1.017303 h -4.40831 q -0.49324,-0.493238 -0.86316,-0.616547 -0.3391,-0.123309 -1.07896,-0.986475 -0.70903,-0.832338 -0.77068,-1.603022 -0.0617,-0.801511 0.0308,-0.893993 0.12331,-0.123309 0.43159,-0.123309 z"
         style="font-family:SistersFL;-inkscape-font-specification:SistersFL;fill:#ffffff"
         id="path2371" /><path
         d="m 257.68966,37.734387 -0.80151,0.154136 -0.49324,-0.431582 V 27.407227 q 0.49324,-0.462411 0.77068,-0.462411 0.30828,0 0.77069,0.462411 z m -0.64738,-13.93396 q -0.36992,-0.3391 -0.36992,-1.017302 0,-0.678202 0.0925,-0.863166 0.12331,-0.215791 0.24662,-0.3391 0.12331,-0.154137 0.40075,-0.154137 0.30828,0 0.52407,0.246619 0.24662,0.215791 0.24662,1.017302 0,0.770684 -0.46241,1.233094 z"
         style="font-family:SistersFL;-inkscape-font-specification:SistersFL;fill:#ffffff"
         id="path2373" /><path
         d="m 277.75826,28.116255 q -0.21579,0.678202 -0.21579,0.832339 -0.5549,0 -2.83612,-2.250396 h -2.43536 l -0.95565,0.524065 -1.88046,1.448885 q -0.43159,1.109784 -0.80152,3.175216 l 0.80152,3.113562 1.6955,1.84964 q 1.17144,0.431583 2.09626,0.431583 0.92482,0 1.78798,-0.46241 0.894,-0.493238 1.44889,-1.171439 0.55489,-0.678202 0.55489,-0.893993 0.55489,0 0.77069,0.246619 0.24661,0.215791 0.24661,0.524065 0,0.277446 -0.89399,1.140611 -0.89399,0.832339 -2.83611,1.787986 l -2.52785,-0.123309 q -0.0925,-0.09248 -0.86316,-0.215792 -0.77069,-0.123309 -2.06543,-1.510539 l -1.01731,-1.818814 -0.46241,-1.448885 V 30.15086 q 0.46241,-1.202266 1.32558,-2.681979 l 1.97295,-1.695504 q 1.94212,-0.585719 2.77446,-0.585719 0.83234,0 1.26392,0.369928 0.43158,0.369928 0.73986,0.369928 0.3391,0 0.98647,0.647374 0.64738,0.647375 1.32558,1.541367 z"
         style="font-family:SistersFL;-inkscape-font-specification:SistersFL;fill:#ffffff"
         id="path2375" /></g></g></svg>
