<?xml version="1.0" encoding="UTF-8" standalone="no"?>
<!-- Created with Inkscape (http://www.inkscape.org/) -->

<svg
   width="1500"
   height="200"
   viewBox="0 0 396.875 52.916668"
   version="1.1"
   id="svg5"
   xml:space="preserve"
   inkscape:version="1.2 (dc2aedaf03, 2022-05-15)"
   sodipodi:docname="horizon.svg"
   xmlns:inkscape="http://www.inkscape.org/namespaces/inkscape"
   xmlns:sodipodi="http://sodipodi.sourceforge.net/DTD/sodipodi-0.dtd"
   xmlns="http://www.w3.org/2000/svg"
   xmlns:svg="http://www.w3.org/2000/svg"><sodipodi:namedview
     id="namedview7"
     pagecolor="#989898"
     bordercolor="#666666"
     borderopacity="1.0"
     inkscape:showpageshadow="2"
     inkscape:pageopacity="0"
     inkscape:pagecheckerboard="0"
     inkscape:deskcolor="#d1d1d1"
     inkscape:document-units="px"
     showgrid="false"
     inkscape:zoom="1"
     inkscape:cx="574.5"
     inkscape:cy="86"
     inkscape:window-width="1920"
     inkscape:window-height="1027"
     inkscape:window-x="-8"
     inkscape:window-y="-8"
     inkscape:window-maximized="1"
     inkscape:current-layer="layer1" /><defs
     id="defs2" /><g
     inkscape:label="Layer 1"
     inkscape:groupmode="layer"
     id="layer1"><rect
       style="fill:#3c3c3c;fill-opacity:1;stroke:#ffffff;stroke-width:0.792;stroke-linecap:square;stroke-dasharray:none;stroke-opacity:1;paint-order:markers fill stroke"
       id="rect330"
       width="196.63019"
       height="49.765583"
       x="100.12241"
       y="1.5755421"
       ry="24.882792" /><path
       style="fill:#000000;stroke-width:0.264583"
       id="path461"
       d="" /><path
       style="fill:#000000;stroke-width:0.264583"
       id="path493"
       d="" /><path
       style="fill:#000000;stroke-width:0.264583"
       id="path487"
       d="" /><path
       style="fill:#000000;stroke-width:0.264583"
       id="path485"
       d="" /><path
       style="fill:#000000;stroke-width:0.264583"
       id="path481"
       d="" /><path
       style="fill:#000000;stroke-width:0.264583"
       id="path479"
       d="" /><g
       aria-label="Horizon"
       transform="scale(0.98401545,1.0162442)"
       id="text993"
       style="font-size:32.1707px;line-height:1.25;font-family:mini-wakuwaku;-inkscape-font-specification:mini-wakuwaku;font-variant-ligatures:none;stroke-width:1.40305"><path
         d="m 149.76058,13.138854 v 0.157083 l 0.25133,11.624179 h 9.36218 l 0.25133,-11.812679 q 0.21992,-0.219917 0.50267,-0.219917 0.31417,0 0.43983,0.157084 0.12567,0.157083 0.34559,0.5655 v 23.813858 q -0.47125,0.471251 -0.78542,0.471251 -0.28275,0 -0.754,-0.471251 V 26.459534 h -9.36218 v 10.964428 l -0.69116,0.691168 q -0.21992,-0.06283 -0.84825,-0.691168 V 13.641521 q 0.47125,-0.502667 1.28808,-0.502667 z"
         style="font-family:SistersFL;-inkscape-font-specification:SistersFL;fill:#ffffff"
         id="path3061" /><path
         d="m 168.89335,39.057631 q -0.754,-0.408417 -1.25667,-0.534084 -0.50267,-0.09425 -1.00533,-0.565501 -0.47125,-0.47125 -1.57084,-2.230585 v -5.497923 q 1.00534,-2.450502 1.53942,-2.953169 0.5655,-0.502668 1.82217,-1.193835 l 2.10492,-0.408417 2.32483,0.502667 1.85359,1.602252 0.754,2.167752 v 4.524005 l -0.50267,1.476585 -1.00533,1.916418 q -0.97392,0.816834 -2.29342,1.319502 z m 0.40842,-1.162418 h 2.51333 l 1.66509,-1.727919 q 0.53408,-1.570835 0.9425,-2.639002 v -2.639003 l -0.81684,-2.419086 q -1.22525,-0.816834 -1.82216,-1.256668 h -2.48192 q -0.87967,0.596917 -1.63367,1.319501 -0.754,0.722585 -0.87967,1.131002 -0.12567,0.408417 -0.40842,0.942501 v 4.209837 q 0.53409,1.350918 1.00534,1.979252 0.50267,0.596918 0.91108,0.691168 0.43984,0.125667 1.00534,0.408417 z"
         style="font-family:SistersFL;-inkscape-font-specification:SistersFL;fill:#ffffff"
         id="path3063" /><path
         d="m 183.12511,26.616618 q 2.04209,-1.099585 3.14167,-1.696502 h 3.01601 q 0.65975,0.219917 0.91108,0.596917 0.25134,0.377001 0.81684,0.722584 0,0.754001 -0.12567,0.879668 -0.0943,0.09425 -0.53408,0.09425 -0.43984,0 -0.65976,-0.09425 -0.1885,-0.125667 -0.78541,-0.659751 h -2.48192 l -0.87967,0.534084 -2.0735,1.570835 q -0.21992,0.157084 -0.50267,0.785418 l -0.25133,8.859509 -0.21992,0.1885 -1.03675,-0.1885 -0.31417,-0.502667 V 24.605949 q 0.25134,-0.408417 0.377,-0.565501 0.12567,-0.157083 0.53409,-0.157083 0.43983,0 0.5655,0.157083 0.12566,0.157084 0.21991,0.377001 0.12567,0.1885 0.28275,2.199169 z"
         style="font-family:SistersFL;-inkscape-font-specification:SistersFL;fill:#ffffff"
         id="path3065" /><path
         d="m 202.69772,37.706713 -0.81684,0.157083 -0.50266,-0.439834 V 27.182118 q 0.50266,-0.47125 0.78541,-0.47125 0.31417,0 0.78542,0.47125 z m -0.65975,-14.200348 q -0.377,-0.345584 -0.377,-1.036751 0,-0.691168 0.0943,-0.879668 0.12566,-0.219917 0.25133,-0.345584 0.12567,-0.157083 0.40842,-0.157083 0.31416,0 0.53408,0.251333 0.25134,0.219917 0.25134,1.036751 0,0.785418 -0.47126,1.256668 z"
         style="font-family:SistersFL;-inkscape-font-specification:SistersFL;fill:#ffffff"
         id="path3067" /><path
         d="m 216.83523,32.931374 q -1.63367,-1.162417 -2.41908,-2.356252 l 0.47125,-0.534084 h 0.53408 l 1.75934,1.476585 0.53408,0.502667 0.84825,-0.502667 3.17309,-3.14167 -0.65975,-0.628334 -8.38826,-0.28275 h -0.12567 q 0,-0.282751 0.72259,-1.005335 h 9.89626 l 0.72258,1.005335 q -1.28808,1.633668 -2.32484,2.639002 -1.00533,1.005335 -2.54475,2.104919 0,0.596918 0.40842,1.005335 0.40842,0.408417 0.65975,0.408417 0.25133,0 0.62833,0.377 0.377,0.345584 0.377,0.502667 0,0.157084 -0.25133,0.408417 -0.21992,0.219917 -0.65975,0.219917 -0.40842,0 -0.91108,-0.345583 -0.47126,-0.345584 -1.28809,-1.131002 -1.09958,1.068168 -1.28808,1.382335 -0.1885,0.314167 -0.50267,0.502667 -0.31417,0.188501 -0.5655,0.439834 -0.25134,0.219917 -0.25134,0.942501 l 8.4511,0.28275 h 0.12566 q 0,0.722585 -0.21991,0.942501 h -10.96443 q -0.50267,-0.47125 -0.50267,-0.754 z"
         style="font-family:SistersFL;-inkscape-font-specification:SistersFL;fill:#ffffff"
         id="path3069" /><path
         d="m 233.23475,39.057631 q -0.754,-0.408417 -1.25667,-0.534084 -0.50267,-0.09425 -1.00533,-0.565501 -0.47125,-0.47125 -1.57084,-2.230585 v -5.497923 q 1.00534,-2.450502 1.53942,-2.953169 0.5655,-0.502668 1.82217,-1.193835 l 2.10492,-0.408417 2.32483,0.502667 1.85359,1.602252 0.754,2.167752 v 4.524005 l -0.50267,1.476585 -1.00533,1.916418 q -0.97392,0.816834 -2.29342,1.319502 z m 0.40842,-1.162418 h 2.51333 l 1.66509,-1.727919 q 0.53408,-1.570835 0.9425,-2.639002 v -2.639003 l -0.81684,-2.419086 q -1.22525,-0.816834 -1.82216,-1.256668 h -2.48192 q -0.87967,0.596917 -1.63367,1.319501 -0.754,0.722585 -0.87967,1.131002 -0.12567,0.408417 -0.40842,0.942501 v 4.209837 q 0.53409,1.350918 1.00534,1.979252 0.50267,0.596918 0.91108,0.691168 0.43984,0.125667 1.00534,0.408417 z"
         style="font-family:SistersFL;-inkscape-font-specification:SistersFL;fill:#ffffff"
         id="path3071" /><path
         d="m 245.98993,26.490951 0.72258,1.665085 q 1.25667,-0.973918 2.35626,-1.445168 h 2.48192 l 1.22525,0.219917 1.57083,1.602251 q 0.21992,0.439834 0.50267,1.413752 v 8.513925 q -0.25133,0.219917 -0.81684,0.219917 -0.53408,0 -0.754,-0.219917 l -0.25133,-8.576758 q -0.28275,-0.879668 -0.65975,-1.225252 -0.377,-0.377 -0.81683,-0.502667 -0.43984,-0.157083 -1.53942,-0.157083 -1.09959,0 -1.82217,0.534083 -0.69117,0.534084 -1.03675,1.036752 -0.34559,0.502667 -0.34559,1.350918 l -0.65975,7.634258 -0.0942,0.09425 Q 245.61293,38.58638 244.9846,37.92663 V 27.433452 q 0.69116,-0.879668 1.00533,-0.942501 z"
         style="font-family:SistersFL;-inkscape-font-specification:SistersFL;fill:#ffffff"
         id="path3073" /></g></g></svg>
