<?xml version="1.0" encoding="UTF-8" standalone="no"?>
<!-- Created with Inkscape (http://www.inkscape.org/) -->

<svg
   width="1500"
   height="200"
   viewBox="0 0 396.875 52.916668"
   version="1.1"
   id="svg5"
   xml:space="preserve"
   inkscape:version="1.2 (dc2aedaf03, 2022-05-15)"
   sodipodi:docname="latestvid.svg"
   xmlns:inkscape="http://www.inkscape.org/namespaces/inkscape"
   xmlns:sodipodi="http://sodipodi.sourceforge.net/DTD/sodipodi-0.dtd"
   xmlns="http://www.w3.org/2000/svg"
   xmlns:svg="http://www.w3.org/2000/svg"><sodipodi:namedview
     id="namedview7"
     pagecolor="#989898"
     bordercolor="#666666"
     borderopacity="1.0"
     inkscape:showpageshadow="2"
     inkscape:pageopacity="0"
     inkscape:pagecheckerboard="0"
     inkscape:deskcolor="#d1d1d1"
     inkscape:document-units="px"
     showgrid="false"
     inkscape:zoom="1.4142136"
     inkscape:cx="712.41006"
     inkscape:cy="82.731491"
     inkscape:window-width="1920"
     inkscape:window-height="1027"
     inkscape:window-x="-8"
     inkscape:window-y="-8"
     inkscape:window-maximized="1"
     inkscape:current-layer="layer1" /><defs
     id="defs2" /><g
     inkscape:label="Layer 1"
     inkscape:groupmode="layer"
     id="layer1"><path
       style="fill:#000000;stroke-width:0.264583"
       id="path461"
       d="" /><path
       style="fill:#000000;stroke-width:0.264583"
       id="path493"
       d="" /><path
       style="fill:#000000;stroke-width:0.264583"
       id="path487"
       d="" /><path
       style="fill:#000000;stroke-width:0.264583"
       id="path485"
       d="" /><path
       style="fill:#000000;stroke-width:0.264583"
       id="path481"
       d="" /><path
       style="fill:#000000;stroke-width:0.264583"
       id="path479"
       d="" /><g
       aria-label="Latest Video"
       transform="scale(0.98401545,1.0162442)"
       id="text993"
       style="font-size:31.8661px;line-height:1.25;font-family:mini-wakuwaku;-inkscape-font-specification:mini-wakuwaku;font-variant-ligatures:none;stroke-width:1.38977"><path
         d="m 121.07769,36.942702 q 0,0.995816 -0.21783,1.213651 l -12.01203,-0.124477 -0.34231,-0.342312 V 13.385439 q 0.21784,-0.217835 0.74686,-0.217835 0.56015,0 0.77798,0.217835 v 23.028236 l 0.56015,0.529027 z"
         style="font-family:SistersFL;-inkscape-font-specification:SistersFL;fill:#ffffff"
         id="path2539" /><path
         d="m 133.02748,33.76854 q -0.87134,0.622385 -1.02693,1.089173 -0.12448,0.43567 -0.12448,0.653504 0,0.217835 -0.99582,1.400366 -0.96469,1.182531 -2.02275,1.742678 l -2.02275,0.124476 q -0.12447,-0.124476 -0.52902,-0.124476 -0.37343,0 -1.08918,-0.591266 -0.68462,-0.560146 -1.307,-1.804916 V 32.55489 q 0.62238,-2.333943 1.05805,-3.143043 0.46679,-0.809101 0.93358,-1.524843 l 1.86715,-1.836035 q 1.43149,-0.497908 2.27171,-0.497908 0.84021,0 2.30282,1.089173 l 1.21365,1.804916 0.37343,2.333943 q 0,1.555962 0.68462,2.987447 l 1.02694,2.396181 q 0.37343,1.058055 0.62238,1.24477 0.24896,0.217835 0.24896,0.497908 0,0.280073 -0.24896,0.497908 -0.24895,0.248954 -0.77798,0.248954 -0.93358,-1.213651 -1.40036,-2.05387 -0.43567,-0.871339 -1.05806,-2.831851 z m -6.22385,3.67207 q 1.43149,0 2.5829,-0.8091 l 1.43149,-1.960512 q 0.68462,-1.804916 1.18253,-3.391997 v -2.333943 l -0.56015,-1.680439 q -1.36925,-0.435669 -2.2717,-0.09336 -0.90246,0.311192 -2.24059,1.649319 l -1.30701,2.209466 -0.43567,1.462604 v 3.391997 q 0.71575,1.120293 1.6182,1.555962 z"
         style="font-family:SistersFL;-inkscape-font-specification:SistersFL;fill:#ffffff"
         id="path2541" /><path
         d="m 144.47936,28.8517 h -4.23221 q -0.1556,-0.435669 -0.1556,-0.715742 0,-0.311192 0.1556,-0.435669 0.15559,-0.155597 0.56014,-0.373431 h 3.64095 l 0.28008,-3.921024 v -0.373431 h 1.27588 v 4.294455 h 4.91684 q 0.49791,0.497908 0.49791,0.777981 0,0.280073 -0.49791,0.746861 h -4.91684 v 7.810929 q 0.99582,0.964697 1.61821,1.24477 h 3.29863 q 0.21784,0.217834 0.21784,0.622385 0,0.435669 -0.21784,0.653504 l -3.79654,-0.124477 q -0.37343,-0.248954 -0.99582,-0.43567 -0.59126,-0.186715 -0.96469,-0.591265 -0.34232,-0.373431 -0.68463,-1.24477 z"
         style="font-family:SistersFL;-inkscape-font-specification:SistersFL;fill:#ffffff"
         id="path2543" /><path
         d="m 158.35854,32.95944 q 0,1.898273 0.24895,2.45842 0.28008,0.560146 1.02694,1.275889 0.77798,0.715742 2.17835,0.964696 l 2.95632,-0.466789 1.7738,-1.493723 q 0.56015,0 0.8091,0.248954 0.24895,0.217834 0.24895,0.40455 0,0.155596 -0.12447,0.373431 -0.0934,0.186715 -0.68463,0.715742 l -2.48953,1.213651 -0.9647,0.280073 -2.33394,-0.155597 q -0.0934,-0.09336 -0.65351,-0.248953 -0.56014,-0.124477 -0.77798,-0.124477 -0.21783,0 -0.84022,-0.466789 -0.59126,-0.435669 -1.68044,-2.178347 v -5.228032 q 0.62239,-1.804916 1.36925,-2.83185 0.74686,-1.058055 2.17835,-1.898274 h 3.76542 q 0.93358,0.373431 1.46261,0.902458 0.52902,0.529027 1.40036,2.209466 l 0.12448,2.240585 q -0.71574,0.840219 -1.15141,1.307008 -0.40455,0.466789 -1.33813,0.684623 l -2.2717,0.280073 -2.67626,-0.155596 z m -0.21783,-1.773797 q 0.71574,0.715743 1.33812,0.777981 0.62239,0.06224 2.7385,0.43567 l 2.52065,-0.529027 1.05806,-0.746862 v -2.489539 q -1.27589,-1.275889 -2.14723,-1.555962 h -2.4273 q -1.92939,1.867154 -3.0808,4.107739 z"
         style="font-family:SistersFL;-inkscape-font-specification:SistersFL;fill:#ffffff"
         id="path2545" /><path
         d="m 173.26466,34.919952 q 1.08917,1.431485 1.68044,2.02275 0.62238,0.560147 1.74267,0.964697 h 2.95633 q 0.99582,-0.653504 1.40037,-1.182531 0.43567,-0.560147 0.43567,-1.524843 0,-0.964696 -0.1556,-1.244769 -0.1556,-0.311193 -1.64932,-1.400366 -4.35669,-1.400366 -5.16579,-2.022751 -0.77798,-0.653504 -0.99582,-2.178346 l 0.24896,-2.302824 q 0.96469,-1.182531 2.52065,-2.271705 h 2.70738 q 1.4626,0.248954 2.24058,1.089174 0.77798,0.840219 1.27589,1.742677 0.49791,0.902458 0.49791,1.213651 0,0.311192 -0.12448,0.435669 -0.0934,0.09336 -0.37343,0.09336 -0.24895,0 -0.71574,-0.622385 -0.46679,-0.653504 -1.02694,-1.524843 -0.52902,-0.871339 -1.40036,-0.995816 -0.84022,-0.155596 -1.92939,-0.03112 -1.08918,0.124477 -1.33813,0.373431 -0.21784,0.217835 -0.65351,0.777981 -0.40455,0.529027 -0.40455,2.520658 l 1.55597,1.24477 4.35669,1.244769 1.58708,1.338128 0.34231,1.151412 v 2.582896 q -0.34231,1.213651 -1.08917,1.742678 -0.71574,0.529027 -1.80492,1.026935 h -4.45005 q -0.49791,-0.497908 -0.87134,-0.622385 -0.34231,-0.124477 -1.08917,-0.995816 -0.71574,-0.840219 -0.77798,-1.6182 -0.0622,-0.8091 0.0311,-0.902458 0.12448,-0.124477 0.43567,-0.124477 z"
         style="font-family:SistersFL;-inkscape-font-specification:SistersFL;fill:#ffffff"
         id="path2547" /><path
         d="m 192.27851,28.8517 h -4.23221 q -0.1556,-0.435669 -0.1556,-0.715742 0,-0.311192 0.1556,-0.435669 0.15559,-0.155597 0.56014,-0.373431 h 3.64096 l 0.28007,-3.921024 v -0.373431 h 1.27589 v 4.294455 h 4.91684 q 0.4979,0.497908 0.4979,0.777981 0,0.280073 -0.4979,0.746861 h -4.91684 v 7.810929 q 0.99581,0.964697 1.6182,1.24477 h 3.29864 q 0.21783,0.217834 0.21783,0.622385 0,0.435669 -0.21783,0.653504 l -3.79655,-0.124477 q -0.37343,-0.248954 -0.99582,-0.43567 -0.59126,-0.186715 -0.96469,-0.591265 -0.34231,-0.373431 -0.68463,-1.24477 z"
         style="font-family:SistersFL;-inkscape-font-specification:SistersFL;fill:#ffffff"
         id="path2549" /><path
         d="m 220.28583,13.136485 q 0,0.497908 0.24895,0.777981 0.28007,0.248954 0.6535,2.178347 l 0.49791,3.080804 1.02694,4.045501 0.52902,2.271705 0.49791,1.524842 0.52903,3.26752 q 0.62238,2.956328 0.96469,4.792363 l 0.65351,-0.311192 0.43567,-1.524843 0.49791,-2.302824 0.52902,-2.02275 0.90246,-3.174162 0.77798,-3.267521 0.62239,-3.174162 0.52902,-2.271704 q 0.49791,-1.929393 0.68463,-2.769613 0.18671,-0.871338 0.43567,-1.120292 0.24895,-0.248954 0.40455,-0.248954 0.15559,0 0.6535,0.466789 -0.12448,1.275888 -0.6535,3.143043 l -0.49791,2.4273 -0.52903,2.022751 -0.49791,2.645135 -0.52902,2.147228 -1.15142,4.450051 -0.4979,1.524842 -0.52903,2.520659 q -0.87134,3.111924 -1.18253,3.609831 -0.28007,0.529027 -0.84022,0.809101 -0.59127,-0.529028 -0.90246,-1.462605 -0.28007,-0.933577 -0.8091,-2.707373 l -0.49791,-2.271705 -1.02693,-4.045501 -0.65351,-2.800731 -0.6535,-2.271705 q -0.37343,-1.742677 -0.37343,-2.520658 0,-0.8091 -0.52903,-1.338127 l -0.49791,-2.956328 q -0.24895,-1.275889 -0.24895,-2.084989 0,-0.840219 0.0934,-0.933577 0.12448,-0.124477 0.93358,-0.124477 z"
         style="font-family:SistersFL;-inkscape-font-specification:SistersFL;fill:#ffffff"
         id="path2551" /><path
         d="m 242.13153,37.720683 -0.8091,0.155597 -0.49791,-0.43567 V 27.295738 q 0.49791,-0.466788 0.77799,-0.466788 0.31119,0 0.77798,0.466788 z m -0.6535,-14.065895 q -0.37343,-0.342312 -0.37343,-1.026935 0,-0.684624 0.0934,-0.871339 0.12447,-0.217835 0.24895,-0.342312 0.12448,-0.155596 0.40455,-0.155596 0.31119,0 0.52903,0.248954 0.24895,0.217835 0.24895,1.026935 0,0.777981 -0.46679,1.244769 z"
         style="font-family:SistersFL;-inkscape-font-specification:SistersFL;fill:#ffffff"
         id="path2553" /><path
         d="m 261.39434,37.004941 -2.39619,1.307008 q -1.36924,0.342312 -2.36506,0.342312 -0.96469,0 -1.21365,-0.124477 -0.21783,-0.09336 -0.96469,-0.342312 l -1.58709,-1.524843 q -0.4979,-0.715742 -0.96469,-2.147227 v -3.485355 l 0.71574,-2.178347 q 1.08917,-1.462604 3.32976,-2.645135 h 3.0808 q 1.24477,0.466789 2.36507,1.026935 V 13.883347 q 0.52902,-0.497908 0.52902,-0.715743 0.77798,0 1.02694,0.217835 v 25.580014 q -0.24896,0.217835 -0.65351,0.217835 -0.40455,0 -0.6535,-0.248954 -0.24895,-0.248954 -0.24895,-1.929393 z m -5.07244,0.435669 q 1.96051,-0.217834 2.89409,-0.746861 0.9647,-0.560147 1.43148,-1.307009 0.46679,-0.746861 0.74687,-1.555961 v -4.730125 q -1.36925,-0.933577 -2.33395,-1.773796 h -3.01856 q -1.80492,1.742677 -2.7385,3.858785 v 2.551778 q 1.33813,2.614016 3.01857,3.703189 z"
         style="font-family:SistersFL;-inkscape-font-specification:SistersFL;fill:#ffffff"
         id="path2555" /><path
         d="m 269.8899,32.95944 q 0,1.898273 0.24895,2.45842 0.28007,0.560146 1.02694,1.275889 0.77798,0.715742 2.17834,0.964696 l 2.95633,-0.466789 1.7738,-1.493723 q 0.56014,0 0.8091,0.248954 0.24895,0.217834 0.24895,0.40455 0,0.155596 -0.12448,0.373431 -0.0933,0.186715 -0.68462,0.715742 l -2.48954,1.213651 -0.96469,0.280073 -2.33395,-0.155597 q -0.0934,-0.09336 -0.6535,-0.248953 -0.56015,-0.124477 -0.77798,-0.124477 -0.21784,0 -0.84022,-0.466789 -0.59127,-0.435669 -1.68044,-2.178347 v -5.228032 q 0.62238,-1.804916 1.36925,-2.83185 0.74686,-1.058055 2.17834,-1.898274 h 3.76543 q 0.93358,0.373431 1.4626,0.902458 0.52903,0.529027 1.40037,2.209466 l 0.12448,2.240585 q -0.71575,0.840219 -1.15141,1.307008 -0.40455,0.466789 -1.33813,0.684623 l -2.27171,0.280073 -2.67625,-0.155596 z m -0.21784,-1.773797 q 0.71575,0.715743 1.33813,0.777981 0.62238,0.06224 2.73849,0.43567 l 2.52066,-0.529027 1.05806,-0.746862 v -2.489539 q -1.27589,-1.275889 -2.14723,-1.555962 h -2.4273 q -1.9294,1.867154 -3.08081,4.107739 z"
         style="font-family:SistersFL;-inkscape-font-specification:SistersFL;fill:#ffffff"
         id="path2557" /><path
         d="m 288.31248,39.058811 q -0.74686,-0.40455 -1.24477,-0.529027 -0.49791,-0.09336 -0.99581,-0.560147 -0.46679,-0.466788 -1.55597,-2.209466 v -5.445866 q 0.99582,-2.427301 1.52485,-2.925209 0.56014,-0.497908 1.80491,-1.182531 l 2.08499,-0.40455 2.30282,0.497908 1.83604,1.587081 0.74686,2.147227 v 4.481171 l -0.49791,1.462604 -0.99581,1.898274 q -0.9647,0.8091 -2.27171,1.307008 z m 0.40455,-1.151412 h 2.48954 l 1.64932,-1.711558 q 0.52903,-1.555962 0.93358,-2.614016 v -2.614016 l -0.8091,-2.396182 q -1.21365,-0.8091 -1.80492,-1.244769 h -2.45842 q -0.87134,0.591265 -1.6182,1.307008 -0.74686,0.715742 -0.87134,1.120292 -0.12448,0.40455 -0.40455,0.933577 v 4.169978 q 0.52903,1.338128 0.99582,1.960512 0.49791,0.591266 0.90246,0.684624 0.43566,0.124477 0.99581,0.40455 z"
         style="font-family:SistersFL;-inkscape-font-specification:SistersFL;fill:#ffffff"
         id="path2559" /></g></g></svg>
