<?xml version="1.0" encoding="UTF-8" standalone="no"?>
<!-- Created with Inkscape (http://www.inkscape.org/) -->

<svg
   width="310.36298"
   height="37.752037"
   viewBox="0 0 82.116871 9.9885601"
   version="1.1"
   id="svg5"
   xml:space="preserve"
   inkscape:version="1.2 (dc2aedaf03, 2022-05-15)"
   sodipodi:docname="latestvidak.svg"
   xmlns:inkscape="http://www.inkscape.org/namespaces/inkscape"
   xmlns:sodipodi="http://sodipodi.sourceforge.net/DTD/sodipodi-0.dtd"
   xmlns="http://www.w3.org/2000/svg"
   xmlns:svg="http://www.w3.org/2000/svg"><sodipodi:namedview
     id="namedview7"
     pagecolor="#989898"
     bordercolor="#666666"
     borderopacity="1.0"
     inkscape:showpageshadow="2"
     inkscape:pageopacity="0"
     inkscape:pagecheckerboard="0"
     inkscape:deskcolor="#d1d1d1"
     inkscape:document-units="px"
     showgrid="false"
     inkscape:zoom="1"
     inkscape:cx="145.5"
     inkscape:cy="47.999999"
     inkscape:window-width="1920"
     inkscape:window-height="1027"
     inkscape:window-x="-8"
     inkscape:window-y="-8"
     inkscape:window-maximized="1"
     inkscape:current-layer="layer1" /><defs
     id="defs2" /><g
     inkscape:label="Layer 1"
     inkscape:groupmode="layer"
     id="layer1"
     transform="translate(-157.37906,-21.464054)"><g
       aria-label="Latest Video"
       transform="matrix(0.43780925,0,0,0.4532059,110.04529,14.672706)"
       id="text388"
       style="font-size:29.9861px;line-height:1.25;font-family:SistersFL;-inkscape-font-specification:SistersFL;font-variant-ligatures:none;stroke-width:0.166177"><path
         d="m 122.98819,31.087662 c -1.64923,0.509763 -5.48745,1.049513 -7.40656,1.049513 -0.17992,0 -0.35984,-0.02999 -0.50977,-0.02999 -1.0795,-0.08996 -1.67922,-0.419805 -1.79916,-1.619249 -0.06,-0.419806 -0.06,-0.929569 -0.06,-1.439333 0,-3.598332 1.01952,-9.205732 2.33891,-13.343814 l -5.12762,-0.449792 c -1.31939,4.07811 -2.30893,9.205733 -2.30893,13.853578 0,0.959555 0.06,1.919111 0.14993,2.84868 0.29986,2.938637 1.91911,4.437942 5.06765,4.707817 0.71967,0.05997 1.46932,0.08996 2.24896,0.08996 3.05858,0 6.29708,-0.449791 8.00629,-0.989541 z"
         style="font-family:'FOT-PopHappiness Std';-inkscape-font-specification:'FOT-PopHappiness Std';fill:#bb9df6"
         id="path5351" /><path
         d="m 141.87942,35.915424 -1.76918,-9.025816 -1.28941,0.269875 1.82916,-3.418416 c -1.85914,-1.289402 -3.92818,-1.889124 -5.90727,-1.889124 -4.85774,0 -9.23571,3.508374 -9.23571,8.875886 0,4.018137 2.3689,6.027205 6.41702,6.027205 2.63878,0 4.318,-1.109485 5.24757,-2.758721 l 0.35983,2.608791 z m -6.23711,-8.126233 c 0.03,0.179916 0.03,0.359833 0.03,0.53975 0,2.398888 -1.43933,4.677831 -3.35844,4.677831 -1.67922,0 -2.33892,-0.989541 -2.33892,-2.668763 0,-2.039055 2.09903,-4.37797 4.85775,-4.37797 1.10949,0 2.30893,0.359833 3.50838,1.289402 z"
         style="font-family:'FOT-PopHappiness Std';-inkscape-font-specification:'FOT-PopHappiness Std';fill:#bb9df6"
         id="path5353" /><path
         d="m 153.09421,31.747356 c -0.86959,0.389819 -1.61925,0.599722 -2.18898,0.599722 -0.92957,0 -1.43934,-0.599722 -1.43934,-2.099027 0,-1.499305 0.09,-3.028596 0.23989,-4.557887 l 4.16807,-0.149931 -0.14993,-4.078109 -3.47839,0.119944 c 0.23989,-1.529291 0.53975,-2.99861 0.83961,-4.437942 l -4.79777,-0.509764 c -0.26988,1.499305 -0.56974,3.268485 -0.80963,5.127623 l -2.03905,0.05997 0.14993,4.07811 1.43933,-0.05997 c -0.14993,1.61925 -0.23989,3.088569 -0.23989,4.22804 0,4.347985 1.7392,6.6869 5.1876,6.6869 1.13947,0 2.48884,-0.269874 4.01814,-0.779638 z"
         style="font-family:'FOT-PopHappiness Std';-inkscape-font-specification:'FOT-PopHappiness Std';fill:#bb9df6"
         id="path5355" /><path
         d="m 169.01684,29.768273 c -0.92957,1.709208 -3.14854,3.238499 -5.12762,3.238499 -2.75872,0 -3.59833,-0.809625 -3.59833,-3.028596 0,-0.209903 0.03,-0.449791 0.06,-0.659694 l 1.4993,2.608791 c 2.54882,-0.599722 5.90726,-1.829153 7.7664,-3.298471 1.13947,-0.899583 1.61925,-1.859139 1.61925,-2.788708 0,-2.129013 -2.60879,-4.018137 -6.08718,-4.018137 -0.59972,0 -1.22943,0.05997 -1.85913,0.179917 -4.37797,0.809624 -7.28663,4.497915 -7.28663,7.976302 0,4.347984 2.54882,6.776858 7.85636,6.776858 3.62832,0 6.50699,-1.649235 8.09625,-4.407956 z M 160.4708,28.86869 c 0.41981,-1.319388 1.67922,-2.758721 3.71828,-3.298471 0.44979,-0.119944 0.8696,-0.179916 1.19944,-0.179916 0.83961,0 1.31939,0.329847 1.31939,0.719666 0,0.239889 -0.17992,0.509764 -0.59972,0.779639 -1.04951,0.659694 -3.77825,1.619249 -5.63739,1.979082 z"
         style="font-family:'FOT-PopHappiness Std';-inkscape-font-specification:'FOT-PopHappiness Std';fill:#bb9df6"
         id="path5357" /><path
         d="m 187.54824,28.17901 c 0.29986,-0.839611 0.41981,-1.619249 0.41981,-2.30893 0,-2.338915 -1.49931,-3.868206 -4.13809,-4.018137 -0.38981,-0.02999 -0.74965,-0.02999 -1.10948,-0.02999 -2.66876,0 -4.70782,0.479778 -6.32707,1.469319 -1.82915,1.109486 -2.87866,2.698749 -2.87866,4.168068 0,1.499305 1.13947,2.818693 3.68829,3.298471 1.79916,0.329847 4.43794,0.989541 5.27755,1.289402 0.56974,0.209903 0.83961,0.359833 0.83961,0.479777 0,0.149931 -0.38982,0.239889 -1.01953,0.329848 -0.38982,0.05997 -1.22943,0.08996 -2.21897,0.08996 -1.4993,0 -3.41841,-0.08996 -4.97769,-0.329847 l 0.35983,3.958165 c 1.10949,0.08996 2.48885,0.179916 3.8982,0.179916 2.00906,0 4.07811,-0.14993 5.45747,-0.569735 2.06904,-0.659695 3.11855,-2.129013 3.11855,-3.568346 0,-1.319389 -0.89958,-2.638777 -2.66876,-3.328457 -1.70921,-0.659694 -4.58788,-1.439333 -6.477,-1.76918 -0.47978,-0.08996 -0.71967,-0.269875 -0.71967,-0.53975 0,-0.209903 0.17992,-0.449791 0.50977,-0.68968 0.74965,-0.53975 2.42887,-0.899583 3.68829,-0.899583 0.14993,0 0.32984,0.02999 0.47977,0.02999 0.68969,0.05997 1.0795,0.389819 1.0795,1.049513 0,0.269875 -0.0899,0.629709 -0.26987,1.049514 z"
         style="font-family:'FOT-PopHappiness Std';-inkscape-font-specification:'FOT-PopHappiness Std';fill:#bb9df6"
         id="path5359" /><path
         d="m 199.69263,31.747356 c -0.86959,0.389819 -1.61925,0.599722 -2.18898,0.599722 -0.92957,0 -1.43934,-0.599722 -1.43934,-2.099027 0,-1.499305 0.09,-3.028596 0.23989,-4.557887 l 4.16807,-0.149931 -0.14993,-4.078109 -3.47839,0.119944 c 0.23989,-1.529291 0.53975,-2.99861 0.83961,-4.437942 l -4.79777,-0.509764 c -0.26988,1.499305 -0.56974,3.268485 -0.80963,5.127623 l -2.03905,0.05997 0.14993,4.07811 1.43933,-0.05997 c -0.14993,1.61925 -0.23989,3.088569 -0.23989,4.22804 0,4.347985 1.7392,6.6869 5.1876,6.6869 1.13947,0 2.48884,-0.269874 4.01813,-0.779638 z"
         style="font-family:'FOT-PopHappiness Std';-inkscape-font-specification:'FOT-PopHappiness Std';fill:#bb9df6"
         id="path5361" /><path
         d="m 227.27985,15.045099 c -1.31939,6.087178 -3.8982,12.594161 -6.23711,16.162507 -0.11995,0.179917 -0.32985,0.299861 -0.50976,0.299861 -0.20991,0 -0.41981,-0.119944 -0.53975,-0.359833 -1.46932,-3.328457 -2.69875,-9.895413 -2.99861,-15.802674 l -5.24757,0.299861 c 0.56973,6.83683 2.18898,14.093466 4.49791,18.531409 0.98954,1.889124 2.45886,2.848679 4.04813,2.848679 1.37936,0 2.81869,-0.68968 4.04812,-2.218971 2.99861,-3.68829 6.53697,-11.664593 8.03627,-18.621368 z"
         style="font-family:'FOT-PopHappiness Std';-inkscape-font-specification:'FOT-PopHappiness Std';fill:#bb9df6"
         id="path5363" /><path
         d="m 238.82449,36.515146 0.47978,-13.91355 -4.82776,-0.179917 -0.47978,13.943536 z m -1.34937,-21.53002 c -1.67923,0 -3.4484,1.379361 -3.4484,2.968624 0,1.679222 1.82915,2.758721 3.38842,2.758721 0.35984,0 0.74966,-0.05997 1.04952,-0.209902 1.04951,-0.479778 1.4993,-1.469319 1.4993,-2.45886 0,-1.439333 -0.89958,-2.908652 -2.18898,-3.058583 z"
         style="font-family:'FOT-PopHappiness Std';-inkscape-font-specification:'FOT-PopHappiness Std';fill:#bb9df6"
         id="path5365" /><path
         d="m 258.37545,36.545132 0.44979,-21.290131 -4.70782,-0.179916 -0.06,7.736413 c -1.25941,-0.629708 -2.60879,-0.959555 -3.92818,-0.959555 -4.10809,0 -7.88634,2.99861 -7.88634,8.006289 0,4.138081 3.14854,6.896802 7.07672,6.896802 2.12901,0 3.92818,-0.749652 4.91772,-1.949096 l -0.09,1.709208 z m -4.46793,-8.905872 c -0.06,4.048124 -1.97908,5.187595 -3.95816,5.187595 -1.55928,0 -3.08857,-1.139471 -3.08857,-3.268484 0,-2.158999 1.52929,-3.568346 3.47839,-3.568346 0.80962,0 1.67922,0.239889 2.54881,0.749652 l 1.0795,-2.698749 z"
         style="font-family:'FOT-PopHappiness Std';-inkscape-font-specification:'FOT-PopHappiness Std';fill:#bb9df6"
         id="path5367" /><path
         d="m 274.68791,29.768273 c -0.92957,1.709208 -3.14854,3.238499 -5.12762,3.238499 -2.75872,0 -3.59833,-0.809625 -3.59833,-3.028596 0,-0.209903 0.03,-0.449791 0.06,-0.659694 l 1.4993,2.608791 c 2.54882,-0.599722 5.90726,-1.829153 7.7664,-3.298471 1.13947,-0.899583 1.61925,-1.859139 1.61925,-2.788708 0,-2.129013 -2.60879,-4.018137 -6.08718,-4.018137 -0.59972,0 -1.22943,0.05997 -1.85913,0.179917 -4.37797,0.809624 -7.28663,4.497915 -7.28663,7.976302 0,4.347984 2.54882,6.776858 7.85636,6.776858 3.62832,0 6.50699,-1.649235 8.09625,-4.407956 z m -8.54604,-0.899583 c 0.41981,-1.319388 1.67922,-2.758721 3.71828,-3.298471 0.44979,-0.119944 0.8696,-0.179916 1.19944,-0.179916 0.83961,0 1.31939,0.329847 1.31939,0.719666 0,0.239889 -0.17992,0.509764 -0.59972,0.779639 -1.04951,0.659694 -3.77825,1.619249 -5.63739,1.979082 z"
         style="font-family:'FOT-PopHappiness Std';-inkscape-font-specification:'FOT-PopHappiness Std';fill:#bb9df6"
         id="path5369" /><path
         d="m 295.64818,30.308023 c 0.03,-0.239889 0.03,-0.479777 0.03,-0.719666 0,-4.497915 -3.0286,-7.7664 -7.40657,-7.7664 -5.33752,0 -8.87588,4.198054 -8.87588,8.606011 0,4.347984 3.89819,6.327066 7.91633,6.327066 4.88773,0 8.06626,-2.158999 8.33613,-6.447011 z m -4.58787,-0.05997 c -0.14993,1.649235 -1.64924,2.578804 -3.74826,2.578804 -2.159,0 -3.41842,-0.959555 -3.41842,-2.728735 0,-1.91911 1.61925,-4.288012 4.01814,-4.288012 1.85914,0 3.17852,1.889125 3.17852,3.928179 0,0.179917 0,0.329847 -0.03,0.509764 z"
         style="font-family:'FOT-PopHappiness Std';-inkscape-font-specification:'FOT-PopHappiness Std';fill:#bb9df6"
         id="path5371" /></g></g></svg>
