<?xml version="1.0" encoding="UTF-8" standalone="no"?>
<!-- Created with Inkscape (http://www.inkscape.org/) -->

<svg
   width="1500"
   height="200"
   viewBox="0 0 396.875 52.916668"
   version="1.1"
   id="svg5"
   xml:space="preserve"
   inkscape:version="1.2 (dc2aedaf03, 2022-05-15)"
   sodipodi:docname="learn.svg"
   xmlns:inkscape="http://www.inkscape.org/namespaces/inkscape"
   xmlns:sodipodi="http://sodipodi.sourceforge.net/DTD/sodipodi-0.dtd"
   xmlns="http://www.w3.org/2000/svg"
   xmlns:svg="http://www.w3.org/2000/svg"><sodipodi:namedview
     id="namedview7"
     pagecolor="#989898"
     bordercolor="#666666"
     borderopacity="1.0"
     inkscape:showpageshadow="2"
     inkscape:pageopacity="0"
     inkscape:pagecheckerboard="0"
     inkscape:deskcolor="#d1d1d1"
     inkscape:document-units="px"
     showgrid="false"
     inkscape:zoom="1.4142136"
     inkscape:cx="725.84509"
     inkscape:cy="82.731491"
     inkscape:window-width="1920"
     inkscape:window-height="1027"
     inkscape:window-x="-8"
     inkscape:window-y="-8"
     inkscape:window-maximized="1"
     inkscape:current-layer="layer1" /><defs
     id="defs2" /><g
     inkscape:label="Layer 1"
     inkscape:groupmode="layer"
     id="layer1"><path
       style="fill:#000000;stroke-width:0.264583"
       id="path461"
       d="" /><path
       style="fill:#000000;stroke-width:0.264583"
       id="path493"
       d="" /><path
       style="fill:#000000;stroke-width:0.264583"
       id="path487"
       d="" /><path
       style="fill:#000000;stroke-width:0.264583"
       id="path485"
       d="" /><path
       style="fill:#000000;stroke-width:0.264583"
       id="path481"
       d="" /><path
       style="fill:#000000;stroke-width:0.264583"
       id="path479"
       d="" /><g
       aria-label="Learn to Play"
       transform="scale(0.98401545,1.0162442)"
       id="text993"
       style="font-size:29.0473px;line-height:1.25;font-family:mini-wakuwaku;-inkscape-font-specification:mini-wakuwaku;font-variant-ligatures:none;stroke-width:1.26683"><path
         d="m 120.8448,34.786476 q 0,0.907728 -0.19857,1.106293 l -10.94947,-0.113466 -0.31203,-0.312031 v -22.15424 q 0.19857,-0.198565 0.6808,-0.198565 0.5106,0 0.70916,0.198565 v 20.991213 l 0.5106,0.482231 z"
         style="font-family:SistersFL;-inkscape-font-specification:SistersFL;fill:#ffffff"
         id="path2713" /><path
         d="m 125.78057,31.155563 q 0,1.730357 0.22693,2.240954 0.2553,0.510597 0.9361,1.163027 0.70916,0.652429 1.98565,0.879361 l 2.69482,-0.425497 1.61689,-1.361592 q 0.5106,0 0.73753,0.226932 0.22693,0.198565 0.22693,0.368764 0,0.141833 -0.11346,0.340398 -0.0851,0.170199 -0.62407,0.65243 l -2.26932,1.106294 -0.87936,0.255298 -2.12749,-0.141832 q -0.0851,-0.0851 -0.59569,-0.226932 -0.5106,-0.113467 -0.70916,-0.113467 -0.19857,0 -0.7659,-0.425497 -0.53896,-0.397131 -1.53179,-1.985655 v -4.765573 q 0.56733,-1.645257 1.24812,-2.581352 0.6808,-0.964461 1.98566,-1.730357 h 3.43235 q 0.85099,0.340398 1.33322,0.822629 0.48223,0.48223 1.2765,2.014022 l 0.11346,2.042388 q -0.65243,0.765896 -1.04956,1.191393 -0.36876,0.425498 -1.21976,0.624063 l -2.07075,0.255299 -2.43952,-0.141833 z m -0.19856,-1.61689 q 0.65243,0.652429 1.21976,0.709162 0.56733,0.05673 2.49625,0.397131 l 2.29768,-0.48223 0.96447,-0.680796 v -2.269321 q -1.16303,-1.163027 -1.95729,-1.418325 h -2.21259 q -1.75872,1.70199 -2.80828,3.744379 z"
         style="font-family:SistersFL;-inkscape-font-specification:SistersFL;fill:#ffffff"
         id="path2715" /><path
         d="m 146.26119,31.893092 q -0.79426,0.56733 -0.9361,0.992828 -0.11346,0.397131 -0.11346,0.595697 0,0.198565 -0.90773,1.276492 -0.87936,1.077927 -1.84382,1.588525 l -1.84383,0.113466 q -0.11346,-0.113466 -0.48223,-0.113466 -0.3404,0 -0.99283,-0.538964 -0.62406,-0.510597 -1.19139,-1.645257 v -3.375614 q 0.56733,-2.127488 0.96446,-2.865017 0.4255,-0.737529 0.851,-1.389959 l 1.70199,-1.673624 q 1.30486,-0.453864 2.07075,-0.453864 0.7659,0 2.09912,0.992828 l 1.1063,1.645257 0.3404,2.127488 q 0,1.418325 0.62406,2.723184 l 0.93609,2.184221 q 0.3404,0.964461 0.56733,1.13466 0.22694,0.198566 0.22694,0.453864 0,0.255299 -0.22694,0.453864 -0.22693,0.226933 -0.70916,0.226933 -0.85099,-1.106294 -1.27649,-1.87219 -0.39713,-0.794262 -0.96446,-2.581352 z m -5.6733,3.347248 q 1.30486,0 2.35442,-0.737529 l 1.30486,-1.78709 q 0.62406,-1.645257 1.07792,-3.091949 v -2.127488 l -0.51059,-1.531791 q -1.24813,-0.397131 -2.07076,-0.0851 -0.82263,0.283666 -2.04239,1.503425 l -1.19139,2.014022 -0.39713,1.333226 v 3.091949 q 0.65243,1.021194 1.47506,1.418325 z"
         style="font-family:SistersFL;-inkscape-font-specification:SistersFL;fill:#ffffff"
         id="path2717" /><path
         d="m 155.42357,25.482262 q 1.84382,-0.992827 2.83665,-1.531791 h 2.72318 q 0.5957,0.198566 0.82263,0.538964 0.22693,0.340398 0.73753,0.652429 0,0.680796 -0.11347,0.794262 -0.0851,0.0851 -0.48223,0.0851 -0.39713,0 -0.59569,-0.0851 -0.1702,-0.113466 -0.70917,-0.595696 h -2.24095 l -0.79426,0.48223 -1.87219,1.418326 q -0.19857,0.141832 -0.45387,0.709162 l -0.22693,7.999354 -0.19856,0.170199 -0.9361,-0.170199 -0.28366,-0.453864 V 23.666806 q 0.22693,-0.368764 0.3404,-0.510597 0.11346,-0.141832 0.48223,-0.141832 0.39713,0 0.51059,0.141832 0.11347,0.141833 0.19857,0.340398 0.11346,0.170199 0.2553,1.985655 z"
         style="font-family:SistersFL;-inkscape-font-specification:SistersFL;fill:#ffffff"
         id="path2719" /><path
         d="m 168.61399,25.368796 0.65243,1.503425 q 1.13466,-0.879362 2.12749,-1.304859 h 2.24095 l 1.1063,0.198565 1.41832,1.446692 q 0.19857,0.397131 0.45387,1.276493 v 7.687323 q -0.22693,0.198565 -0.73753,0.198565 -0.48223,0 -0.6808,-0.198565 l -0.22693,-7.744056 q -0.2553,-0.794262 -0.5957,-1.106294 -0.34039,-0.340398 -0.73753,-0.453864 -0.39713,-0.141832 -1.38995,-0.141832 -0.99283,0 -1.64526,0.48223 -0.62406,0.482231 -0.9361,0.936095 -0.31203,0.453864 -0.31203,1.219759 l -0.59569,6.893061 -0.0851,0.0851 q -0.39714,-0.05673 -0.96447,-0.65243 v -9.474412 q 0.62407,-0.794263 0.90773,-0.850996 z"
         style="font-family:SistersFL;-inkscape-font-specification:SistersFL;fill:#ffffff"
         id="path2721" /><path
         d="m 200.27101,27.411185 h -3.85784 q -0.14184,-0.397131 -0.14184,-0.65243 0,-0.283665 0.14184,-0.397131 0.14183,-0.141832 0.51059,-0.340398 h 3.31888 l 0.2553,-3.57418 v -0.340398 h 1.16303 v 3.914578 h 4.48191 q 0.45386,0.453864 0.45386,0.709163 0,0.255298 -0.45386,0.680796 h -4.48191 v 7.119992 q 0.90773,0.879362 1.47506,1.13466 h 3.00685 q 0.19856,0.198566 0.19856,0.567331 0,0.397131 -0.19856,0.595696 l -3.46072,-0.113466 q -0.3404,-0.226932 -0.90773,-0.397131 -0.53896,-0.170199 -0.87936,-0.538964 -0.31203,-0.340398 -0.62406,-1.13466 z"
         style="font-family:SistersFL;-inkscape-font-specification:SistersFL;fill:#ffffff"
         id="path2723" /><path
         d="m 215.19179,36.715398 q -0.68079,-0.368764 -1.13466,-0.48223 -0.45386,-0.0851 -0.90773,-0.510598 -0.42549,-0.425497 -1.41832,-2.014021 V 28.74441 q 0.90773,-2.212587 1.38996,-2.666451 0.51059,-0.453864 1.64525,-1.077927 l 1.90056,-0.368765 2.09912,0.453864 1.67363,1.446692 0.68079,1.957289 v 4.084776 l -0.45386,1.333226 -0.90773,1.730357 q -0.87936,0.737529 -2.07076,1.191393 z m 0.36877,-1.049561 h 2.26932 l 1.50342,-1.560157 q 0.48223,-1.418326 0.851,-2.382787 v -2.382786 l -0.73753,-2.184221 q -1.1063,-0.737529 -1.64526,-1.13466 h -2.24095 q -0.79427,0.538964 -1.47506,1.191393 -0.6808,0.65243 -0.79426,1.021194 -0.11347,0.368765 -0.36877,0.850995 v 3.801112 q 0.48223,1.21976 0.90773,1.78709 0.45386,0.538963 0.82263,0.624063 0.39713,0.113466 0.90773,0.368764 z"
         style="font-family:SistersFL;-inkscape-font-specification:SistersFL;fill:#ffffff"
         id="path2725" /><path
         d="m 239.84228,28.82951 0.2553,-2.524619 q -0.22694,-0.425498 0,-1.049561 l -0.2553,-3.48908 v -2.042388 l 0.2553,-0.936095 -0.2553,-2.552985 v -2.694818 q 0.2553,-0.226932 1.56016,-0.425497 h 4.16987 q 1.56016,0.538963 2.83665,1.106293 l 1.44669,1.21976 q 0.90773,1.248126 1.24813,1.985655 v 1.957289 q -0.56733,1.333226 -1.58852,2.893383 l -1.92893,1.475059 q -1.10629,0.425497 -2.01402,0.652429 l -3.03521,0.226932 q -0.79427,0 -1.2765,0.510597 l 0.22694,7.460391 -0.22694,3.857845 v 0.141832 h -0.93609 V 36.4601 l -0.22693,-7.403658 z m 1.16302,-14.52365 0.2553,2.581352 q -0.22693,0.992827 0,1.446691 l -0.36876,1.928923 0.5106,3.48908 1.41832,-0.141833 3.06358,-0.453864 1.73036,-0.850995 1.58852,-1.560158 q 0.70917,-1.730357 0.65243,-2.524619 -0.0567,-0.794262 -0.25529,-1.219759 -0.19857,-0.453864 -1.04956,-1.049561 -0.851,-0.624063 -1.41833,-0.907728 -0.53896,-0.312032 -0.7659,-0.312032 -0.22693,0 -0.45386,-0.226932 -0.19857,-0.226932 -1.21976,-0.48223 h -2.41115 z"
         style="font-family:SistersFL;-inkscape-font-specification:SistersFL;fill:#ffffff"
         id="path2727" /><path
         d="m 259.6421,36.006235 -0.11347,-0.0851 V 13.539964 q 0.6808,-0.652429 0.82263,-0.652429 0.14183,0 0.5957,0.425497 v 22.608104 l -0.22693,0.198565 z"
         style="font-family:SistersFL;-inkscape-font-specification:SistersFL;fill:#ffffff"
         id="path2729" /><path
         d="m 276.97403,31.893092 q -0.79426,0.56733 -0.93609,0.992828 -0.11347,0.397131 -0.11347,0.595697 0,0.198565 -0.90772,1.276492 -0.87937,1.077927 -1.84383,1.588525 L 271.3291,36.4601 q -0.11347,-0.113466 -0.48223,-0.113466 -0.3404,0 -0.99283,-0.538964 -0.62406,-0.510597 -1.19139,-1.645257 v -3.375614 q 0.56733,-2.127488 0.96446,-2.865017 0.4255,-0.737529 0.85099,-1.389959 l 1.702,-1.673624 q 1.30485,-0.453864 2.07075,-0.453864 0.7659,0 2.09912,0.992828 l 1.10629,1.645257 0.3404,2.127488 q 0,1.418325 0.62407,2.723184 l 0.93609,2.184221 q 0.3404,0.964461 0.56733,1.13466 0.22693,0.198566 0.22693,0.453864 0,0.255299 -0.22693,0.453864 -0.22693,0.226933 -0.70916,0.226933 -0.851,-1.106294 -1.27649,-1.87219 -0.39714,-0.794262 -0.96447,-2.581352 z m -5.6733,3.347248 q 1.30486,0 2.35442,-0.737529 l 1.30486,-1.78709 q 0.62407,-1.645257 1.07793,-3.091949 v -2.127488 l -0.5106,-1.531791 q -1.24812,-0.397131 -2.07075,-0.0851 -0.82263,0.283666 -2.04239,1.503425 l -1.19139,2.014022 -0.39713,1.333226 v 3.091949 q 0.65242,1.021194 1.47505,1.418325 z"
         style="font-family:SistersFL;-inkscape-font-specification:SistersFL;fill:#ffffff"
         id="path2731" /><path
         d="m 289.51203,30.644966 q 0.6808,-0.652429 0.79426,-0.907728 0.14183,-0.283665 0.14183,-0.482231 0,-0.226932 0.22694,-0.453864 0.2553,-0.255298 0.2553,-0.48223 0,-0.226932 0.22693,-0.453864 0.22693,-0.226932 0.22693,-0.56733 0,-0.368765 0.22693,-0.56733 0.22693,-0.226932 0.56733,-1.389959 0.36877,-1.163027 1.33323,-1.985655 l 0.42549,0.340398 q -0.42549,2.155854 -1.44669,4.680473 l -0.96446,2.212587 -0.93609,2.042388 -0.56733,1.049561 -1.1914,2.240954 q -0.82262,1.616891 -1.21976,2.297687 -0.39713,0.680796 -0.53896,0.822628 -0.11347,0.141833 -1.30486,0.141833 v -0.765896 l 0.90773,-1.673623 q 0.45386,-1.021195 0.6808,-1.248127 0.25529,-0.226932 0.53896,-0.907728 0.31203,-0.680796 0.5957,-1.163026 0.31203,-0.510597 0.31203,-1.333226 l -2.15586,-2.382786 -1.19139,-1.276493 -1.36159,-1.928922 q -0.6808,-1.333226 -0.6808,-1.843823 0,-0.510597 0.0851,-0.595697 0.11347,-0.113466 0.851,-0.113466 0.36876,0.482231 0.65243,0.907728 0.28366,0.425498 0.28366,0.879362 l 1.47506,2.184221 z"
         style="font-family:SistersFL;-inkscape-font-specification:SistersFL;fill:#ffffff"
         id="path2733" /></g></g></svg>
