<?xml version="1.0" encoding="UTF-8" standalone="no"?>
<!-- Created with Inkscape (http://www.inkscape.org/) -->

<svg
   width="128"
   height="128"
   viewBox="0 0 33.866666 33.866667"
   version="1.1"
   id="svg5"
   xml:space="preserve"
   inkscape:version="1.2 (dc2aedaf03, 2022-05-15)"
   sodipodi:docname="lsfavicon-mask.svg"
   xmlns:inkscape="http://www.inkscape.org/namespaces/inkscape"
   xmlns:sodipodi="http://sodipodi.sourceforge.net/DTD/sodipodi-0.dtd"
   xmlns="http://www.w3.org/2000/svg"
   xmlns:svg="http://www.w3.org/2000/svg"><sodipodi:namedview
     id="namedview7"
     pagecolor="#989898"
     bordercolor="#666666"
     borderopacity="1.0"
     inkscape:showpageshadow="2"
     inkscape:pageopacity="0"
     inkscape:pagecheckerboard="0"
     inkscape:deskcolor="#d1d1d1"
     inkscape:document-units="px"
     showgrid="false"
     inkscape:zoom="2.8284271"
     inkscape:cx="110.30866"
     inkscape:cy="63.286057"
     inkscape:window-width="1920"
     inkscape:window-height="1027"
     inkscape:window-x="-8"
     inkscape:window-y="-8"
     inkscape:window-maximized="1"
     inkscape:current-layer="g5539" /><defs
     id="defs2" /><g
     inkscape:label="Layer 1"
     inkscape:groupmode="layer"
     id="layer1"
     transform="translate(-1.1903467,-8.362762)"><path
       style="fill:#000000;stroke-width:0.264583"
       id="path461"
       d="" /><path
       style="fill:#000000;stroke-width:0.264583"
       id="path493"
       d="" /><path
       style="fill:#000000;stroke-width:0.264583"
       id="path487"
       d="" /><path
       style="fill:#000000;stroke-width:0.264583"
       id="path485"
       d="" /><path
       style="fill:#000000;stroke-width:0.264583"
       id="path481"
       d="" /><path
       style="fill:#000000;stroke-width:0.264583"
       id="path479"
       d="" /><g
       id="g4247"
       transform="matrix(0.31363928,0,0,0.24211909,65.178368,4.5131999)"
       style="fill:#ffffff"><g
         id="g826"
         style="fill:#ffffff;stroke:#000000;stroke-opacity:1"><g
           aria-label="Lunar Shift"
           id="text723"
           style="font-size:50.8px;line-height:1.25;font-family:'Close and Open', Italics;-inkscape-font-specification:'Close and Open, Italics';font-variant-ligatures:none;white-space:pre;inline-size:365.262;fill:#ffffff;stroke:#000000;stroke-width:0.264583;stroke-opacity:1" /></g><g
         id="g5539"
         transform="matrix(1.0594664,0,-0.20164668,0.94387139,-1.6871824,6.5566907)"
         style="font-size:83.1799px;line-height:1.25;font-family:'A Friend In Deed';-inkscape-font-specification:'A Friend In Deed';font-variant-ligatures:none;stroke:#000000;stroke-width:0.274762;stroke-dasharray:none;stroke-opacity:1"><path
           style="font-size:37.2696px;line-height:1.25;font-family:'Midnight Moon';-inkscape-font-specification:'Midnight Moon';font-variant-ligatures:none;fill:#ffffff;stroke:none;stroke-width:0.282015;stroke-dasharray:none;stroke-opacity:0"
           d="m -128.13289,149.0177 c -6.6904,-4.95687 -10.55716,-8.53265 -15.39134,-14.23319 -12.78742,-15.07902 -21.98324,-36.580391 -24.64708,-57.629045 -0.70817,-5.59533 -0.94315,-10.861086 -0.75703,-16.963033 0.0909,-2.981941 1.25006,-11.858731 1.90504,-14.58893 1.82593,-7.611845 4.1017,-13.2635 7.42341,-18.435309 1.80727,-2.813874 2.72822,-4.019129 4.75325,-6.220492 6.80093,-7.393223 15.98177,-11.2827891 25.6809,-10.879921 1.72322,0.07156 2.70498,0.158111 2.69498,0.237574 -0.004,0.03592 -0.33917,0.124565 -0.74365,0.196513 -4.79964,0.853987 -11.15694,4.478802 -15.34537,8.749665 -4.91808,5.014814 -8.86326,12.272542 -11.17075,20.550139 -1.65499,5.936938 -3.00863,14.085564 -2.9545,20.84559 0.10806,13.54815 3.50374,27.829317 9.19432,40.942769 6.88884,15.87475 16.48758,28.4472 28.26824,37.02591 3.99968,2.91254 9.6304,5.84774 13.804,7.196 6.632458,2.14241 12.930413,2.46536 18.982058,0.9733 5.475544,-1.34997 10.528839,-4.34155 14.68173,-8.69166 0.505248,-0.52922 0.914033,-0.92575 0.908368,-0.88117 -0.03754,0.28316 -1.5,2.78248 -2.602477,4.44044 -5.10367,7.67516 -11.611789,12.69211 -19.500299,15.03236 -6.523038,1.93518 -14.19151,1.64367 -21.57929,-0.82031 -3.52693,-1.17629 -5.4517,-2.06525 -9.40125,-4.34192 -2.03616,-1.1737 -3.92752,-2.3011 -4.20309,-2.50464 z"
           id="path4043"
           sodipodi:nodetypes="cscsssssscsscsscscsccsscc" /><path
           d="m -133.86539,68.111626 h 18.16924 l 0.0186,12.746507 h -29.52504 l -0.0496,-43.338124 h 11.35578 z"
           style="font-size:50.8px;line-height:1.25;font-family:'Sheeping Cats';-inkscape-font-specification:'Sheeping Cats';font-variant-ligatures:none;white-space:pre;inline-size:365.262;fill:#ffffff;stroke:none;stroke-width:0.256662;stroke-opacity:0"
           id="path791" /><path
           d="m -115.09174,125.59312 0.54144,-12.81021 h 20.440393 l 0.01445,-2.5493 h -20.440393 l -0.0455,-28.042319 h 31.796186 l 0.01863,12.746507 h -20.440396 l 0.009,2.549298 h 20.440397 l 0.0227,28.042324 z"
           style="font-size:50.8px;line-height:1.25;font-family:'Sheeping Cats';-inkscape-font-specification:'Sheeping Cats';font-variant-ligatures:none;white-space:pre;inline-size:365.262;fill:#ffffff;stroke:none;stroke-width:0.256662;stroke-opacity:0"
           id="path801"
           sodipodi:nodetypes="ccccccccccccc" /></g></g></g></svg>
