<?xml version="1.0" encoding="UTF-8" standalone="no"?>
<!-- Created with Inkscape (http://www.inkscape.org/) -->

<svg
   width="128"
   height="128"
   viewBox="0 0 33.866666 33.866667"
   version="1.1"
   id="svg5"
   xml:space="preserve"
   inkscape:version="1.2 (dc2aedaf03, 2022-05-15)"
   sodipodi:docname="lsfavicon.svg"
   xmlns:inkscape="http://www.inkscape.org/namespaces/inkscape"
   xmlns:sodipodi="http://sodipodi.sourceforge.net/DTD/sodipodi-0.dtd"
   xmlns="http://www.w3.org/2000/svg"
   xmlns:svg="http://www.w3.org/2000/svg"><sodipodi:namedview
     id="namedview7"
     pagecolor="#989898"
     bordercolor="#666666"
     borderopacity="1.0"
     inkscape:showpageshadow="2"
     inkscape:pageopacity="0"
     inkscape:pagecheckerboard="0"
     inkscape:deskcolor="#d1d1d1"
     inkscape:document-units="px"
     showgrid="false"
     inkscape:zoom="2.8284271"
     inkscape:cx="41.012193"
     inkscape:cy="82.37794"
     inkscape:window-width="1920"
     inkscape:window-height="1027"
     inkscape:window-x="-8"
     inkscape:window-y="-8"
     inkscape:window-maximized="1"
     inkscape:current-layer="g5539" /><defs
     id="defs2" /><g
     inkscape:label="Layer 1"
     inkscape:groupmode="layer"
     id="layer1"
     transform="translate(-1.1903467,-8.362762)"><path
       style="fill:#000000;stroke-width:0.264583"
       id="path461"
       d="" /><path
       style="fill:#000000;stroke-width:0.264583"
       id="path493"
       d="" /><path
       style="fill:#000000;stroke-width:0.264583"
       id="path487"
       d="" /><path
       style="fill:#000000;stroke-width:0.264583"
       id="path485"
       d="" /><path
       style="fill:#000000;stroke-width:0.264583"
       id="path481"
       d="" /><path
       style="fill:#000000;stroke-width:0.264583"
       id="path479"
       d="" /><g
       id="g4247"
       transform="matrix(0.31363928,0,0,0.24211909,65.178368,4.5131999)"
       style="fill:#ffffff"><g
         id="g826"
         style="fill:#ffffff;stroke:#000000;stroke-opacity:1"><g
           aria-label="Lunar Shift"
           id="text723"
           style="font-size:50.8px;line-height:1.25;font-family:'Close and Open', Italics;-inkscape-font-specification:'Close and Open, Italics';font-variant-ligatures:none;white-space:pre;inline-size:365.262;fill:#ffffff;stroke:#000000;stroke-width:0.264583;stroke-opacity:1" /></g><g
         id="g5539"
         transform="matrix(1.0594664,0,-0.20164668,0.94387139,-1.6871824,6.5566907)"
         style="font-size:83.1799px;line-height:1.25;font-family:'A Friend In Deed';-inkscape-font-specification:'A Friend In Deed';font-variant-ligatures:none;stroke:#000000;stroke-width:0.274762;stroke-dasharray:none;stroke-opacity:1"><g
           id="g816"
           transform="matrix(0.97006372,0,0,0.97006372,-252.75502,-2.4189711)"><path
             style="font-size:37.2696px;line-height:1.25;font-family:'Midnight Moon';-inkscape-font-specification:'Midnight Moon';font-variant-ligatures:none;fill:#ffffff;stroke:#000000;stroke-width:0.290718;stroke-dasharray:none;stroke-opacity:1"
             d="M 128.46798,156.11002 C 121.57112,151.00018 117.58503,147.31406 112.60166,141.4376 99.41962,125.89324 89.94002,103.72833 87.19397,82.030113 86.46395,76.26211 86.22172,70.833852 86.41358,64.543598 c 0.0937,-3.073964 1.28864,-12.224692 1.96383,-15.039146 1.88228,-7.846747 4.22828,-13.672813 7.6525,-19.004225 1.86304,-2.90071 2.81241,-4.143159 4.89993,-6.412457 7.01081,-7.621378 16.47497,-11.630977 26.47342,-11.215676 1.7764,0.07377 2.78846,0.16299 2.77815,0.244905 -0.004,0.03703 -0.34964,0.128409 -0.7666,0.202578 -4.94776,0.880341 -11.50125,4.617018 -15.81893,9.01968 -5.06985,5.169572 -9.13678,12.651274 -11.51548,21.184319 -1.70607,6.120153 -3.10148,14.520246 -3.04568,21.488887 0.1114,13.966248 3.61187,28.688133 9.47806,42.206267 7.10143,16.36465 16.99639,29.32509 29.1406,38.16854 4.12311,3.00242 9.9276,6.0282 14.22999,7.41806 6.83714,2.20853 13.32945,2.54145 19.56785,1.00334 5.64452,-1.39163 10.85376,-4.47553 15.13481,-8.95989 0.52084,-0.54555 0.94224,-0.95431 0.9364,-0.90836 -0.0387,0.2919 -1.54629,2.86835 -2.68279,4.57747 -5.26117,7.91202 -11.97013,13.08379 -20.10208,15.49626 -6.72434,1.9949 -14.62946,1.6944 -22.24523,-0.84562 -3.63577,-1.21259 -5.61994,-2.12898 -9.69137,-4.47591 -2.099,-1.20992 -4.04873,-2.37211 -4.3328,-2.58194 z"
             id="path4043"
             sodipodi:nodetypes="cscsssssscsscsscscsccsscc" /><path
             d="m 122.55858,72.70718 h 18.72994 l 0.0192,13.139865 h -30.43619 l -0.0511,-44.675543 h 11.70622 z"
             style="font-size:50.8px;line-height:1.25;font-family:'Sheeping Cats';-inkscape-font-specification:'Sheeping Cats';font-variant-ligatures:none;white-space:pre;inline-size:365.262;fill:#ffffff;stroke:#000000;stroke-width:0.264583;stroke-opacity:1"
             id="path791" /><path
             d="m 141.91159,131.96256 0.55814,-13.20554 h 21.07119 l 0.0149,-2.62797 h -21.07119 l -0.0469,-28.907705 h 32.77742 l 0.0192,13.139865 h -21.07119 l 0.009,2.62797 h 21.07119 l 0.0234,28.90771 z"
             style="font-size:50.8px;line-height:1.25;font-family:'Sheeping Cats';-inkscape-font-specification:'Sheeping Cats';font-variant-ligatures:none;white-space:pre;inline-size:365.262;fill:#ffffff;stroke:#000000;stroke-width:0.264583;stroke-opacity:1"
             id="path801"
             sodipodi:nodetypes="ccccccccccccc" /></g></g></g></g></svg>
