<?xml version="1.0" encoding="UTF-8" standalone="no"?>
<!-- Created with Inkscape (http://www.inkscape.org/) -->

<svg
   width="791.00208"
   height="136.78542"
   viewBox="0 0 209.28596 36.191142"
   version="1.1"
   id="svg5"
   xml:space="preserve"
   inkscape:version="1.2 (dc2aedaf03, 2022-05-15)"
   sodipodi:docname="lsvector.svg"
   xmlns:inkscape="http://www.inkscape.org/namespaces/inkscape"
   xmlns:sodipodi="http://sodipodi.sourceforge.net/DTD/sodipodi-0.dtd"
   xmlns="http://www.w3.org/2000/svg"
   xmlns:svg="http://www.w3.org/2000/svg"><sodipodi:namedview
     id="namedview7"
     pagecolor="#989898"
     bordercolor="#666666"
     borderopacity="1.0"
     inkscape:showpageshadow="2"
     inkscape:pageopacity="0"
     inkscape:pagecheckerboard="0"
     inkscape:deskcolor="#d1d1d1"
     inkscape:document-units="px"
     showgrid="false"
     inkscape:zoom="0.70710678"
     inkscape:cx="803.98041"
     inkscape:cy="164.04877"
     inkscape:window-width="1920"
     inkscape:window-height="1027"
     inkscape:window-x="-8"
     inkscape:window-y="-8"
     inkscape:window-maximized="1"
     inkscape:current-layer="layer1" /><defs
     id="defs2" /><g
     inkscape:label="Layer 1"
     inkscape:groupmode="layer"
     id="layer1"
     transform="translate(-1.1903467,-8.362762)"><path
       style="fill:#000000;stroke-width:0.264583"
       id="path461"
       d="" /><path
       style="fill:#000000;stroke-width:0.264583"
       id="path493"
       d="" /><path
       style="fill:#000000;stroke-width:0.264583"
       id="path487"
       d="" /><path
       style="fill:#000000;stroke-width:0.264583"
       id="path485"
       d="" /><path
       style="fill:#000000;stroke-width:0.264583"
       id="path481"
       d="" /><path
       style="fill:#000000;stroke-width:0.264583"
       id="path479"
       d="" /><g
       id="g841"
       style="fill:#ffffff"
       transform="matrix(0.31363928,0,0,0.24211909,64.317172,4.5131999)"><g
         id="g4247"
         transform="translate(2.7458177)"
         style="fill:#ffffff"><g
           id="g826"
           style="fill:#ffffff;stroke:#000000;stroke-opacity:1"><g
             aria-label="Lunar Shift"
             id="text723"
             style="font-size:50.8px;line-height:1.25;font-family:'Close and Open', Italics;-inkscape-font-specification:'Close and Open, Italics';font-variant-ligatures:none;white-space:pre;inline-size:365.262;fill:#ffffff;stroke:#000000;stroke-width:0.264583;stroke-opacity:1" /></g><g
           aria-label="N"
           transform="matrix(1.0594664,0,-0.20164668,0.94387139,0,0)"
           id="text814"
           style="font-size:83.1799px;line-height:1.25;font-family:'A Friend In Deed';-inkscape-font-specification:'A Friend In Deed';font-variant-ligatures:none;stroke:#000000;stroke-width:0.274762;stroke-dasharray:none;stroke-opacity:1"><g
             id="g5539"><path
               style="font-size:37.2696px;line-height:1.25;font-family:'Midnight Moon';-inkscape-font-specification:'Midnight Moon';font-variant-ligatures:none;opacity:1;fill:#ffffff;stroke:#000000;stroke-width:0.170127;stroke-dasharray:none;stroke-opacity:1"
               d="m 180.67346,46.085429 c -2.42703,-1.976358 -3.73328,-3.335781 -5.19944,-5.411092 -3.87829,-5.489602 -5.22121,-12.69298 -3.59937,-19.306848 0.43113,-1.758157 1.03674,-3.382951 1.95091,-5.234092 0.44673,-0.90463 2.18819,-3.536205 2.86208,-4.32497 1.87875,-2.199105 3.69994,-3.7683441 5.94059,-5.1187513 1.21909,-0.7347285 1.8093,-1.0392876 3.04616,-1.5718673 4.15395,-1.7886586 8.93511,-2.3426365 13.37396,-1.5495769 0.78864,0.140897 1.23174,0.2351524 1.21632,0.2587357 -0.007,0.010717 -0.17404,0.01462 -0.37119,0.00866 -2.3395,-0.070675 -5.77661,0.5974704 -8.29656,1.6127896 -2.95893,1.1921757 -5.77146,3.1367125 -7.96364,5.5059232 -1.5723,1.699268 -4.34389,4.008669 -5.23604,6.077433 -1.78822,4.146098 -1.11395,8.829518 -0.25686,13.228452 1.03757,5.325221 3.77869,9.828863 8.07256,13.263232 1.45782,1.165998 3.66822,2.451587 5.41887,3.15175 2.78206,1.112609 5.65603,1.64631 8.66214,1.608558 2.71994,-0.03415 5.467,-0.598933 7.98124,-1.640918 0.30587,-0.126762 0.54906,-0.21965 0.5404,-0.206429 -0.0558,0.08391 -1.07248,0.74637 -1.80821,1.176682 -3.40588,1.992021 -7.10175,3.075016 -11.07397,3.244984 -3.28463,0.140555 -6.79781,-0.478213 -9.88617,-1.741232 -1.47439,-0.602961 -2.2455,-1.007475 -3.76638,-1.975763 -0.78408,-0.499195 -1.50736,-0.974236 -1.60741,-1.055453 z"
               id="path4043"
               sodipodi:nodetypes="cscsssssscsscsscscsccsscc"
               transform="matrix(1.2427192,0,0.34391624,1.8069611,-105.60217,47.155937)" /><path
               d="m -37.275,96.136078 h 19.843749 l -2.629296,12.402342 h -32.246094 l 8.954492,-42.167966 h 12.402344 z"
               style="font-size:50.8px;line-height:1.25;font-family:'Sheeping Cats';-inkscape-font-specification:'Sheeping Cats';font-variant-ligatures:none;white-space:pre;inline-size:365.262;fill:#ffffff;stroke:#000000;stroke-width:0.264583;stroke-opacity:1"
               id="path791"
               transform="matrix(0.94387138,0,0.20164668,1.0594664,5.1488225e-7,1.7763244e-7)" /><path
               d="M 7.3734371,96.136078 13.698632,66.370454 H 26.100976 L 17.146484,108.53842 H -17.580078 L -8.6255861,66.370454 H 3.7767575 l -6.3251952,29.765624 z"
               style="font-size:50.8px;line-height:1.25;font-family:'Sheeping Cats';-inkscape-font-specification:'Sheeping Cats';font-variant-ligatures:none;white-space:pre;inline-size:365.262;fill:#ffffff;stroke:#000000;stroke-width:0.264583;stroke-opacity:1"
               id="path793"
               transform="matrix(0.94387138,0,0.20164668,1.0594664,5.1488225e-7,1.7763244e-7)" /><path
               d="m 82.333203,93.655609 h -9.921875 l -3.175,14.882391 -12.402344,4.2e-4 8.954492,-42.167966 H 100.51504 L 91.56,108.538 79.158,108.53842 Z M 75.040625,81.253266 H 84.9625 l 0.520898,-2.480469 h -9.921875 z"
               style="font-size:50.8px;line-height:1.25;font-family:'Sheeping Cats';-inkscape-font-specification:'Sheeping Cats';font-variant-ligatures:none;white-space:pre;inline-size:365.262;fill:#ffffff;stroke:#000000;stroke-width:0.264583;stroke-opacity:1"
               id="path797"
               sodipodi:nodetypes="cccccccccccccc"
               transform="matrix(0.94387138,0,0.20164668,1.0594664,5.1488225e-7,1.7763244e-7)" /><path
               d="m 122.11992,93.655609 9.42368,14.863241 -14.08389,0.0177 h -0.0992 l -8.83354,-9.820784 -2.08359,9.822654 H 94.041016 l 8.954494,-42.167966 h 34.72656 l -5.77949,27.285155 z m -9.87226,-12.402343 h 9.92187 l 0.5209,-2.480469 h -9.92188 z"
               style="font-size:50.8px;line-height:1.25;font-family:'Sheeping Cats';-inkscape-font-specification:'Sheeping Cats';font-variant-ligatures:none;white-space:pre;inline-size:365.262;fill:#ffffff;stroke:#000000;stroke-width:0.264583;stroke-opacity:1"
               id="path799"
               sodipodi:nodetypes="cccccccccccccccc"
               transform="matrix(0.94387138,0,0.20164668,1.0594664,5.1488225e-7,1.7763244e-7)" /><path
               d="m 143.22395,108.60041 3.25418,-12.464332 h 22.32422 l 0.5457,-2.480469 h -22.32422 l 5.77949,-27.285155 h 34.72657 l -2.6293,12.402343 h -22.32422 l -0.5209,2.480469 h 22.32422 l -5.8043,27.285154 z"
               style="font-size:50.8px;line-height:1.25;font-family:'Sheeping Cats';-inkscape-font-specification:'Sheeping Cats';font-variant-ligatures:none;white-space:pre;inline-size:365.262;fill:#ffffff;stroke:#000000;stroke-width:0.264583;stroke-opacity:1"
               id="path801"
               sodipodi:nodetypes="ccccccccccccc"
               transform="matrix(0.94387138,0,0.20164668,1.0594664,5.1488225e-7,1.7763244e-7)" /><path
               d="m 215.782,108.49937 -12.40192,0.0391 3.175,-14.882811 h -9.92187 l -3.175,14.882811 h -12.40235 l 8.95449,-42.167966 h 12.40235 l -3.1502,14.882812 h 9.92188 l 3.15019,-14.882812 h 12.40235 z"
               style="font-size:50.8px;line-height:1.25;font-family:'Sheeping Cats';-inkscape-font-specification:'Sheeping Cats';font-variant-ligatures:none;white-space:pre;inline-size:365.262;fill:#ffffff;stroke:#000000;stroke-width:0.264583;stroke-opacity:1"
               id="path803"
               sodipodi:nodetypes="ccccccccccccc"
               transform="matrix(0.94387138,0,0.20164668,1.0594664,5.1488225e-7,1.7763244e-7)" /><path
               d="m 230.66522,108.53842 h -12.40234 l 8.95449,-42.167966 h 12.40234 z"
               style="font-size:50.8px;line-height:1.25;font-family:'Sheeping Cats';-inkscape-font-specification:'Sheeping Cats';font-variant-ligatures:none;white-space:pre;inline-size:365.262;fill:#ffffff;stroke:#000000;stroke-width:0.264583;stroke-opacity:1"
               id="path805"
               transform="matrix(0.94387138,0,0.20164668,1.0594664,5.1488225e-7,1.7763244e-7)" /><path
               d="m 276.82674,66.370454 -2.62929,12.402343 h -22.32422 l -0.5209,2.480469 h 22.32422 l -2.6293,12.402343 h -22.32422 l -3.175,14.882811 h -12.40234 l 8.95449,-42.167966 z"
               style="font-size:50.8px;line-height:1.25;font-family:'Sheeping Cats';-inkscape-font-specification:'Sheeping Cats';font-variant-ligatures:none;white-space:pre;inline-size:365.262;fill:#ffffff;stroke:#000000;stroke-width:0.264583;stroke-opacity:1"
               id="path807"
               transform="matrix(0.94387138,0,0.20164668,1.0594664,5.1488225e-7,1.7763244e-7)" /><path
               d="m 311.55331,66.370454 -2.6293,12.402343 h -9.92187 L 292.677,108.538 h -12.4024 l 6.32519,-29.765203 h -9.92187 l 2.62929,-12.402343 z"
               style="font-size:50.8px;line-height:1.25;font-family:'Sheeping Cats';-inkscape-font-specification:'Sheeping Cats';font-variant-ligatures:none;white-space:pre;inline-size:365.262;fill:#ffffff;stroke:#000000;stroke-width:0.264583;stroke-opacity:1"
               id="path809"
               sodipodi:nodetypes="ccccccccc"
               transform="matrix(0.94387138,0,0.20164668,1.0594664,5.1488225e-7,1.7763244e-7)" /><path
               d="M 52.694562,98.381995 V 114.99361 H 40.510006 V 70.316902 h 12.631323 l 7.67627,16.611611 V 70.316902 H 73.002155 V 114.99361 H 60.370832 Z"
               id="path4789"
               style="stroke:#000000;stroke-width:0.274762;stroke-dasharray:none;stroke-opacity:1" /></g></g></g></g></g></svg>
