<?xml version="1.0" encoding="UTF-8" standalone="no"?>
<!-- Created with Inkscape (http://www.inkscape.org/) -->

<svg
   width="370.01868"
   height="131.95009"
   viewBox="0 0 97.900772 34.911795"
   version="1.1"
   id="svg5"
   xml:space="preserve"
   inkscape:version="1.2 (dc2aedaf03, 2022-05-15)"
   sodipodi:docname="lunarshiftlogo.svg"
   xmlns:inkscape="http://www.inkscape.org/namespaces/inkscape"
   xmlns:sodipodi="http://sodipodi.sourceforge.net/DTD/sodipodi-0.dtd"
   xmlns="http://www.w3.org/2000/svg"
   xmlns:svg="http://www.w3.org/2000/svg"><sodipodi:namedview
     id="namedview7"
     pagecolor="#989898"
     bordercolor="#666666"
     borderopacity="1.0"
     inkscape:showpageshadow="2"
     inkscape:pageopacity="0"
     inkscape:pagecheckerboard="0"
     inkscape:deskcolor="#d1d1d1"
     inkscape:document-units="px"
     showgrid="false"
     inkscape:zoom="2.8284271"
     inkscape:cx="195.6918"
     inkscape:cy="72.478445"
     inkscape:window-width="1920"
     inkscape:window-height="1027"
     inkscape:window-x="-8"
     inkscape:window-y="-8"
     inkscape:window-maximized="1"
     inkscape:current-layer="layer1" /><defs
     id="defs2" /><g
     inkscape:label="Layer 1"
     inkscape:groupmode="layer"
     id="layer1"
     transform="translate(-56.882942,-9.0024348)"><path
       style="fill:#000000;stroke-width:0.264583"
       id="path461"
       d="" /><path
       style="fill:#000000;stroke-width:0.264583"
       id="path493"
       d="" /><path
       style="fill:#000000;stroke-width:0.264583"
       id="path487"
       d="" /><path
       style="fill:#000000;stroke-width:0.264583"
       id="path485"
       d="" /><path
       style="fill:#000000;stroke-width:0.264583"
       id="path481"
       d="" /><path
       style="fill:#000000;stroke-width:0.264583"
       id="path479"
       d="" /><g
       id="g4247"
       transform="matrix(0.31363928,0,0,0.24211909,65.178368,4.5131999)"
       style="display:inline;fill:#ffffff"><g
         id="g826"
         style="display:inline;fill:#ffffff;stroke:#000000;stroke-opacity:1"><g
           aria-label="Lunar Shift"
           id="text723"
           style="font-size:50.8px;line-height:1.25;font-family:'Close and Open', Italics;-inkscape-font-specification:'Close and Open, Italics';font-variant-ligatures:none;white-space:pre;inline-size:365.262;display:inline;fill:#ffffff;stroke:#000000;stroke-width:0.264583;stroke-opacity:1"
           inkscape:label="text723" /></g><g
         id="g5539"
         transform="matrix(1.0594664,0,-0.20164668,0.94387139,-1.6871824,6.5566907)"
         style="font-size:83.1799px;line-height:1.25;font-family:'A Friend In Deed';-inkscape-font-specification:'A Friend In Deed';font-variant-ligatures:none;stroke:#000000;stroke-width:0.274762;stroke-dasharray:none;stroke-opacity:1"><g
           id="g5363"
           transform="translate(-19.7507,16.904079)"><path
             style="font-size:37.2696px;line-height:1.25;font-family:'Midnight Moon';-inkscape-font-specification:'Midnight Moon';font-variant-ligatures:none;opacity:1;fill:#ffffff;stroke:#000000;stroke-width:0.290718;stroke-dasharray:none;stroke-opacity:1"
             d="m 148.21868,139.20594 c -6.89686,-5.10984 -10.88295,-8.79596 -15.86632,-14.67242 -13.18204,-15.54436 -22.66164,-37.709269 -25.40769,-59.407486 -0.73002,-5.768003 -0.97225,-11.196261 -0.78039,-17.486515 0.0937,-3.073964 1.28864,-12.224692 1.96383,-15.039146 1.88228,-7.846747 4.22828,-13.672813 7.6525,-19.004225 1.86304,-2.90071 2.81241,-4.1431587 4.89993,-6.4124571 7.01081,-7.62137816 16.47497,-11.6309765 26.47342,-11.2156759 1.7764,0.073771 2.78846,0.1629898 2.77815,0.2449049 -0.004,0.037032 -0.34964,0.1284087 -0.7666,0.2025776 -4.94776,0.8803411 -11.50125,4.6170181 -15.81893,9.0196803 -5.06985,5.1695722 -9.13678,12.6512742 -11.51548,21.1843192 -1.70607,6.120153 -3.10148,14.520246 -3.04568,21.488887 0.1114,13.966248 3.61187,28.688133 9.47806,42.206264 7.10143,16.364652 16.99639,29.325092 29.1406,38.168542 4.12311,3.00242 9.9276,6.0282 14.22999,7.41806 6.83714,2.20853 13.32945,2.54145 19.56785,1.00334 5.64452,-1.39163 10.85376,-4.47553 15.13481,-8.95989 0.52084,-0.54555 0.94224,-0.95431 0.9364,-0.90836 -0.0387,0.2919 -1.54629,2.86835 -2.68279,4.57747 -5.26117,7.91202 -11.97013,13.08379 -20.10208,15.49626 -6.72434,1.9949 -14.62946,1.6944 -22.24523,-0.84562 -3.63577,-1.21259 -5.61994,-2.12898 -9.69137,-4.47591 -2.099,-1.20992 -4.04873,-2.37211 -4.3328,-2.58194 z"
             id="path4043"
             sodipodi:nodetypes="cscsssssscsscsscscsccsscc" /><path
             d="m 24.406479,54.984437 h 18.729946 l 0.01917,13.139865 H 12.719434 L 12.668292,23.448759 H 24.37451 Z"
             style="font-size:50.8px;line-height:1.25;font-family:'Sheeping Cats';-inkscape-font-specification:'Sheeping Cats';font-variant-ligatures:none;white-space:pre;inline-size:365.262;fill:#ffffff;stroke:#000000;stroke-width:0.264583;stroke-opacity:1"
             id="path791" /><path
             d="M 66.54886,54.984437 66.51689,23.448759 h 11.706217 l 0.05114,44.675543 H 45.496843 L 45.445703,23.448759 H 57.15192 l 0.03197,31.535678 z"
             style="font-size:50.8px;line-height:1.25;font-family:'Sheeping Cats';-inkscape-font-specification:'Sheeping Cats';font-variant-ligatures:none;white-space:pre;inline-size:365.262;fill:#ffffff;stroke:#000000;stroke-width:0.264583;stroke-opacity:1"
             id="path793" /><path
             d="m 136.80106,52.356464 h -9.36497 l 0.004,15.767393 -11.70613,4.45e-4 -0.0511,-44.675543 h 32.77741 l 0.0505,44.675098 -11.7058,4.45e-4 z m -9.38415,-13.139866 h 9.36498 l -0.009,-2.627973 h -9.36497 z"
             style="font-size:50.8px;line-height:1.25;font-family:'Sheeping Cats';-inkscape-font-specification:'Sheeping Cats';font-variant-ligatures:none;white-space:pre;inline-size:365.262;fill:#ffffff;stroke:#000000;stroke-width:0.264583;stroke-opacity:1"
             id="path797"
             sodipodi:nodetypes="cccccccccccccc" /><path
             d="m 174.3546,52.356464 11.89187,15.747104 -13.28981,0.01875 h -0.0936 l -10.31805,-10.404791 0.0141,10.406772 H 150.8528 l -0.0511,-44.675543 h 32.77741 l 0.0469,28.907705 z M 162.53557,39.216598 h 9.36497 l -0.009,-2.627973 h -9.36498 z"
             style="font-size:50.8px;line-height:1.25;font-family:'Sheeping Cats';-inkscape-font-specification:'Sheeping Cats';font-variant-ligatures:none;white-space:pre;inline-size:365.262;fill:#ffffff;stroke:#000000;stroke-width:0.264583;stroke-opacity:1"
             id="path799"
             sodipodi:nodetypes="cccccccccccccccc" /><path
             d="m 143.22395,108.60041 3.25418,-12.464332 h 22.32422 l 0.5457,-2.480469 h -22.32422 l 5.77949,-27.285155 h 34.72657 l -2.6293,12.402343 h -22.32422 l -0.5209,2.480469 h 22.32422 l -5.8043,27.285154 z"
             style="font-size:50.8px;line-height:1.25;font-family:'Sheeping Cats';-inkscape-font-specification:'Sheeping Cats';font-variant-ligatures:none;white-space:pre;inline-size:365.262;fill:#ffffff;stroke:#000000;stroke-width:0.264583;stroke-opacity:1"
             id="path801"
             sodipodi:nodetypes="ccccccccccccc"
             transform="matrix(0.94387138,0,0.20164668,1.0594664,5.1488225e-7,1.7763244e-7)" /><path
             d="m 215.782,108.49937 -12.40192,0.0391 3.175,-14.882811 h -9.92187 l -3.175,14.882811 h -12.40235 l 8.95449,-42.167966 h 12.40235 l -3.1502,14.882812 h 9.92188 l 3.15019,-14.882812 h 12.40235 z"
             style="font-size:50.8px;line-height:1.25;font-family:'Sheeping Cats';-inkscape-font-specification:'Sheeping Cats';font-variant-ligatures:none;white-space:pre;inline-size:365.262;fill:#ffffff;stroke:#000000;stroke-width:0.264583;stroke-opacity:1"
             id="path803"
             sodipodi:nodetypes="ccccccccccccc"
             transform="matrix(0.94387138,0,0.20164668,1.0594664,5.1488225e-7,1.7763244e-7)" /><path
             d="m 230.66522,108.53842 h -12.40234 l 8.95449,-42.167966 h 12.40234 z"
             style="font-size:50.8px;line-height:1.25;font-family:'Sheeping Cats';-inkscape-font-specification:'Sheeping Cats';font-variant-ligatures:none;white-space:pre;inline-size:365.262;fill:#ffffff;stroke:#000000;stroke-width:0.264583;stroke-opacity:1"
             id="path805"
             transform="matrix(0.94387138,0,0.20164668,1.0594664,5.1488225e-7,1.7763244e-7)" /><path
             d="m 276.82674,66.370454 -2.62929,12.402343 h -22.32422 l -0.5209,2.480469 h 22.32422 l -2.6293,12.402343 h -22.32422 l -3.175,14.882811 h -12.40234 l 8.95449,-42.167966 z"
             style="font-size:50.8px;line-height:1.25;font-family:'Sheeping Cats';-inkscape-font-specification:'Sheeping Cats';font-variant-ligatures:none;white-space:pre;inline-size:365.262;fill:#ffffff;stroke:#000000;stroke-width:0.264583;stroke-opacity:1"
             id="path807"
             transform="matrix(0.94387138,0,0.20164668,1.0594664,5.1488225e-7,1.7763244e-7)" /><path
             d="m 311.55331,66.370454 -2.6293,12.402343 h -9.92187 L 292.677,108.538 h -12.4024 l 6.32519,-29.765203 h -9.92187 l 2.62929,-12.402343 z"
             style="font-size:50.8px;line-height:1.25;font-family:'Sheeping Cats';-inkscape-font-specification:'Sheeping Cats';font-variant-ligatures:none;white-space:pre;inline-size:365.262;fill:#ffffff;stroke:#000000;stroke-width:0.264583;stroke-opacity:1"
             id="path809"
             sodipodi:nodetypes="ccccccccc"
             transform="matrix(0.94387138,0,0.20164668,1.0594664,5.1488225e-7,1.7763244e-7)" /><path
             d="M 92.898325,51.513488 V 68.125103 H 80.713769 V 23.448395 h 12.631323 l 7.676268,16.611611 V 23.448395 h 12.18456 v 44.676708 h -12.63133 z"
             id="path4789"
             style="stroke:#000000;stroke-width:0.274762;stroke-dasharray:none;stroke-opacity:1" /></g></g></g></g></svg>
