<?xml version="1.0" encoding="UTF-8" standalone="no"?>
<!-- Created with Inkscape (http://www.inkscape.org/) -->

<svg
   width="1500"
   height="200"
   viewBox="0 0 396.875 52.916668"
   version="1.1"
   id="svg5"
   xml:space="preserve"
   inkscape:version="1.2 (dc2aedaf03, 2022-05-15)"
   sodipodi:docname="monochromejp.svg"
   xmlns:inkscape="http://www.inkscape.org/namespaces/inkscape"
   xmlns:sodipodi="http://sodipodi.sourceforge.net/DTD/sodipodi-0.dtd"
   xmlns="http://www.w3.org/2000/svg"
   xmlns:svg="http://www.w3.org/2000/svg"><sodipodi:namedview
     id="namedview7"
     pagecolor="#989898"
     bordercolor="#666666"
     borderopacity="1.0"
     inkscape:showpageshadow="2"
     inkscape:pageopacity="0"
     inkscape:pagecheckerboard="0"
     inkscape:deskcolor="#d1d1d1"
     inkscape:document-units="px"
     showgrid="false"
     inkscape:zoom="0.7071068"
     inkscape:cx="639.93162"
     inkscape:cy="-144.24978"
     inkscape:window-width="1920"
     inkscape:window-height="1027"
     inkscape:window-x="-8"
     inkscape:window-y="-8"
     inkscape:window-maximized="1"
     inkscape:current-layer="layer1" /><defs
     id="defs2" /><g
     inkscape:label="Layer 1"
     inkscape:groupmode="layer"
     id="layer1"><rect
       style="fill:#3c3c3c;fill-opacity:1;stroke:#ffffff;stroke-width:0.792;stroke-linecap:square;stroke-dasharray:none;stroke-opacity:1;paint-order:markers fill stroke"
       id="rect330"
       width="196.63019"
       height="49.765583"
       x="100.12241"
       y="1.5755421"
       ry="24.882792" /><path
       style="fill:#000000;stroke-width:0.264583"
       id="path461"
       d="" /><path
       style="fill:#000000;stroke-width:0.264583"
       id="path493"
       d="" /><path
       style="fill:#000000;stroke-width:0.264583"
       id="path487"
       d="" /><path
       style="fill:#000000;stroke-width:0.264583"
       id="path485"
       d="" /><path
       style="fill:#000000;stroke-width:0.264583"
       id="path481"
       d="" /><path
       style="fill:#000000;stroke-width:0.264583"
       id="path479"
       d="" /><g
       aria-label="Monochrome"
       transform="matrix(0.98401545,0,0,1.0162442,7.1182452e-6,-8.9809453)"
       id="text993"
       style="font-size:31.5672px;line-height:1.25;font-family:mini-wakuwaku;-inkscape-font-specification:mini-wakuwaku;font-variant-ligatures:none;stroke-width:1.37673"><path
         d="m 124.77757,13.658231 1.0173,-0.678201 q 0.55489,0.431583 0.6782,0.92482 0.12331,0.493238 0.36993,0.770684 0.24662,0.246618 1.63385,5.548922 0.49324,1.633849 1.51054,5.148166 l 0.52406,2.250396 0.49324,2.497015 0.18497,2.250396 0.6782,-0.369928 0.55489,-2.866943 q 0.46241,-1.726331 0.77068,-2.219569 l 0.49324,-3.051907 0.36993,-1.603022 0.52406,-2.157914 0.52407,-1.757158 0.61655,-2.497015 q 0.52406,-1.787986 0.52406,-2.003778 0,-0.215791 0.24662,-0.46241 0.27745,-0.246618 0.49324,-0.369928 0.21579,-0.123309 0.36992,-0.123309 0.18497,0 0.64738,0.493237 v 24.106983 q -0.21579,0.400755 -0.3391,0.524065 -0.12331,0.154136 -0.27745,0.154136 -0.15413,0 -0.30827,-0.154136 -0.12331,-0.12331 -0.3391,-0.524065 l -0.12331,-19.914464 -1.26392,3.051907 -0.52407,2.404533 -0.49323,2.990252 -1.14062,4.747411 -0.27744,0.770684 -0.49324,2.990252 q -0.64737,2.003777 -0.73986,2.928598 h -0.58572 l -0.0925,-0.770684 -0.49324,-2.89777 -0.40075,-1.017303 -0.49324,-2.497014 -0.36993,-1.387231 -0.52406,-2.497015 -0.77068,-3.144389 -0.61655,-2.497015 -1.17144,-3.329353 -0.12331,20.037774 q -0.52407,0.493237 -0.80151,0.647374 l -0.46241,-0.400756 z"
         style="font-family:SistersFL;-inkscape-font-specification:SistersFL;fill:#ffffff"
         id="path1621" /><path
         d="m 145.58603,39.059962 q -0.73986,-0.400755 -1.2331,-0.524064 -0.49324,-0.09248 -0.98647,-0.554893 -0.46241,-0.46241 -1.54137,-2.188741 v -5.394785 q 0.98647,-2.404533 1.51054,-2.89777 0.55489,-0.493238 1.78799,-1.171439 l 2.06543,-0.400756 2.28122,0.493238 1.81881,1.572194 0.73986,2.127087 v 4.439137 l -0.49324,1.448885 -0.98647,1.880468 q -0.95565,0.801511 -2.2504,1.294749 z m 0.40075,-1.140611 h 2.46619 l 1.63385,-1.695504 q 0.52406,-1.541367 0.92482,-2.589497 v -2.589497 l -0.80151,-2.373705 q -1.20227,-0.801511 -1.78799,-1.233094 h -2.43536 q -0.86316,0.585719 -1.60302,1.294748 -0.73986,0.709029 -0.86317,1.109785 -0.12331,0.400755 -0.40075,0.92482 v 4.130864 q 0.52406,1.325576 0.98647,1.942123 0.49324,0.585719 0.894,0.678201 0.43158,0.12331 0.98647,0.400756 z"
         style="font-family:SistersFL;-inkscape-font-specification:SistersFL;fill:#ffffff"
         id="path1623" /><path
         d="m 158.10193,26.729025 0.70903,1.633849 q 1.23309,-0.955647 2.31205,-1.418058 h 2.43536 l 1.20226,0.215792 1.54137,1.572194 q 0.21579,0.431583 0.49324,1.387231 v 8.35421 q -0.24662,0.215791 -0.80151,0.215791 -0.52407,0 -0.73986,-0.215791 l -0.24662,-8.415865 q -0.27744,-0.863166 -0.64737,-1.202266 -0.36993,-0.369928 -0.80151,-0.493238 -0.43159,-0.154137 -1.51054,-0.154137 -1.07896,0 -1.78799,0.524065 -0.6782,0.524065 -1.0173,1.017303 -0.3391,0.493237 -0.3391,1.325575 l -0.64738,7.491045 -0.0925,0.09248 q -0.43158,-0.06166 -1.04813,-0.709029 V 27.653845 q 0.6782,-0.863165 0.98648,-0.92482 z"
         style="font-family:SistersFL;-inkscape-font-specification:SistersFL;fill:#ffffff"
         id="path1625" /><path
         d="m 177.15323,39.059962 q -0.73986,-0.400755 -1.2331,-0.524064 -0.49324,-0.09248 -0.98647,-0.554893 -0.46241,-0.46241 -1.54137,-2.188741 v -5.394785 q 0.98647,-2.404533 1.51054,-2.89777 0.55489,-0.493238 1.78799,-1.171439 l 2.06543,-0.400756 2.28122,0.493238 1.81881,1.572194 0.73986,2.127087 v 4.439137 l -0.49324,1.448885 -0.98647,1.880468 q -0.95565,0.801511 -2.2504,1.294749 z m 0.40075,-1.140611 h 2.46619 l 1.63385,-1.695504 q 0.52406,-1.541367 0.92482,-2.589497 v -2.589497 l -0.80151,-2.373705 q -1.20227,-0.801511 -1.78799,-1.233094 h -2.43536 q -0.86316,0.585719 -1.60302,1.294748 -0.73986,0.709029 -0.86317,1.109785 -0.12331,0.400755 -0.40075,0.92482 v 4.130864 q 0.52406,1.325576 0.98647,1.942123 0.49324,0.585719 0.894,0.678201 0.43158,0.12331 0.98647,0.400756 z"
         style="font-family:SistersFL;-inkscape-font-specification:SistersFL;fill:#ffffff"
         id="path1627" /><path
         d="m 198.82485,28.116255 q -0.21579,0.678202 -0.21579,0.832339 -0.5549,0 -2.83612,-2.250396 h -2.43536 l -0.95565,0.524065 -1.88047,1.448885 q -0.43158,1.109784 -0.80151,3.175216 l 0.80151,3.113562 1.69551,1.84964 q 1.17144,0.431583 2.09626,0.431583 0.92482,0 1.78798,-0.46241 0.894,-0.493238 1.44889,-1.171439 0.55489,-0.678202 0.55489,-0.893993 0.55489,0 0.77068,0.246619 0.24662,0.215791 0.24662,0.524065 0,0.277446 -0.89399,1.140611 -0.89399,0.832339 -2.83611,1.787986 l -2.52785,-0.123309 q -0.0925,-0.09248 -0.86316,-0.215792 -0.77069,-0.123309 -2.06543,-1.510539 l -1.01731,-1.818814 -0.46241,-1.448885 V 30.15086 q 0.46241,-1.202266 1.32558,-2.681979 l 1.97295,-1.695504 q 1.94212,-0.585719 2.77446,-0.585719 0.83234,0 1.26392,0.369928 0.43158,0.369928 0.73986,0.369928 0.3391,0 0.98647,0.647374 0.64738,0.647375 1.32558,1.541367 z"
         style="font-family:SistersFL;-inkscape-font-specification:SistersFL;fill:#ffffff"
         id="path1629" /><path
         d="m 206.50086,26.389924 q 1.75715,-1.109784 3.20604,-1.448885 h 2.21957 q 0.89399,0.339101 1.57219,1.078957 0.70903,0.739856 1.04813,1.109784 0.36993,0.339101 0.49324,0.678202 0.12331,0.339101 0.36993,1.325576 v 8.600829 q -0.6782,0.893993 -1.04813,0.955647 -0.24662,-0.215791 -0.49324,-0.893993 l -0.24662,-8.693311 q 0,-0.585719 -0.27744,-0.986475 -0.24662,-0.400755 -0.40076,-0.678201 -0.15414,-0.308274 -0.80151,-0.58572 -0.61655,-0.277446 -1.75716,-0.400755 -1.14061,-0.123309 -2.68198,0.801511 l -1.20226,2.034605 v 8.69331 l -0.77069,0.647375 q -0.55489,-0.431583 -0.77068,-0.863166 V 14.120642 l 0.77068,-0.678202 0.52407,0.400755 z"
         style="font-family:SistersFL;-inkscape-font-specification:SistersFL;fill:#ffffff"
         id="path1631" /><path
         d="m 222.68521,26.852334 q 2.00378,-1.078957 3.08274,-1.664676 h 2.95942 q 0.64738,0.215791 0.89399,0.585719 0.24662,0.369928 0.80151,0.709029 0,0.739857 -0.1233,0.863166 -0.0925,0.09248 -0.52407,0.09248 -0.43158,0 -0.64737,-0.09248 -0.18497,-0.123309 -0.77069,-0.647374 h -2.43536 l -0.86316,0.524065 -2.03461,1.541367 q -0.21579,0.154136 -0.49324,0.770683 l -0.24661,8.693311 -0.2158,0.184964 -1.0173,-0.184964 -0.30827,-0.493237 V 24.879384 q 0.24662,-0.400755 0.36993,-0.554892 0.12331,-0.154137 0.52406,-0.154137 0.43158,0 0.55489,0.154137 0.12331,0.154137 0.2158,0.369928 0.1233,0.184964 0.27744,2.157914 z"
         style="font-family:SistersFL;-inkscape-font-specification:SistersFL;fill:#ffffff"
         id="path1633" /><path
         d="m 240.28762,39.059962 q -0.73985,-0.400755 -1.23309,-0.524064 -0.49324,-0.09248 -0.98647,-0.554893 -0.46241,-0.46241 -1.54137,-2.188741 v -5.394785 q 0.98647,-2.404533 1.51054,-2.89777 0.55489,-0.493238 1.78798,-1.171439 l 2.06544,-0.400756 2.28122,0.493238 1.81881,1.572194 0.73986,2.127087 v 4.439137 l -0.49324,1.448885 -0.98647,1.880468 q -0.95565,0.801511 -2.2504,1.294749 z m 0.40076,-1.140611 h 2.46619 l 1.63385,-1.695504 q 0.52406,-1.541367 0.92482,-2.589497 v -2.589497 l -0.80151,-2.373705 q -1.20227,-0.801511 -1.78799,-1.233094 h -2.43536 q -0.86317,0.585719 -1.60302,1.294748 -0.73986,0.709029 -0.86317,1.109785 -0.12331,0.400755 -0.40075,0.92482 v 4.130864 q 0.52406,1.325576 0.98647,1.942123 0.49324,0.585719 0.894,0.678201 0.43158,0.12331 0.98647,0.400756 z"
         style="font-family:SistersFL;-inkscape-font-specification:SistersFL;fill:#ffffff"
         id="path1635" /><path
         d="m 251.7554,26.451579 0.64737,2.096259 q 1.88047,-0.863165 2.46619,-0.863165 0.61654,0 1.04813,0.123309 0.46241,0.123309 1.75716,1.356403 1.26392,-1.233094 1.94212,-1.479712 h 2.43536 q 0.43158,0.246618 1.72633,1.479712 v 9.032412 q -0.21579,0.215791 -1.0173,0.215791 v -0.123309 l -0.24662,-7.737663 q -0.30827,-0.832339 -0.6782,-1.202267 -0.36993,-0.400755 -0.98648,-0.400755 -0.61654,0 -1.10978,0.369928 -0.49324,0.369928 -1.5722,2.219569 v 6.658706 q -0.21579,0.215791 -0.64737,0.215791 -0.40076,0 -0.61655,-0.215791 l -0.24662,-7.398563 q -0.30827,-0.832338 -0.6782,-1.202266 -0.36993,-0.400756 -1.23309,-0.400756 -0.83234,0 -1.14061,0.154137 -0.30828,0.12331 -0.64738,0.493238 -0.3391,0.369928 -0.64737,1.202266 v 6.905325 q -0.46241,0.46241 -0.61655,0.46241 -0.15414,0 -0.64737,-0.46241 V 26.913989 q 0.49323,-0.46241 0.70903,-0.46241 z"
         style="font-family:SistersFL;-inkscape-font-specification:SistersFL;fill:#ffffff"
         id="path1637" /><path
         d="m 269.38864,33.017803 q 0,1.880468 0.24662,2.43536 0.27744,0.554892 1.0173,1.263921 0.77068,0.709029 2.15791,0.955648 l 2.9286,-0.46241 1.75716,-1.479713 q 0.55489,0 0.80151,0.246619 0.24662,0.215791 0.24662,0.400756 0,0.154136 -0.12331,0.369928 -0.0925,0.184964 -0.6782,0.709029 l -2.46619,1.202266 -0.95565,0.277446 -2.31205,-0.154137 q -0.0925,-0.09248 -0.64737,-0.246618 -0.5549,-0.12331 -0.77069,-0.12331 -0.21579,0 -0.83234,-0.46241 -0.58571,-0.431583 -1.66467,-2.157914 V 30.61327 q 0.61655,-1.787986 1.3564,-2.805288 0.73986,-1.04813 2.15792,-1.880468 h 3.7301 q 0.92482,0.369928 1.44889,0.893993 0.52406,0.524065 1.38723,2.188741 l 0.12331,2.219569 q -0.70903,0.832338 -1.14061,1.294749 -0.40076,0.46241 -1.32558,0.678201 l -2.25039,0.277446 -2.65116,-0.154136 z m -0.21579,-1.757159 q 0.70902,0.709029 1.32557,0.770684 0.61655,0.06165 2.71281,0.431583 l 2.49701,-0.524065 1.04813,-0.739856 v -2.466188 q -1.26392,-1.263921 -2.12708,-1.541367 h -2.40454 q -1.91129,1.849641 -3.0519,4.069209 z"
         style="font-family:SistersFL;-inkscape-font-specification:SistersFL;fill:#ffffff"
         id="path1639" /></g><text
       xml:space="preserve"
       style="font-size:16.9333px;line-height:1.25;font-family:SistersFL;-inkscape-font-specification:SistersFL;font-variant-ligatures:none;fill:#ffffff;stroke-width:0.264583"
       x="134.54076"
       y="46.959255"
       id="text3769"><tspan
         sodipodi:role="line"
         id="tspan3767"
         style="fill:#ffffff;stroke-width:0.264583"
         x="134.54076"
         y="46.959255">(Japanese Ver.)</tspan></text></g></svg>
