<?xml version="1.0" encoding="UTF-8" standalone="no"?>
<!-- Created with Inkscape (http://www.inkscape.org/) -->

<svg
   width="1500"
   height="200"
   viewBox="0 0 396.875 52.916668"
   version="1.1"
   id="svg5"
   xml:space="preserve"
   inkscape:version="1.2 (dc2aedaf03, 2022-05-15)"
   sodipodi:docname="monochromejp.svg"
   xmlns:inkscape="http://www.inkscape.org/namespaces/inkscape"
   xmlns:sodipodi="http://sodipodi.sourceforge.net/DTD/sodipodi-0.dtd"
   xmlns="http://www.w3.org/2000/svg"
   xmlns:svg="http://www.w3.org/2000/svg"><sodipodi:namedview
     id="namedview7"
     pagecolor="#989898"
     bordercolor="#666666"
     borderopacity="1.0"
     inkscape:showpageshadow="2"
     inkscape:pageopacity="0"
     inkscape:pagecheckerboard="0"
     inkscape:deskcolor="#d1d1d1"
     inkscape:document-units="px"
     showgrid="false"
     inkscape:zoom="0.50000001"
     inkscape:cx="432.99999"
     inkscape:cy="47.999999"
     inkscape:window-width="1920"
     inkscape:window-height="1027"
     inkscape:window-x="-8"
     inkscape:window-y="-8"
     inkscape:window-maximized="1"
     inkscape:current-layer="layer1" /><defs
     id="defs2" /><g
     inkscape:label="Layer 1"
     inkscape:groupmode="layer"
     id="layer1"><path
       style="fill:#000000;stroke-width:0.264583"
       id="path461"
       d="" /><path
       style="fill:#000000;stroke-width:0.264583"
       id="path493"
       d="" /><path
       style="fill:#000000;stroke-width:0.264583"
       id="path487"
       d="" /><path
       style="fill:#000000;stroke-width:0.264583"
       id="path485"
       d="" /><path
       style="fill:#000000;stroke-width:0.264583"
       id="path481"
       d="" /><path
       style="fill:#000000;stroke-width:0.264583"
       id="path479"
       d="" /><g
       aria-label="Monochrome (Japanese Version)"
       transform="scale(0.98401545,1.0162442)"
       id="text993"
       style="font-size:26.2958px;line-height:1.25;font-family:mini-wakuwaku;-inkscape-font-specification:mini-wakuwaku;font-variant-ligatures:none;stroke-width:1.14683"><path
         d="m 14.200682,15.840652 0.847423,-0.564949 q 0.462231,0.359513 0.564949,0.770385 0.102718,0.410872 0.308154,0.641987 0.205436,0.205436 1.361013,4.622309 0.410872,1.361013 1.258295,4.288475 l 0.436551,1.874603 0.410872,2.080039 0.154077,1.874603 0.564949,-0.308154 0.462231,-2.388193 q 0.385192,-1.438052 0.641987,-1.848923 l 0.410872,-2.54227 0.308154,-1.335334 0.436551,-1.797564 0.436551,-1.463731 0.51359,-2.080039 q 0.436552,-1.48941 0.436552,-1.669167 0,-0.179756 0.205435,-0.385192 0.231116,-0.205436 0.410872,-0.308154 0.179757,-0.102718 0.308154,-0.102718 0.154077,0 0.53927,0.410872 v 20.081362 q -0.179757,0.333834 -0.282475,0.436552 -0.102718,0.128397 -0.231115,0.128397 -0.128398,0 -0.256795,-0.128397 -0.102718,-0.102718 -0.282475,-0.436552 l -0.102718,-16.588951 -1.052859,2.542269 -0.436551,2.003001 -0.410872,2.49091 -0.950141,3.954642 -0.231116,0.641987 -0.410871,2.490911 q -0.53927,1.669167 -0.616308,2.439552 h -0.487911 l -0.07704,-0.641988 -0.410872,-2.413872 -0.333833,-0.847423 -0.410872,-2.080039 -0.308154,-1.155577 -0.436551,-2.080039 -0.641988,-2.619308 -0.51359,-2.080039 -0.97582,-2.773385 -0.102718,16.69167 q -0.436551,0.410872 -0.667667,0.539269 l -0.385192,-0.333833 z"
         style="font-family:SistersFL;-inkscape-font-specification:SistersFL;fill:#ffffff"
         id="path1792" /><path
         d="M 31.534338,37.000553 Q 30.918031,36.66672 30.507159,36.564002 30.096287,36.486963 29.685415,36.101771 29.300223,35.716579 28.40144,34.278527 v -4.493911 q 0.821744,-2.003 1.258296,-2.413872 0.46223,-0.410872 1.48941,-0.975821 l 1.720526,-0.333833 1.900282,0.410872 1.51509,1.309654 0.616308,1.771885 v 3.697846 l -0.410872,1.206937 -0.821743,1.566449 q -0.796065,0.667666 -1.874603,1.078538 z m 0.333834,-0.950141 h 2.054359 l 1.361013,-1.412372 q 0.436552,-1.283975 0.770385,-2.157077 v -2.157078 l -0.667667,-1.97732 q -1.0015,-0.667667 -1.48941,-1.02718 h -2.02868 q -0.719026,0.48791 -1.335334,1.078539 -0.616308,0.590628 -0.719025,0.924461 -0.102718,0.333834 -0.333834,0.770385 v 3.441052 q 0.436551,1.104218 0.821744,1.617808 0.410872,0.48791 0.744705,0.564949 0.359513,0.102718 0.821744,0.333833 z"
         style="font-family:SistersFL;-inkscape-font-specification:SistersFL;fill:#ffffff"
         id="path1794" /><path
         d="m 41.960212,26.728757 0.590628,1.361013 q 1.02718,-0.796065 1.925962,-1.181257 h 2.02868 l 1.0015,0.179757 1.283975,1.309654 q 0.179756,0.359512 0.410872,1.155577 v 6.959142 q -0.205436,0.179756 -0.667667,0.179756 -0.436552,0 -0.616308,-0.179756 l -0.205436,-7.010501 q -0.231115,-0.719026 -0.539269,-1.0015 -0.308154,-0.308154 -0.667667,-0.410872 -0.359513,-0.128398 -1.258295,-0.128398 -0.898782,0 -1.489411,0.436552 -0.564948,0.436551 -0.847423,0.847423 -0.282474,0.410872 -0.282474,1.104218 l -0.53927,6.240116 -0.07704,0.07704 q -0.359513,-0.05136 -0.873103,-0.590628 v -8.576951 q 0.564949,-0.719025 0.821744,-0.770384 z"
         style="font-family:SistersFL;-inkscape-font-specification:SistersFL;fill:#ffffff"
         id="path1796" /><path
         d="M 57.830138,37.000553 Q 57.21383,36.66672 56.802958,36.564002 56.392086,36.486963 55.981214,36.101771 55.596022,35.716579 54.69724,34.278527 v -4.493911 q 0.821743,-2.003 1.258295,-2.413872 0.462231,-0.410872 1.48941,-0.975821 l 1.720526,-0.333833 1.900283,0.410872 1.51509,1.309654 0.616307,1.771885 v 3.697846 l -0.410871,1.206937 -0.821744,1.566449 q -0.796064,0.667666 -1.874603,1.078538 z m 0.333833,-0.950141 h 2.054359 l 1.361013,-1.412372 q 0.436552,-1.283975 0.770385,-2.157077 v -2.157078 l -0.667667,-1.97732 q -1.0015,-0.667667 -1.48941,-1.02718 h -2.02868 q -0.719026,0.48791 -1.335333,1.078539 -0.616308,0.590628 -0.719026,0.924461 -0.102718,0.333834 -0.333834,0.770385 v 3.441052 q 0.436552,1.104218 0.821744,1.617808 0.410872,0.48791 0.744705,0.564949 0.359513,0.102718 0.821744,0.333833 z"
         style="font-family:SistersFL;-inkscape-font-specification:SistersFL;fill:#ffffff"
         id="path1798" /><path
         d="m 75.88282,27.884334 q -0.179756,0.564949 -0.179756,0.693346 -0.462231,0 -2.362513,-1.874603 h -2.02868 l -0.796065,0.436552 -1.566448,1.206936 q -0.359513,0.924461 -0.667667,2.644987 l 0.667667,2.593629 1.412372,1.540769 q 0.97582,0.359513 1.746205,0.359513 0.770385,0 1.48941,-0.385192 0.744706,-0.410872 1.206937,-0.975821 0.46223,-0.564949 0.46223,-0.744705 0.462231,0 0.641988,0.205436 0.205436,0.179756 0.205436,0.436551 0,0.231116 -0.744706,0.950141 -0.744705,0.693347 -2.362513,1.489411 l -2.105718,-0.102718 q -0.07704,-0.07704 -0.719026,-0.179756 -0.641987,-0.102718 -1.720526,-1.258296 l -0.847423,-1.51509 -0.385192,-1.206936 V 29.57918 q 0.385192,-1.0015 1.104218,-2.234116 l 1.643487,-1.412372 q 1.617808,-0.48791 2.311154,-0.48791 0.693347,0 1.05286,0.308154 0.359512,0.308154 0.616307,0.308154 0.282475,0 0.821744,0.539269 0.539269,0.53927 1.104218,1.283975 z"
         style="font-family:SistersFL;-inkscape-font-specification:SistersFL;fill:#ffffff"
         id="path1800" /><path
         d="m 82.277017,26.446282 q 1.463731,-0.924461 2.670667,-1.206936 h 1.848924 q 0.744705,0.282475 1.309654,0.898782 0.590628,0.616308 0.873103,0.924462 0.308154,0.282474 0.410872,0.564949 0.102717,0.282474 0.308153,1.104218 v 7.164578 q -0.564948,0.744705 -0.873102,0.796064 -0.205436,-0.179756 -0.410872,-0.744705 L 88.20898,28.706077 q 0,-0.48791 -0.231116,-0.821743 -0.205435,-0.333834 -0.333833,-0.564949 -0.128397,-0.256795 -0.667667,-0.48791 -0.51359,-0.231116 -1.463731,-0.333834 -0.950141,-0.102718 -2.234115,0.667667 l -1.001501,1.694846 v 7.241617 L 81.63503,36.64104 q -0.462231,-0.359513 -0.641987,-0.719025 v -19.69617 l 0.641987,-0.564949 0.436551,0.333833 z"
         style="font-family:SistersFL;-inkscape-font-specification:SistersFL;fill:#ffffff"
         id="path1802" /><path
         d="m 95.758747,26.831475 q 1.669167,-0.898783 2.567949,-1.386693 h 2.465234 q 0.53927,0.179757 0.7447,0.48791 0.20544,0.308154 0.66767,0.590629 0,0.616308 -0.10272,0.719025 -0.077,0.07704 -0.43655,0.07704 -0.35951,0 -0.53927,-0.07704 -0.15408,-0.102717 -0.64199,-0.539269 h -2.028677 l -0.719026,0.436552 -1.694846,1.283974 q -0.179756,0.128398 -0.410872,0.641987 l -0.205436,7.241617 -0.179756,0.154077 -0.847423,-0.154077 -0.256795,-0.410872 V 25.187987 q 0.205436,-0.333833 0.308154,-0.462231 0.102717,-0.128397 0.436551,-0.128397 0.359513,0 0.462231,0.128397 0.102718,0.128398 0.179756,0.308154 0.102718,0.154077 0.231116,1.797565 z"
         style="font-family:SistersFL;-inkscape-font-specification:SistersFL;fill:#ffffff"
         id="path1804" /><path
         d="m 110.42173,37.000553 q -0.61631,-0.333833 -1.02718,-0.436551 -0.41087,-0.07704 -0.82174,-0.462231 -0.38519,-0.385192 -1.28398,-1.823244 v -4.493911 q 0.82175,-2.003 1.2583,-2.413872 0.46223,-0.410872 1.48941,-0.975821 l 1.72053,-0.333833 1.90028,0.410872 1.51509,1.309654 0.61631,1.771885 v 3.697846 l -0.41088,1.206937 -0.82174,1.566449 q -0.79606,0.667666 -1.8746,1.078538 z m 0.33384,-0.950141 h 2.05436 l 1.36101,-1.412372 q 0.43655,-1.283975 0.77038,-2.157077 v -2.157078 l -0.66766,-1.97732 q -1.0015,-0.667667 -1.48941,-1.02718 h -2.02868 q -0.71903,0.48791 -1.33534,1.078539 -0.61631,0.590628 -0.71902,0.924461 -0.10272,0.333834 -0.33384,0.770385 v 3.441052 q 0.43655,1.104218 0.82175,1.617808 0.41087,0.48791 0.7447,0.564949 0.35951,0.102718 0.82175,0.333833 z"
         style="font-family:SistersFL;-inkscape-font-specification:SistersFL;fill:#ffffff"
         id="path1806" /><path
         d="m 119.97451,26.497641 0.53927,1.746206 q 1.56645,-0.719026 2.05436,-0.719026 0.51359,0 0.8731,0.102718 0.38519,0.102718 1.46373,1.129897 1.05286,-1.027179 1.61781,-1.232615 h 2.02868 q 0.35951,0.205436 1.43805,1.232615 v 7.524091 q -0.17976,0.179757 -0.84742,0.179757 v -0.102718 l -0.20544,-6.445552 q -0.2568,-0.693347 -0.56495,-1.001501 -0.30815,-0.333833 -0.82174,-0.333833 -0.51359,0 -0.92446,0.308154 -0.41088,0.308154 -1.30966,1.848923 v 5.54677 q -0.17976,0.179757 -0.53927,0.179757 -0.33383,0 -0.51359,-0.179757 l -0.20543,-6.163077 q -0.2568,-0.693347 -0.56495,-1.001501 -0.30816,-0.333833 -1.02718,-0.333833 -0.69335,0 -0.95014,0.128397 -0.2568,0.102718 -0.53927,0.410872 -0.28248,0.308154 -0.53927,1.0015 v 5.752207 q -0.38519,0.385192 -0.51359,0.385192 -0.1284,0 -0.53927,-0.385192 v -9.193258 q 0.41087,-0.385193 0.59063,-0.385193 z"
         style="font-family:SistersFL;-inkscape-font-specification:SistersFL;fill:#ffffff"
         id="path1808" /><path
         d="m 134.66318,31.967373 q 0,1.566449 0.20544,2.02868 0.23111,0.462231 0.84742,1.052859 0.64199,0.590628 1.79756,0.796064 l 2.43956,-0.385192 1.46373,-1.232616 q 0.46223,0 0.66766,0.205436 0.20544,0.179757 0.20544,0.333833 0,0.128398 -0.10272,0.308154 -0.077,0.154077 -0.56495,0.590629 l -2.05436,1.0015 -0.79606,0.231115 -1.92596,-0.128397 q -0.077,-0.07704 -0.53927,-0.205436 -0.46223,-0.102718 -0.64199,-0.102718 -0.17976,0 -0.69335,-0.385192 -0.48791,-0.359513 -1.38669,-1.797565 v -4.314154 q 0.51359,-1.489411 1.1299,-2.336834 0.61631,-0.873103 1.79756,-1.566449 h 3.10722 q 0.77039,0.308154 1.20694,0.744705 0.43655,0.436551 1.15558,1.823244 l 0.10271,1.848923 q -0.59063,0.693347 -0.95014,1.078539 -0.33383,0.385192 -1.10422,0.564949 l -1.8746,0.231115 -2.20844,-0.128397 z m -0.17976,-1.463731 q 0.59063,0.590628 1.10422,0.641987 0.51359,0.05136 2.2598,0.359513 l 2.08004,-0.436551 0.8731,-0.616308 v -2.054359 q -1.05286,-1.05286 -1.77189,-1.283975 h -2.003 q -1.59213,1.54077 -2.54227,3.389693 z"
         style="font-family:SistersFL;-inkscape-font-specification:SistersFL;fill:#ffffff"
         id="path1810" /><path
         d="m 169.4332,38.567002 q -0.48791,-0.641987 -0.79606,-0.950141 -0.28247,-0.308154 -0.41087,-0.616308 -0.10272,-0.308154 -0.53927,-0.744705 -0.43655,-0.436551 -1.2583,-1.617808 l -1.05286,-2.054359 -0.51359,-1.438052 -0.41087,-1.771885 -0.30815,-2.003 -0.23112,-0.410872 v -5.135898 q 0.53927,-1.977321 1.0015,-3.184257 0.46223,-1.232616 1.84893,-3.415373 l 1.12989,-1.438051 q 1.07854,-0.898782 1.74621,-0.898782 v 0.667667 l -1.64349,1.823243 q -0.66766,1.05286 -1.10422,1.617808 -0.43655,0.53927 -0.43655,0.744706 0,0.205436 -0.30815,0.616307 -0.28248,0.385193 -0.56495,1.412372 -0.28247,1.02718 -0.59063,2.208437 v 4.442552 l 0.20544,0.847423 0.41087,2.51659 q 0.33383,0.873103 0.66767,1.900283 1.69484,3.055859 2.38819,4.03168 0.71902,1.0015 1.38669,1.797564 0.66767,0.821744 0.66767,0.796064 L 169.69,38.644041 q -0.077,-0.07704 -0.2568,-0.07704 z"
         style="font-family:SistersFL;-inkscape-font-specification:SistersFL;fill:#ffffff"
         id="path1812" /><path
         d="m 172.59179,31.916014 q 0.89878,1.848923 1.10421,2.388193 0.20544,0.539269 0.3852,0.744705 0.20543,0.179756 0.43655,0.308154 0.25679,0.128397 1.15557,0.128397 0.92447,0 1.54077,-0.410872 0.64199,-0.410871 1.1299,-1.540769 V 16.893511 h -4.49391 q -0.59063,-0.616307 -0.59063,-0.744705 0,-0.128397 0.38519,-0.51359 h 8.75671 q 0.38519,0.385193 0.38519,0.616308 0,0.231116 -0.12839,0.333834 -0.10272,0.102717 -0.43656,0.308153 h -2.82474 l -0.20544,17.616132 q -0.17975,0.539269 -0.59062,0.924461 -0.41088,0.385193 -0.89879,1.02718 l -2.8761,0.102718 q -0.1284,-0.102718 -0.33383,-0.102718 -0.20544,0 -0.87311,-0.51359 -0.64198,-0.48791 -1.10421,-1.386692 -0.43655,-0.924462 -0.48791,-1.489411 -0.0514,-0.564949 0.0257,-0.744705 0.10271,-0.179757 0.20543,-0.282475 0.1284,-0.128397 0.33384,-0.128397 z"
         style="font-family:SistersFL;-inkscape-font-specification:SistersFL;fill:#ffffff"
         id="path1814" /><path
         d="m 192.64747,32.63504 q -0.71902,0.51359 -0.84742,0.898782 -0.10272,0.359513 -0.10272,0.539269 0,0.179757 -0.82174,1.155577 -0.79607,0.975821 -1.66917,1.438052 l -1.66917,0.102718 q -0.10272,-0.102718 -0.43655,-0.102718 -0.30815,0 -0.89878,-0.48791 -0.56495,-0.462231 -1.07854,-1.489411 V 31.63354 q 0.51359,-1.925962 0.8731,-2.593629 0.3852,-0.667667 0.77039,-1.258295 l 1.54077,-1.51509 q 1.18125,-0.410872 1.8746,-0.410872 0.69335,0 1.90028,0.898782 l 1.0015,1.489411 0.30816,1.925962 q 0,1.283974 0.56495,2.465231 l 0.84742,1.977321 q 0.30815,0.873102 0.51359,1.027179 0.20543,0.179757 0.20543,0.410872 0,0.231115 -0.20543,0.410872 -0.20544,0.205436 -0.64199,0.205436 -0.77038,-1.0015 -1.15558,-1.694847 -0.35951,-0.719025 -0.8731,-2.336833 z m -5.1359,3.03018 q 1.18126,0 2.1314,-0.667667 l 1.18126,-1.617808 q 0.56495,-1.489411 0.97582,-2.799065 v -1.925961 l -0.46223,-1.386693 q -1.1299,-0.359513 -1.87461,-0.07704 -0.7447,0.256795 -1.84892,1.361014 l -1.07854,1.823243 -0.35951,1.206937 v 2.799064 q 0.59063,0.924462 1.33533,1.283975 z"
         style="font-family:SistersFL;-inkscape-font-specification:SistersFL;fill:#ffffff"
         id="path1816" /><path
         d="m 200.17155,23.749936 1.66917,-1.155577 1.77188,-0.487911 2.003,0.308154 1.07854,0.796064 1.15558,1.412372 0.17976,0.744706 v 2.850423 q -0.82175,1.900283 -2.54227,3.415373 l -1.69485,0.282474 -2.08004,-0.308154 -1.54077,-0.616308 -0.20543,8.08904 v 0.102718 q -0.66767,0 -1.05286,-0.385192 V 22.080769 q 0.38519,-0.385193 0.6163,-0.385193 0.2568,0 0.43656,0.205436 0.20543,0.179757 0.20543,1.848924 z m 2.61931,7.138898 q 1.1299,0 1.97732,-0.231115 0.84742,-0.231116 1.84892,-1.438052 l 0.56495,-2.413872 q -0.20543,-1.566449 -0.46223,-1.771885 -0.23111,-0.231115 -0.43655,-0.564949 -0.20544,-0.333833 -0.48791,-0.48791 -0.28247,-0.154077 -0.51359,-0.359513 -0.23112,-0.231115 -1.48941,-0.462231 l -1.92596,0.53927 -1.69485,1.566449 v 3.954641 q 1.18126,1.0015 2.61931,1.669167 z"
         style="font-family:SistersFL;-inkscape-font-specification:SistersFL;fill:#ffffff"
         id="path1818" /><path
         d="m 218.94326,32.63504 q -0.71902,0.51359 -0.84742,0.898782 -0.10272,0.359513 -0.10272,0.539269 0,0.179757 -0.82174,1.155577 -0.79607,0.975821 -1.66917,1.438052 l -1.66917,0.102718 q -0.10271,-0.102718 -0.43655,-0.102718 -0.30815,0 -0.89878,-0.48791 -0.56495,-0.462231 -1.07854,-1.489411 V 31.63354 q 0.51359,-1.925962 0.87311,-2.593629 0.38519,-0.667667 0.77038,-1.258295 l 1.54077,-1.51509 q 1.18126,-0.410872 1.8746,-0.410872 0.69335,0 1.90028,0.898782 l 1.0015,1.489411 0.30816,1.925962 q 0,1.283974 0.56495,2.465231 l 0.84742,1.977321 q 0.30815,0.873102 0.51359,1.027179 0.20544,0.179757 0.20544,0.410872 0,0.231115 -0.20544,0.410872 -0.20544,0.205436 -0.64199,0.205436 -0.77038,-1.0015 -1.15557,-1.694847 -0.35952,-0.719025 -0.87311,-2.336833 z m -5.13589,3.03018 q 1.18125,0 2.13139,-0.667667 l 1.18126,-1.617808 q 0.56495,-1.489411 0.97582,-2.799065 v -1.925961 l -0.46223,-1.386693 q -1.1299,-0.359513 -1.8746,-0.07704 -0.74471,0.256795 -1.84893,1.361014 l -1.07854,1.823243 -0.35951,1.206937 v 2.799064 q 0.59063,0.924462 1.33534,1.283975 z"
         style="font-family:SistersFL;-inkscape-font-specification:SistersFL;fill:#ffffff"
         id="path1820" /><path
         d="m 226.03081,26.728757 0.59063,1.361013 q 1.02717,-0.796065 1.92596,-1.181257 h 2.02868 l 1.0015,0.179757 1.28397,1.309654 q 0.17976,0.359512 0.41087,1.155577 v 6.959142 q -0.20543,0.179756 -0.66766,0.179756 -0.43655,0 -0.61631,-0.179756 l -0.20544,-7.010501 q -0.23111,-0.719026 -0.53927,-1.0015 -0.30815,-0.308154 -0.66766,-0.410872 -0.35952,-0.128398 -1.2583,-0.128398 -0.89878,0 -1.48941,0.436552 -0.56495,0.436551 -0.84742,0.847423 -0.28248,0.410872 -0.28248,1.104218 l -0.53927,6.240116 -0.077,0.07704 q -0.35952,-0.05136 -0.87311,-0.590628 v -8.576951 q 0.56495,-0.719025 0.82175,-0.770384 z"
         style="font-family:SistersFL;-inkscape-font-specification:SistersFL;fill:#ffffff"
         id="path1822" /><path
         d="m 239.84638,31.967373 q 0,1.566449 0.20543,2.02868 0.23112,0.462231 0.84743,1.052859 0.64198,0.590628 1.79756,0.796064 l 2.43955,-0.385192 1.46373,-1.232616 q 0.46223,0 0.66767,0.205436 0.20544,0.179757 0.20544,0.333833 0,0.128398 -0.10272,0.308154 -0.077,0.154077 -0.56495,0.590629 l -2.05436,1.0015 -0.79606,0.231115 -1.92597,-0.128397 q -0.077,-0.07704 -0.53927,-0.205436 -0.46223,-0.102718 -0.64198,-0.102718 -0.17976,0 -0.69335,-0.385192 -0.48791,-0.359513 -1.38669,-1.797565 v -4.314154 q 0.51359,-1.489411 1.1299,-2.336834 0.6163,-0.873103 1.79756,-1.566449 h 3.10722 q 0.77038,0.308154 1.20693,0.744705 0.43656,0.436551 1.15558,1.823244 l 0.10272,1.848923 q -0.59063,0.693347 -0.95014,1.078539 -0.33383,0.385192 -1.10422,0.564949 l -1.8746,0.231115 -2.20844,-0.128397 z m -0.17976,-1.463731 q 0.59063,0.590628 1.10422,0.641987 0.51359,0.05136 2.25979,0.359513 l 2.08004,-0.436551 0.87311,-0.616308 v -2.054359 q -1.05286,-1.05286 -1.77189,-1.283975 h -2.003 q -1.59213,1.54077 -2.54227,3.389693 z"
         style="font-family:SistersFL;-inkscape-font-specification:SistersFL;fill:#ffffff"
         id="path1824" /><path
         d="m 252.14686,33.585181 q 0.89878,1.181256 1.38669,1.669167 0.51359,0.462231 1.43805,0.796064 h 2.43955 q 0.82175,-0.539269 1.15558,-0.975821 0.35951,-0.46223 0.35951,-1.258295 0,-0.796064 -0.12839,-1.027179 -0.1284,-0.256795 -1.36102,-1.155577 -3.59513,-1.155578 -4.26279,-1.669167 -0.64199,-0.53927 -0.82175,-1.797565 l 0.20544,-1.900282 q 0.79606,-0.975821 2.08004,-1.874603 h 2.23411 q 1.20694,0.205436 1.84893,0.898782 0.64198,0.693346 1.05286,1.438052 0.41087,0.744705 0.41087,1.0015 0,0.256795 -0.10272,0.359513 -0.077,0.07704 -0.30815,0.07704 -0.20544,0 -0.59063,-0.51359 -0.38519,-0.539269 -0.84743,-1.258295 -0.43655,-0.719025 -1.15557,-0.821743 -0.69335,-0.128398 -1.59213,-0.02568 -0.89878,0.102718 -1.10422,0.308154 -0.17976,0.179756 -0.53927,0.641987 -0.33383,0.436552 -0.33383,2.080039 l 1.28397,1.02718 3.59513,1.027179 1.30966,1.104218 0.28247,0.950142 v 2.131397 q -0.28247,1.001501 -0.89878,1.438052 -0.59063,0.436551 -1.48941,0.847423 h -3.67217 q -0.41087,-0.410872 -0.71903,-0.51359 -0.28247,-0.102718 -0.89878,-0.821743 -0.59063,-0.693347 -0.64199,-1.335334 -0.0514,-0.667667 0.0257,-0.744705 0.10272,-0.102718 0.35952,-0.102718 z"
         style="font-family:SistersFL;-inkscape-font-specification:SistersFL;fill:#ffffff"
         id="path1826" /><path
         d="m 266.14217,31.967373 q 0,1.566449 0.20543,2.02868 0.23112,0.462231 0.84743,1.052859 0.64199,0.590628 1.79756,0.796064 l 2.43955,-0.385192 1.46373,-1.232616 q 0.46224,0 0.66767,0.205436 0.20544,0.179757 0.20544,0.333833 0,0.128398 -0.10272,0.308154 -0.077,0.154077 -0.56495,0.590629 l -2.05436,1.0015 -0.79606,0.231115 -1.92596,-0.128397 q -0.077,-0.07704 -0.53927,-0.205436 -0.46223,-0.102718 -0.64199,-0.102718 -0.17976,0 -0.69335,-0.385192 -0.48791,-0.359513 -1.38669,-1.797565 v -4.314154 q 0.51359,-1.489411 1.1299,-2.336834 0.61631,-0.873103 1.79756,-1.566449 h 3.10722 q 0.77039,0.308154 1.20694,0.744705 0.43655,0.436551 1.15557,1.823244 l 0.10272,1.848923 q -0.59063,0.693347 -0.95014,1.078539 -0.33383,0.385192 -1.10422,0.564949 l -1.8746,0.231115 -2.20844,-0.128397 z m -0.17976,-1.463731 q 0.59063,0.590628 1.10422,0.641987 0.51359,0.05136 2.2598,0.359513 l 2.08003,-0.436551 0.87311,-0.616308 v -2.054359 q -1.05286,-1.05286 -1.77189,-1.283975 h -2.003 q -1.59213,1.54077 -2.54227,3.389693 z"
         style="font-family:SistersFL;-inkscape-font-specification:SistersFL;fill:#ffffff"
         id="path1828" /><path
         d="m 290.94856,15.609537 q 0,0.410872 0.20544,0.641987 0.23112,0.205436 0.53927,1.797565 l 0.41087,2.542269 0.84743,3.338334 0.43655,1.874603 0.41087,1.258295 0.43655,2.696347 q 0.51359,2.439551 0.79606,3.954641 l 0.53927,-0.256795 0.35952,-1.258295 0.41087,-1.900282 0.43655,-1.669167 0.7447,-2.619308 0.64199,-2.696347 0.51359,-2.619308 0.43655,-1.874603 q 0.41088,-1.592128 0.56495,-2.285474 0.15408,-0.719026 0.35951,-0.924462 0.20544,-0.205436 0.33384,-0.205436 0.1284,0 0.53927,0.385192 -0.10272,1.052859 -0.53927,2.593629 l -0.41087,2.003 -0.43655,1.669167 -0.41088,2.182757 -0.43655,1.771885 -0.95014,3.672167 -0.41087,1.258295 -0.43655,2.080039 q -0.71903,2.567949 -0.97582,2.978821 -0.23112,0.436551 -0.69335,0.667667 -0.48791,-0.436552 -0.7447,-1.206936 -0.23112,-0.770385 -0.66767,-2.234116 l -0.41087,-1.874603 -0.84743,-3.338334 -0.53927,-2.311154 -0.53927,-1.874603 q -0.30815,-1.438051 -0.30815,-2.080039 0,-0.667666 -0.43655,-1.104218 l -0.41087,-2.439552 q -0.20544,-1.052859 -0.20544,-1.720525 0,-0.693347 0.077,-0.770385 0.10272,-0.102718 0.77038,-0.102718 z"
         style="font-family:SistersFL;-inkscape-font-specification:SistersFL;fill:#ffffff"
         id="path1830" /><path
         d="m 305.58586,31.967373 q 0,1.566449 0.20544,2.02868 0.23112,0.462231 0.84742,1.052859 0.64199,0.590628 1.79757,0.796064 l 2.43955,-0.385192 1.46373,-1.232616 q 0.46223,0 0.66767,0.205436 0.20543,0.179757 0.20543,0.333833 0,0.128398 -0.10272,0.308154 -0.077,0.154077 -0.56494,0.590629 l -2.05436,1.0015 -0.79607,0.231115 -1.92596,-0.128397 q -0.077,-0.07704 -0.53927,-0.205436 -0.46223,-0.102718 -0.64199,-0.102718 -0.17975,0 -0.69334,-0.385192 -0.48791,-0.359513 -1.38669,-1.797565 v -4.314154 q 0.51358,-1.489411 1.12989,-2.336834 0.61631,-0.873103 1.79757,-1.566449 h 3.10722 q 0.77038,0.308154 1.20693,0.744705 0.43655,0.436551 1.15558,1.823244 l 0.10272,1.848923 q -0.59063,0.693347 -0.95014,1.078539 -0.33384,0.385192 -1.10422,0.564949 l -1.87461,0.231115 -2.20843,-0.128397 z m -0.17975,-1.463731 q 0.59063,0.590628 1.10422,0.641987 0.51359,0.05136 2.25979,0.359513 l 2.08004,-0.436551 0.8731,-0.616308 v -2.054359 q -1.05286,-1.05286 -1.77188,-1.283975 h -2.003 q -1.59213,1.54077 -2.54227,3.389693 z"
         style="font-family:SistersFL;-inkscape-font-specification:SistersFL;fill:#ffffff"
         id="path1832" /><path
         d="m 319.27305,26.831475 q 1.66917,-0.898783 2.56795,-1.386693 h 2.46523 q 0.53927,0.179757 0.74471,0.48791 0.20543,0.308154 0.66766,0.590629 0,0.616308 -0.10271,0.719025 -0.077,0.07704 -0.43656,0.07704 -0.35951,0 -0.53926,-0.07704 -0.15408,-0.102717 -0.64199,-0.539269 h -2.02868 l -0.71903,0.436552 -1.69484,1.283974 q -0.17976,0.128398 -0.41088,0.641987 l -0.20543,7.241617 -0.17976,0.154077 -0.84742,-0.154077 -0.2568,-0.410872 V 25.187987 q 0.20544,-0.333833 0.30816,-0.462231 0.10272,-0.128397 0.43655,-0.128397 0.35951,0 0.46223,0.128397 0.10272,0.128398 0.17976,0.308154 0.10271,0.154077 0.23111,1.797565 z"
         style="font-family:SistersFL;-inkscape-font-specification:SistersFL;fill:#ffffff"
         id="path1834" /><path
         d="m 331.03425,33.585181 q 0.89878,1.181256 1.38669,1.669167 0.51359,0.462231 1.43805,0.796064 h 2.43955 q 0.82175,-0.539269 1.15558,-0.975821 0.35951,-0.46223 0.35951,-1.258295 0,-0.796064 -0.12839,-1.027179 -0.1284,-0.256795 -1.36102,-1.155577 -3.59513,-1.155578 -4.26279,-1.669167 -0.64199,-0.53927 -0.82175,-1.797565 l 0.20544,-1.900282 q 0.79606,-0.975821 2.08004,-1.874603 h 2.23411 q 1.20694,0.205436 1.84893,0.898782 0.64198,0.693346 1.05286,1.438052 0.41087,0.744705 0.41087,1.0015 0,0.256795 -0.10272,0.359513 -0.077,0.07704 -0.30815,0.07704 -0.20544,0 -0.59063,-0.51359 -0.38519,-0.539269 -0.84743,-1.258295 -0.43655,-0.719025 -1.15557,-0.821743 -0.69335,-0.128398 -1.59213,-0.02568 -0.89878,0.102718 -1.10422,0.308154 -0.17976,0.179756 -0.53927,0.641987 -0.33383,0.436552 -0.33383,2.080039 l 1.28397,1.02718 3.59513,1.027179 1.30966,1.104218 0.28247,0.950142 v 2.131397 q -0.28247,1.001501 -0.89878,1.438052 -0.59063,0.436551 -1.48941,0.847423 h -3.67217 q -0.41087,-0.410872 -0.71903,-0.51359 -0.28247,-0.102718 -0.89878,-0.821743 -0.59063,-0.693347 -0.64199,-1.335334 -0.0514,-0.667667 0.0257,-0.744705 0.10272,-0.102718 0.35952,-0.102718 z"
         style="font-family:SistersFL;-inkscape-font-specification:SistersFL;fill:#ffffff"
         id="path1836" /><path
         d="m 348.41925,35.896335 -0.66767,0.128398 -0.41087,-0.359513 v -8.371515 q 0.41087,-0.385192 0.64199,-0.385192 0.2568,0 0.64199,0.385192 z m -0.53927,-11.60713 q -0.30815,-0.282474 -0.30815,-0.847423 0,-0.564949 0.077,-0.719026 0.10271,-0.179756 0.20543,-0.282474 0.10272,-0.128398 0.33384,-0.128398 0.25679,0 0.43655,0.205436 0.20543,0.179756 0.20543,0.847423 0,0.641988 -0.38519,1.02718 z"
         style="font-family:SistersFL;-inkscape-font-specification:SistersFL;fill:#ffffff"
         id="path1838" /><path
         d="m 360.23184,37.000553 q -0.61631,-0.333833 -1.02718,-0.436551 -0.41087,-0.07704 -0.82175,-0.462231 -0.38519,-0.385192 -1.28397,-1.823244 v -4.493911 q 0.82174,-2.003 1.25829,-2.413872 0.46223,-0.410872 1.48941,-0.975821 l 1.72053,-0.333833 1.90028,0.410872 1.51509,1.309654 0.61631,1.771885 v 3.697846 l -0.41087,1.206937 -0.82175,1.566449 q -0.79606,0.667666 -1.8746,1.078538 z m 0.33383,-0.950141 h 2.05436 l 1.36101,-1.412372 q 0.43655,-1.283975 0.77039,-2.157077 v -2.157078 l -0.66767,-1.97732 q -1.0015,-0.667667 -1.48941,-1.02718 h -2.02868 q -0.71903,0.48791 -1.33533,1.078539 -0.61631,0.590628 -0.71903,0.924461 -0.10272,0.333834 -0.33383,0.770385 v 3.441052 q 0.43655,1.104218 0.82174,1.617808 0.41087,0.48791 0.74471,0.564949 0.35951,0.102718 0.82174,0.333833 z"
         style="font-family:SistersFL;-inkscape-font-specification:SistersFL;fill:#ffffff"
         id="path1840" /><path
         d="m 370.6577,26.728757 0.59063,1.361013 q 1.02718,-0.796065 1.92596,-1.181257 h 2.02868 l 1.0015,0.179757 1.28397,1.309654 q 0.17976,0.359512 0.41088,1.155577 v 6.959142 q -0.20544,0.179756 -0.66767,0.179756 -0.43655,0 -0.61631,-0.179756 l -0.20544,-7.010501 q -0.23111,-0.719026 -0.53926,-1.0015 -0.30816,-0.308154 -0.66767,-0.410872 -0.35951,-0.128398 -1.2583,-0.128398 -0.89878,0 -1.48941,0.436552 -0.56495,0.436551 -0.84742,0.847423 -0.28247,0.410872 -0.28247,1.104218 l -0.53927,6.240116 -0.077,0.07704 q -0.35952,-0.05136 -0.8731,-0.590628 v -8.576951 q 0.56494,-0.719025 0.82174,-0.770384 z"
         style="font-family:SistersFL;-inkscape-font-specification:SistersFL;fill:#ffffff"
         id="path1842" /><path
         d="m 381.93098,39.18331 q 0,-0.641987 0.10272,-0.744705 0.10272,-0.102718 0.74471,-0.308154 l 1.64348,-1.617808 q 1.18126,-1.643488 2.23412,-3.980321 l 0.66767,-1.694847 q 0.33383,-1.463731 0.53927,-2.131398 v -5.264295 l -0.33384,-1.592129 -0.53927,-1.823244 q -0.95014,-2.003 -1.54077,-2.978821 -0.59062,-1.0015 -0.79606,-1.463731 l -2.10572,-2.028679 v -0.02568 l 0.69335,-0.616308 0.59063,0.179757 1.7462,1.720526 q 0.51359,0.796064 1.77189,2.876103 l 0.6163,1.669167 0.64199,1.848923 0.30816,1.438052 v 2.105718 l 0.20543,0.616308 v 1.823243 l -0.30815,1.977321 q -0.30816,1.361013 -0.51359,2.182757 -0.20544,0.796064 -0.41087,1.0015 -0.20544,0.205436 -0.33384,0.564949 -0.12839,0.333833 -0.12839,0.539269 0,0.179757 -0.30816,0.590629 -0.28247,0.385192 -0.71902,1.335333 l -1.46374,1.900283 -1.15557,1.335333 q -0.77039,0.564949 -1.84893,0.564949 z"
         style="font-family:SistersFL;-inkscape-font-specification:SistersFL;fill:#ffffff"
         id="path1844" /></g></g></svg>
