<?xml version="1.0" encoding="UTF-8" standalone="no"?>
<!-- Created with Inkscape (http://www.inkscape.org/) -->

<svg
   width="1500"
   height="200"
   viewBox="0 0 396.875 52.916668"
   version="1.1"
   id="svg5"
   xml:space="preserve"
   inkscape:version="1.2 (dc2aedaf03, 2022-05-15)"
   sodipodi:docname="r0tt3napp13.svg"
   xmlns:inkscape="http://www.inkscape.org/namespaces/inkscape"
   xmlns:sodipodi="http://sodipodi.sourceforge.net/DTD/sodipodi-0.dtd"
   xmlns="http://www.w3.org/2000/svg"
   xmlns:svg="http://www.w3.org/2000/svg"><sodipodi:namedview
     id="namedview7"
     pagecolor="#989898"
     bordercolor="#666666"
     borderopacity="1.0"
     inkscape:showpageshadow="2"
     inkscape:pageopacity="0"
     inkscape:pagecheckerboard="0"
     inkscape:deskcolor="#d1d1d1"
     inkscape:document-units="px"
     showgrid="false"
     inkscape:zoom="1.4142136"
     inkscape:cx="712.41006"
     inkscape:cy="82.731491"
     inkscape:window-width="1920"
     inkscape:window-height="1027"
     inkscape:window-x="-8"
     inkscape:window-y="-8"
     inkscape:window-maximized="1"
     inkscape:current-layer="layer1" /><defs
     id="defs2" /><g
     inkscape:label="Layer 1"
     inkscape:groupmode="layer"
     id="layer1"><path
       style="fill:#000000;stroke-width:0.264583"
       id="path461"
       d="" /><path
       style="fill:#000000;stroke-width:0.264583"
       id="path493"
       d="" /><path
       style="fill:#000000;stroke-width:0.264583"
       id="path487"
       d="" /><path
       style="fill:#000000;stroke-width:0.264583"
       id="path485"
       d="" /><path
       style="fill:#000000;stroke-width:0.264583"
       id="path481"
       d="" /><path
       style="fill:#000000;stroke-width:0.264583"
       id="path479"
       d="" /><g
       aria-label="r0tt3napp13"
       transform="scale(0.98401545,1.0162442)"
       id="text993"
       style="font-size:28.3441px;line-height:1.25;font-family:mini-wakuwaku;-inkscape-font-specification:mini-wakuwaku;font-variant-ligatures:none;stroke-width:1.23616"><path
         d="m 127.39609,25.86933 q 1.79919,-0.968793 2.76798,-1.494708 h 2.65726 q 0.58128,0.193758 0.80272,0.525915 0.22143,0.332158 0.71967,0.636636 0,0.664314 -0.11072,0.775034 -0.083,0.08304 -0.47055,0.08304 -0.38752,0 -0.58128,-0.08304 -0.16608,-0.11072 -0.692,-0.581276 h -2.1867 l -0.77503,0.470556 -1.82687,1.38399 q -0.19376,0.138399 -0.44287,0.691994 l -0.22144,7.8057 -0.19376,0.166079 -0.91343,-0.166079 -0.2768,-0.442877 v -11.54247 q 0.22144,-0.359838 0.33216,-0.498236 0.11071,-0.138399 0.47055,-0.138399 0.38752,0 0.49824,0.138399 0.11072,0.138398 0.19376,0.332157 0.11072,0.166079 0.24911,1.937585 z"
         style="font-family:SistersFL;-inkscape-font-specification:SistersFL;fill:#ffffff"
         id="path2014" /><path
         d="m 143.61645,37.051964 -0.58128,-0.08304 -1.6331,-1.605427 -0.91344,-1.716147 q -0.66431,-2.242063 -0.88575,-4.013569 l -0.22144,-2.878698 v -0.470556 l 0.22144,-2.435821 0.33216,-2.352782 q 0.69199,-2.435821 1.24559,-3.736771 0.58127,-1.30095 1.13487,-2.352782 l 2.13134,-2.103664 0.80272,-0.415197 h 1.96526 q 0.83039,0.387517 1.46703,1.32863 0.66431,0.941113 1.43935,3.127816 l 0.22144,4.179648 q -0.22144,1.162551 -0.11072,1.633107 0.11072,0.470556 0.11072,1.550068 l -0.22144,2.684939 -0.33216,2.131344 -0.47056,2.242062 -0.66431,2.075984 -1.43935,1.826866 -1.21791,1.051832 z m -2.57422,-14.172051 -0.30448,2.020624 v 2.740299 l 0.24912,2.989417 q 0.55359,1.716147 1.07951,3.017097 0.52592,1.30095 1.10719,1.826866 0.58128,0.553595 1.10719,0.553595 0.52592,0 1.02416,-0.304477 0.49823,-0.304478 1.57774,-1.30095 l 1.02416,-2.075984 0.52591,-1.716147 q -1.9099,-2.103664 -2.38046,-2.54654 -0.44288,-0.470557 -1.02415,-1.245591 l -3.4323,-3.404613 z m 0.30448,-1.771506 q 0.58127,0.581275 1.02415,1.494708 l 6.03419,5.923474 q 0.30448,-0.332157 0.58128,-1.743826 v -9.300408 q -0.38752,-1.439349 -0.66432,-1.743827 -0.24912,-0.332157 -0.24912,-0.553595 0,-0.249119 -0.44287,-0.691995 -0.44288,-0.442877 -0.91344,-0.636635 -0.47055,-0.193759 -1.07951,0 -0.58127,0.193758 -1.57774,1.605427 -0.99648,1.38399 -1.57775,2.65726 -0.58128,1.24559 -0.71968,1.965265 -0.11072,0.691994 -0.41519,1.024152 z"
         style="font-family:SistersFL;-inkscape-font-specification:SistersFL;fill:#ffffff"
         id="path2016" /><path
         d="m 156.98579,27.751555 h -3.76446 q -0.13839,-0.387517 -0.13839,-0.636635 0,-0.276798 0.13839,-0.387517 0.1384,-0.138399 0.49824,-0.332157 h 3.23854 l 0.24911,-3.487653 v -0.332158 h 1.13488 v 3.819811 h 4.3734 q 0.44288,0.442876 0.44288,0.691995 0,0.249118 -0.44288,0.664314 h -4.3734 v 6.947627 q 0.88575,0.858073 1.43934,1.107191 h 2.93406 q 0.19376,0.193759 0.19376,0.553596 0,0.387517 -0.19376,0.581275 l -3.37693,-0.110719 q -0.33216,-0.221438 -0.88576,-0.387517 -0.52591,-0.166078 -0.85807,-0.525916 -0.30448,-0.332157 -0.60895,-1.107191 z"
         style="font-family:SistersFL;-inkscape-font-specification:SistersFL;fill:#ffffff"
         id="path2018" /><path
         d="m 171.15784,27.751555 h -3.76445 q -0.1384,-0.387517 -0.1384,-0.636635 0,-0.276798 0.1384,-0.387517 0.13839,-0.138399 0.49823,-0.332157 h 3.23854 l 0.24911,-3.487653 v -0.332158 h 1.13488 v 3.819811 h 4.3734 q 0.44288,0.442876 0.44288,0.691995 0,0.249118 -0.44288,0.664314 h -4.3734 v 6.947627 q 0.88575,0.858073 1.43934,1.107191 h 2.93406 q 0.19376,0.193759 0.19376,0.553596 0,0.387517 -0.19376,0.581275 l -3.37693,-0.110719 q -0.33216,-0.221438 -0.88576,-0.387517 -0.52591,-0.166078 -0.85807,-0.525916 -0.30448,-0.332157 -0.60895,-1.107191 z"
         style="font-family:SistersFL;-inkscape-font-specification:SistersFL;fill:#ffffff"
         id="path2020" /><path
         d="m 181.42704,31.349928 h 0.71967 q 0.44288,2.131343 1.19023,3.598372 0.66432,0 0.96879,0.193758 0.30448,0.193759 0.5536,0.415197 0.24912,0.249118 1.46703,0.304478 1.21791,0.05536 3.26621,-0.858074 l 1.21791,-1.660787 q 0,-0.442876 0.22144,-0.664315 0.22144,-0.221438 0.22144,-1.633107 0,-1.411669 -0.22144,-2.325102 -0.22144,-0.941113 -0.49823,-1.439349 l -1.52239,-1.30095 -1.43935,-0.775034 -2.24206,-0.691995 -0.47056,-0.359837 q 0,-0.470556 0.083,-0.553595 0.11072,-0.11072 0.33216,-0.11072 0.22144,0 1.30095,-0.608955 l 1.7715,-1.27327 1.41167,-1.743827 q 0.33216,-0.913433 0.58128,-1.383989 0.24912,-0.470556 0.24912,-1.079512 0,-0.636635 -0.24912,-0.885753 -0.24912,-0.249118 -0.47056,-1.190231 -0.44288,-0.138398 -0.91343,-0.581275 -0.44288,-0.470556 -1.21791,-0.719674 h -2.13135 q -0.99647,0.470556 -1.55006,1.024152 -0.52592,0.553595 -0.71968,1.162551 -0.19376,0.581275 -0.24912,0.996472 -0.0554,0.415197 -0.74735,0.996472 -0.49824,-0.387517 -0.58128,-0.553596 -0.083,-0.166078 0.083,-0.885753 0.16608,-0.747354 0.5536,-1.494708 0.38752,-0.775034 0.83039,-1.217911 0.47056,-0.470556 0.692,-0.470556 0.22144,0 0.47055,-0.249118 0.24912,-0.249118 0.85808,-0.442877 h 2.87869 q 0.88576,0.415197 1.19024,0.553596 0.33215,0.110719 0.83039,0.691995 0.49824,0.581275 1.46703,1.965264 v 2.491181 q -0.66432,1.660787 -1.21791,2.6019 l -2.76798,2.851018 q 1.16255,0.304478 2.02062,0.747354 l 2.10367,2.103664 q 0.44287,0.941113 0.88575,2.131344 v 3.293894 q -1.10719,2.075984 -1.93758,3.017097 -0.8304,0.941113 -2.54655,1.605427 h -2.85101 q -0.44288,-0.442876 -2.04831,-0.996472 l -1.41167,-1.134871 q -0.44287,-0.719675 -0.63663,-1.32863 l 0.22144,-2.020624 z"
         style="font-family:SistersFL;-inkscape-font-specification:SistersFL;fill:#ffffff"
         id="path2022" /><path
         d="m 196.9554,25.758611 0.63663,1.467028 q 1.10719,-0.858073 2.07599,-1.27327 h 2.1867 l 1.07951,0.193759 1.38399,1.411669 q 0.19376,0.387517 0.44288,1.24559 v 7.501222 q -0.22144,0.193759 -0.71968,0.193759 -0.47055,0 -0.66431,-0.193759 l -0.22144,-7.556581 q -0.24912,-0.775034 -0.58128,-1.079512 -0.33215,-0.332157 -0.71967,-0.442877 -0.38752,-0.138398 -1.35631,-0.138398 -0.96879,0 -1.60543,0.470556 -0.60895,0.470556 -0.91343,0.913433 -0.30448,0.442876 -0.30448,1.190231 l -0.58127,6.726188 -0.083,0.08304 q -0.38752,-0.05536 -0.94112,-0.636635 v -9.245049 q 0.60896,-0.775034 0.88576,-0.830393 z"
         style="font-family:SistersFL;-inkscape-font-specification:SistersFL;fill:#ffffff"
         id="path2024" /><path
         d="m 217.65988,32.124962 q -0.77504,0.553595 -0.91344,0.968792 -0.11072,0.387517 -0.11072,0.581276 0,0.193758 -0.88575,1.24559 -0.85807,1.051832 -1.79918,1.550068 l -1.79919,0.110719 q -0.11072,-0.110719 -0.47056,-0.110719 -0.33215,0 -0.96879,-0.525916 -0.60895,-0.498236 -1.16255,-1.605427 V 31.04545 q 0.5536,-2.075984 0.94111,-2.795658 0.4152,-0.719675 0.8304,-1.35631 l 1.66078,-1.633107 q 1.27327,-0.442877 2.02063,-0.442877 0.74735,0 2.0483,0.968793 l 1.07951,1.605427 0.33216,2.075984 q 0,1.383989 0.60896,2.65726 l 0.91343,2.131343 q 0.33216,0.941113 0.55359,1.107192 0.22144,0.193758 0.22144,0.442876 0,0.249118 -0.22144,0.442877 -0.22143,0.221438 -0.69199,0.221438 -0.83039,-1.079512 -1.24559,-1.826866 -0.38752,-0.775034 -0.94111,-2.51886 z m -5.53596,3.266214 q 1.27327,0 2.29742,-0.719674 l 1.27327,-1.743827 q 0.60896,-1.605427 1.05183,-3.017096 v -2.075984 l -0.49823,-1.494709 q -1.21791,-0.387517 -2.02063,-0.08304 -0.80271,0.276798 -1.99294,1.467029 l -1.16255,1.965264 -0.38752,1.30095 v 3.017097 q 0.63664,0.996472 1.43935,1.383989 z"
         style="font-family:SistersFL;-inkscape-font-specification:SistersFL;fill:#ffffff"
         id="path2026" /><path
         d="m 225.77005,22.547756 1.79919,-1.245591 1.90991,-0.525916 2.15902,0.332158 1.16255,0.858073 1.24559,1.522388 0.19376,0.802714 v 3.072456 q -0.88575,2.048305 -2.7403,3.681412 l -1.82687,0.304478 -2.24206,-0.332158 -1.66079,-0.664315 -0.22143,8.719133 v 0.110719 q -0.71968,0 -1.13488,-0.415197 V 20.74857 q 0.4152,-0.415197 0.66432,-0.415197 0.2768,0 0.47056,0.221438 0.22143,0.193759 0.22143,1.992945 z m 2.82334,7.69498 q 1.21791,0 2.13135,-0.249118 0.91343,-0.249118 1.99294,-1.550068 l 0.60896,-2.6019 q -0.22144,-1.688467 -0.49824,-1.909905 -0.24912,-0.249118 -0.47056,-0.608955 -0.22144,-0.359838 -0.52591,-0.525916 -0.30448,-0.166079 -0.5536,-0.387517 -0.24912,-0.249118 -1.60543,-0.498236 l -2.07598,0.581275 -1.82687,1.688467 v 4.262687 q 1.27327,1.079512 2.82334,1.799186 z"
         style="font-family:SistersFL;-inkscape-font-specification:SistersFL;fill:#ffffff"
         id="path2028" /><path
         d="m 239.9421,22.547756 1.79919,-1.245591 1.90991,-0.525916 2.15902,0.332158 1.16255,0.858073 1.24559,1.522388 0.19376,0.802714 v 3.072456 q -0.88575,2.048305 -2.7403,3.681412 l -1.82687,0.304478 -2.24206,-0.332158 -1.66079,-0.664315 -0.22143,8.719133 v 0.110719 q -0.71968,0 -1.13487,-0.415197 V 20.74857 q 0.41519,-0.415197 0.66431,-0.415197 0.2768,0 0.47056,0.221438 0.22143,0.193759 0.22143,1.992945 z m 2.82334,7.69498 q 1.21791,0 2.13135,-0.249118 0.91343,-0.249118 1.99294,-1.550068 l 0.60896,-2.6019 q -0.22144,-1.688467 -0.49824,-1.909905 -0.24912,-0.249118 -0.47056,-0.608955 -0.22143,-0.359838 -0.52591,-0.525916 -0.30448,-0.166079 -0.5536,-0.387517 -0.24912,-0.249118 -1.60543,-0.498236 l -2.07598,0.581275 -1.82687,1.688467 v 4.262687 q 1.27327,1.079512 2.82334,1.799186 z"
         style="font-family:SistersFL;-inkscape-font-specification:SistersFL;fill:#ffffff"
         id="path2030" /><path
         d="m 258.23844,16.181405 -2.54654,2.380461 q -0.35983,0.193759 -0.63663,0.193759 -0.2768,0 -0.38752,-0.08304 -0.083,-0.11072 -0.083,-0.830394 l 1.43935,-1.30095 1.46703,-1.605428 q 0.74735,-0.941112 0.74735,-1.162551 0,-0.221438 0.083,-0.332157 0.11072,-0.110719 1.13487,-0.110719 l 0.16608,0.415197 v 22.586705 q -0.22144,0.608955 -0.33215,0.719675 -0.11072,0.110719 -0.35984,0.110719 -0.24912,0 -0.692,-0.415197 z"
         style="font-family:SistersFL;-inkscape-font-specification:SistersFL;fill:#ffffff"
         id="path2032" /><path
         d="m 266.45934,31.349928 h 0.71967 q 0.44288,2.131343 1.19023,3.598372 0.66432,0 0.9688,0.193758 0.30448,0.193759 0.55359,0.415197 0.24912,0.249118 1.46703,0.304478 1.21791,0.05536 3.26622,-0.858074 l 1.21791,-1.660787 q 0,-0.442876 0.22144,-0.664315 0.22143,-0.221438 0.22143,-1.633107 0,-1.411669 -0.22143,-2.325102 -0.22144,-0.941113 -0.49824,-1.439349 l -1.52239,-1.30095 -1.43935,-0.775034 -2.24206,-0.691995 -0.47056,-0.359837 q 0,-0.470556 0.083,-0.553595 0.11072,-0.11072 0.33216,-0.11072 0.22144,0 1.30095,-0.608955 l 1.77151,-1.27327 1.41167,-1.743827 q 0.33215,-0.913433 0.58127,-1.383989 0.24912,-0.470556 0.24912,-1.079512 0,-0.636635 -0.24912,-0.885753 -0.24912,-0.249118 -0.47056,-1.190231 -0.44287,-0.138398 -0.91343,-0.581275 -0.44288,-0.470556 -1.21791,-0.719674 h -2.13134 q -0.99647,0.470556 -1.55007,1.024152 -0.52592,0.553595 -0.71968,1.162551 -0.19375,0.581275 -0.24911,0.996472 -0.0554,0.415197 -0.74736,0.996472 -0.49823,-0.387517 -0.58127,-0.553596 -0.083,-0.166078 0.083,-0.885753 0.16608,-0.747354 0.55359,-1.494708 0.38752,-0.775034 0.8304,-1.217911 0.47055,-0.470556 0.69199,-0.470556 0.22144,0 0.47056,-0.249118 0.24911,-0.249118 0.85807,-0.442877 h 2.8787 q 0.88575,0.415197 1.19023,0.553596 0.33216,0.110719 0.83039,0.691995 0.49824,0.581275 1.46703,1.965264 v 2.491181 q -0.66431,1.660787 -1.21791,2.6019 l -2.76798,2.851018 q 1.16255,0.304478 2.02063,0.747354 l 2.10366,2.103664 q 0.44288,0.941113 0.88575,2.131344 v 3.293894 q -1.10719,2.075984 -1.93758,3.017097 -0.8304,0.941113 -2.54654,1.605427 h -2.85102 q -0.44288,-0.442876 -2.0483,-0.996472 l -1.41167,-1.134871 q -0.44288,-0.719675 -0.63664,-1.32863 l 0.22144,-2.020624 z"
         style="font-family:SistersFL;-inkscape-font-specification:SistersFL;fill:#ffffff"
         id="path2034" /></g></g></svg>
