<?xml version="1.0" encoding="UTF-8" standalone="no"?>
<!-- Created with Inkscape (http://www.inkscape.org/) -->

<svg
   width="1500"
   height="200"
   viewBox="0 0 396.875 52.916668"
   version="1.1"
   id="svg5"
   xml:space="preserve"
   inkscape:version="1.2 (dc2aedaf03, 2022-05-15)"
   sodipodi:docname="sketch.svg"
   xmlns:inkscape="http://www.inkscape.org/namespaces/inkscape"
   xmlns:sodipodi="http://sodipodi.sourceforge.net/DTD/sodipodi-0.dtd"
   xmlns="http://www.w3.org/2000/svg"
   xmlns:svg="http://www.w3.org/2000/svg"><sodipodi:namedview
     id="namedview7"
     pagecolor="#989898"
     bordercolor="#666666"
     borderopacity="1.0"
     inkscape:showpageshadow="2"
     inkscape:pageopacity="0"
     inkscape:pagecheckerboard="0"
     inkscape:deskcolor="#d1d1d1"
     inkscape:document-units="px"
     showgrid="false"
     inkscape:zoom="1"
     inkscape:cx="804.5"
     inkscape:cy="344"
     inkscape:window-width="1920"
     inkscape:window-height="1027"
     inkscape:window-x="-8"
     inkscape:window-y="-8"
     inkscape:window-maximized="1"
     inkscape:current-layer="layer1" /><defs
     id="defs2" /><g
     inkscape:label="Layer 1"
     inkscape:groupmode="layer"
     id="layer1"><rect
       style="font-size:12.497px;line-height:1.25;font-family:mini-wakuwaku;-inkscape-font-specification:mini-wakuwaku;font-variant-ligatures:none;stroke-width:0.792;fill:#3c3c3c;fill-opacity:1;stroke:#ffffff;stroke-linecap:square;stroke-dasharray:none;stroke-opacity:1;paint-order:markers fill stroke"
       id="rect330"
       width="199.8243"
       height="48.970104"
       x="101.74882"
       y="1.5503571"
       ry="24.485052"
       transform="scale(0.98401546,1.0162442)" /><path
       style="fill:#000000;stroke-width:0.264583"
       id="path461"
       d="" /><path
       style="fill:#000000;stroke-width:0.264583"
       id="path493"
       d="" /><path
       style="fill:#000000;stroke-width:0.264583"
       id="path487"
       d="" /><path
       style="fill:#000000;stroke-width:0.264583"
       id="path485"
       d="" /><path
       style="fill:#000000;stroke-width:0.264583"
       id="path481"
       d="" /><path
       style="fill:#000000;stroke-width:0.264583"
       id="path479"
       d="" /><g
       aria-label="Sketch"
       transform="scale(0.98401545,1.0162442)"
       id="text993"
       style="font-size:12.497px;line-height:1.25;font-family:mini-wakuwaku;-inkscape-font-specification:mini-wakuwaku;font-variant-ligatures:none;stroke-width:0.545028"><g
         id="g1010"
         transform="matrix(2.5025156,0,0,2.5025156,-302.99881,-39.11861)"><path
           d="m 183.75144,28.335883 h 0.10984 q 0.41494,0.829879 0.46375,1.061757 0.061,0.219674 0.54919,0.707838 l 0.84208,0.414939 h 1.25702 q 0.48817,-0.219674 0.91531,-0.634613 l 0.36613,-0.829879 v -1.196002 l -0.36613,-0.781062 -0.67122,-0.573593 q -0.61021,-0.329511 -0.72005,-0.439348 -0.0976,-0.109837 -0.39053,-0.183061 -0.28069,-0.08543 -0.86649,-0.366123 l -0.73224,-0.390531 q -0.39053,-0.561389 -0.53698,-1.025145 v -1.366859 q 0.20747,-0.573593 0.39053,-1.037349 l 0.62241,-0.573593 1.25702,-0.341715 0.97633,0.158654 0.81767,0.512572 0.52478,0.805471 0.0488,0.829879 q -0.0854,0.170857 -0.13424,0.231878 -0.0488,0.04882 -0.17086,0.04882 0,-0.08543 -0.0976,-0.195266 -0.0976,-0.109837 -0.14645,-0.488164 -0.0488,-0.390531 -0.17086,-0.610205 -0.10983,-0.219674 -0.3173,-0.353919 -0.20747,-0.134245 -0.48817,-0.341715 h -1.04955 q -0.41494,0.09763 -0.5858,0.158654 -0.17086,0.04882 -0.46375,0.390531 -0.2929,0.341715 -0.50037,0.866491 v 1.037349 q 0.3051,0.683429 0.74445,1.110573 l 0.96412,0.451552 q 0.80547,0.390531 1.14719,0.561388 0.35392,0.170858 0.52477,0.390532 0.17086,0.207469 0.56139,0.610205 l 0.39053,0.756654 v 1.549921 l -0.24408,0.659021 -0.53698,0.659022 q -0.32951,0.219674 -0.70784,0.402735 l -0.87869,0.09763 q -0.79327,-0.09763 -1.13498,-0.146449 -0.32951,-0.04882 -0.43935,-0.146449 -0.0976,-0.08543 -0.3051,-0.134246 -0.19527,-0.04882 -0.40274,-0.244082 -0.20747,-0.207469 -0.25628,-0.280694 -0.0366,-0.08543 -0.0366,-0.183061 0,-0.109837 -0.10983,-0.219674 -0.0976,-0.109837 -0.14645,-0.378327 -0.0488,-0.280695 -0.0488,-0.463756 0,-0.183062 0.0732,-0.292899 0.0732,-0.122041 0.10983,-0.256286 z"
           style="font-family:SistersFL;-inkscape-font-specification:SistersFL;fill:#ffffff"
           id="path593" /><path
           d="m 191.33019,26.773758 1.35465,-1.159389 q 0.0488,-0.14645 0.30511,-0.366123 0.26849,-0.219674 0.67122,-0.561389 0.40274,-0.353919 0.63462,-0.585797 0.24408,-0.244082 0.35391,-0.244082 0.12205,0 0.15866,0.04882 0.0488,0.03661 0.0488,0.353919 l -0.74445,0.634614 q -0.0488,0.146449 -0.26849,0.280694 l -0.70783,0.695634 q 0.26849,0.659021 0.41494,1.061756 l 0.50036,1.476697 q 0.25629,0.854287 0.37833,1.28143 0.13425,0.427144 0.23188,0.62241 0.0976,0.195265 0.0976,0.292898 0,0.109837 -0.0976,0.195266 -0.0976,0.09763 -0.15865,0.09763 -0.0488,0 -0.23188,-0.183061 -0.18306,-0.183062 -0.32951,-0.622409 -0.14645,-0.439348 -0.34172,-1.086165 l -0.25628,-0.854287 -0.35392,-0.903104 q -0.14645,-0.463756 -0.14645,-0.573593 0,-0.122041 -0.25629,-0.366123 l -1.25702,1.244819 v 3.160862 q -0.19527,0.195266 -0.19527,0.256286 l -0.39053,-0.06102 -0.12204,-0.183062 v -9.177484 q 0.26849,-0.341715 0.41494,-0.366123 l 0.2929,0.26849 z"
           style="font-family:SistersFL;-inkscape-font-specification:SistersFL;fill:#ffffff"
           id="path595" /><path
           d="m 197.38342,28.848455 q 0,0.744451 0.0976,0.964124 0.10983,0.219674 0.40273,0.500369 0.3051,0.280694 0.85429,0.378327 l 1.15939,-0.183062 0.69563,-0.585797 q 0.21968,0 0.31731,0.09763 0.0976,0.08543 0.0976,0.158653 0,0.06102 -0.0488,0.14645 -0.0366,0.07322 -0.26849,0.280694 l -0.97632,0.47596 -0.37833,0.109837 -0.91531,-0.06102 q -0.0366,-0.03661 -0.25628,-0.09763 -0.21968,-0.04882 -0.30511,-0.04882 -0.0854,0 -0.32951,-0.183061 -0.23188,-0.170858 -0.65902,-0.854287 v -2.050289 q 0.24408,-0.707838 0.53698,-1.110574 0.2929,-0.414939 0.85429,-0.74445 h 1.47669 q 0.36613,0.146449 0.5736,0.353919 0.20747,0.20747 0.54918,0.866491 l 0.0488,0.878696 q -0.2807,0.32951 -0.45155,0.512572 -0.15866,0.183061 -0.52478,0.26849 l -0.8909,0.109837 -1.04955,-0.06102 z m -0.0854,-0.695633 q 0.2807,0.280694 0.52478,0.305102 0.24408,0.02441 1.07396,0.170858 l 0.98853,-0.20747 0.41494,-0.292899 v -0.976328 q -0.50036,-0.500368 -0.84208,-0.610205 h -0.95192 q -0.75665,0.732246 -1.20821,1.610942 z"
           style="font-family:SistersFL;-inkscape-font-specification:SistersFL;fill:#ffffff"
           id="path597" /><path
           d="m 204.43739,27.237514 h -1.65975 q -0.061,-0.170857 -0.061,-0.280694 0,-0.122041 0.061,-0.170858 0.061,-0.06102 0.21967,-0.146449 h 1.42788 l 0.10984,-1.537717 v -0.146449 h 0.50036 v 1.684166 h 1.92825 q 0.19527,0.195266 0.19527,0.305103 0,0.109837 -0.19527,0.292898 h -1.92825 v 3.063229 q 0.39054,0.378328 0.63462,0.488165 h 1.29363 q 0.0854,0.08543 0.0854,0.244082 0,0.170857 -0.0854,0.256286 l -1.4889,-0.04882 q -0.14645,-0.09763 -0.39053,-0.170857 -0.23188,-0.07323 -0.37833,-0.231878 -0.13424,-0.146449 -0.26849,-0.488164 z"
           style="font-family:SistersFL;-inkscape-font-specification:SistersFL;fill:#ffffff"
           id="path599" /><path
           d="m 213.18773,26.908003 q -0.0854,0.268491 -0.0854,0.329511 -0.21968,0 -1.12278,-0.890899 h -0.96413 l -0.37832,0.207469 -0.74445,0.573593 q -0.17086,0.439348 -0.31731,1.257023 l 0.31731,1.232614 0.67122,0.732246 q 0.46376,0.170857 0.82988,0.170857 0.36612,0 0.70784,-0.183061 0.35392,-0.195266 0.57359,-0.463756 0.21968,-0.26849 0.21968,-0.353919 0.21967,0 0.3051,0.09763 0.0976,0.08543 0.0976,0.20747 0,0.109836 -0.35392,0.451551 -0.35392,0.329511 -1.12277,0.707838 l -1.00074,-0.04882 q -0.0366,-0.03661 -0.34172,-0.08543 -0.3051,-0.04882 -0.81767,-0.598001 l -0.40274,-0.720042 -0.18306,-0.573593 v -1.244818 q 0.18306,-0.47596 0.52478,-1.061757 l 0.78106,-0.671225 q 0.76886,-0.231878 1.09837,-0.231878 0.32951,0 0.50037,0.146449 0.17086,0.146449 0.2929,0.146449 0.13424,0 0.39053,0.256286 0.25628,0.256286 0.52477,0.610205 z"
           style="font-family:SistersFL;-inkscape-font-specification:SistersFL;fill:#ffffff"
           id="path601" /><path
           d="m 216.22656,26.224574 q 0.69563,-0.439348 1.26922,-0.573593 h 0.8787 q 0.35392,0.134245 0.62241,0.427143 0.28069,0.292899 0.41494,0.439348 0.14645,0.134245 0.19526,0.26849 0.0488,0.134245 0.14645,0.524777 v 3.404944 q -0.26849,0.353919 -0.41494,0.378327 -0.0976,-0.08543 -0.19526,-0.353919 l -0.0976,-3.441556 q 0,-0.231878 -0.10983,-0.390532 -0.0976,-0.158653 -0.15866,-0.26849 -0.061,-0.122041 -0.3173,-0.231878 -0.24408,-0.109837 -0.69564,-0.158653 -0.45155,-0.04882 -1.06175,0.317306 l -0.47596,0.805471 v 3.441557 l -0.30511,0.256286 q -0.21967,-0.170858 -0.3051,-0.341715 v -9.360546 l 0.3051,-0.26849 0.20747,0.158653 z"
           style="font-family:SistersFL;-inkscape-font-specification:SistersFL;fill:#ffffff"
           id="path603" /></g></g></g></svg>
