<?xml version="1.0" encoding="UTF-8" standalone="no"?>
<!-- Created with Inkscape (http://www.inkscape.org/) -->

<svg
   width="1500"
   height="200"
   viewBox="0 0 396.875 52.916668"
   version="1.1"
   id="svg5"
   xml:space="preserve"
   inkscape:version="1.2 (dc2aedaf03, 2022-05-15)"
   sodipodi:docname="songlyrics.svg"
   xmlns:inkscape="http://www.inkscape.org/namespaces/inkscape"
   xmlns:sodipodi="http://sodipodi.sourceforge.net/DTD/sodipodi-0.dtd"
   xmlns="http://www.w3.org/2000/svg"
   xmlns:svg="http://www.w3.org/2000/svg"><sodipodi:namedview
     id="namedview7"
     pagecolor="#989898"
     bordercolor="#666666"
     borderopacity="1.0"
     inkscape:showpageshadow="2"
     inkscape:pageopacity="0"
     inkscape:pagecheckerboard="0"
     inkscape:deskcolor="#d1d1d1"
     inkscape:document-units="px"
     showgrid="false"
     inkscape:zoom="1.4142136"
     inkscape:cx="712.41006"
     inkscape:cy="82.731491"
     inkscape:window-width="1920"
     inkscape:window-height="1027"
     inkscape:window-x="-8"
     inkscape:window-y="-8"
     inkscape:window-maximized="1"
     inkscape:current-layer="layer1" /><defs
     id="defs2" /><g
     inkscape:label="Layer 1"
     inkscape:groupmode="layer"
     id="layer1"><path
       style="fill:#000000;stroke-width:0.264583"
       id="path461"
       d="" /><path
       style="fill:#000000;stroke-width:0.264583"
       id="path493"
       d="" /><path
       style="fill:#000000;stroke-width:0.264583"
       id="path487"
       d="" /><path
       style="fill:#000000;stroke-width:0.264583"
       id="path485"
       d="" /><path
       style="fill:#000000;stroke-width:0.264583"
       id="path481"
       d="" /><path
       style="fill:#000000;stroke-width:0.264583"
       id="path479"
       d="" /><g
       aria-label="Song Lyrics"
       transform="scale(0.98401545,1.0162442)"
       id="text993"
       style="font-size:28.5242px;line-height:1.25;font-family:mini-wakuwaku;-inkscape-font-specification:mini-wakuwaku;font-variant-ligatures:none;stroke-width:1.24402"><path
         d="m 125.36429,30.130191 h 0.25071 q 0.94709,1.894185 1.05851,2.423443 0.13928,0.501402 1.25351,1.615629 l 1.92204,0.947092 h 2.86913 q 1.11423,-0.501402 2.08917,-1.448494 l 0.83567,-1.894186 V 29.04382 l -0.83567,-1.782762 -1.53206,-1.309216 q -1.39278,-0.752103 -1.64348,-1.002804 -0.22285,-0.250701 -0.89138,-0.417835 -0.64068,-0.19499 -1.97775,-0.83567 l -1.67134,-0.891382 q -0.89139,-1.28136 -1.22565,-2.339875 v -3.119835 q 0.47354,-1.309216 0.89138,-2.367731 l 1.42064,-1.309217 2.86913,-0.779958 2.22845,0.362124 1.86633,1.169937 1.1978,1.838474 0.11142,1.894185 q -0.19499,0.38998 -0.30641,0.529258 -0.11143,0.111423 -0.38998,0.111423 0,-0.19499 -0.22285,-0.445691 -0.22284,-0.250701 -0.33427,-1.114226 -0.11142,-0.891382 -0.38998,-1.392784 -0.2507,-0.501402 -0.72424,-0.807814 -0.47355,-0.306412 -1.11423,-0.779959 h -2.39559 q -0.94709,0.222846 -1.33707,0.362124 -0.38998,0.111423 -1.05851,0.891381 -0.66854,0.779959 -1.14209,1.977753 v 2.367731 q 0.6964,1.559917 1.6992,2.534865 l 2.2006,1.03066 q 1.83847,0.891381 2.61843,1.281361 0.80781,0.389979 1.19779,0.891381 0.38998,0.473546 1.28136,1.392783 l 0.89139,1.727051 v 3.53767 l -0.55712,1.504206 -1.22565,1.504205 q -0.7521,0.501402 -1.61563,0.919237 l -2.0056,0.222846 q -1.81062,-0.222846 -2.59058,-0.334268 -0.7521,-0.111423 -1.0028,-0.334268 -0.22285,-0.19499 -0.6964,-0.306413 -0.44569,-0.111422 -0.91923,-0.557113 -0.47355,-0.473546 -0.58497,-0.64068 -0.0836,-0.19499 -0.0836,-0.417835 0,-0.250701 -0.2507,-0.501402 -0.22285,-0.250701 -0.33427,-0.863526 -0.11142,-0.64068 -0.11142,-1.058515 0,-0.417835 0.16713,-0.668536 0.16714,-0.278556 0.2507,-0.584969 z"
         style="font-family:SistersFL;-inkscape-font-specification:SistersFL;fill:#ffffff"
         id="path2188" /><path
         d="m 144.44542,36.759839 q -0.66853,-0.362123 -1.11422,-0.473546 -0.44569,-0.08357 -0.89138,-0.501402 -0.41784,-0.417835 -1.39279,-1.977752 v -4.874741 q 0.89138,-2.172742 1.36493,-2.618433 0.5014,-0.44569 1.61563,-1.058515 l 1.86633,-0.362124 2.06132,0.445691 1.64348,1.420639 0.66854,1.922041 v 4.011215 l -0.44569,1.309217 -0.89138,1.699195 q -0.86353,0.724247 -2.03347,1.169938 z m 0.36213,-1.030659 h 2.22845 l 1.47635,-1.532062 q 0.47355,-1.392783 0.83567,-2.339876 v -2.339875 l -0.72425,-2.144887 q -1.08637,-0.724247 -1.61562,-1.114226 h -2.2006 q -0.77996,0.529257 -1.4485,1.169938 -0.66853,0.64068 -0.77995,1.002804 -0.11143,0.362123 -0.36213,0.83567 v 3.732659 q 0.47355,1.197793 0.89138,1.754907 0.44569,0.529257 0.80782,0.612824 0.38998,0.111423 0.89138,0.362124 z"
         style="font-family:SistersFL;-inkscape-font-specification:SistersFL;fill:#ffffff"
         id="path2190" /><path
         d="m 155.75482,25.617574 0.64068,1.47635 q 1.11423,-0.863526 2.08918,-1.281361 h 2.2006 l 1.08637,0.19499 1.39278,1.420639 q 0.19499,0.389979 0.44569,1.253505 v 7.548885 q -0.22284,0.194989 -0.72425,0.194989 -0.47354,0 -0.66853,-0.194989 l -0.22285,-7.604597 q -0.2507,-0.779958 -0.58497,-1.086371 -0.33426,-0.334268 -0.72424,-0.44569 -0.38998,-0.139279 -1.36493,-0.139279 -0.97495,0 -1.61563,0.473547 -0.61282,0.473546 -0.91924,0.919237 -0.30641,0.44569 -0.30641,1.197793 l -0.58497,6.768927 -0.0836,0.08357 q -0.38998,-0.05571 -0.9471,-0.640681 v -9.303792 q 0.61283,-0.779958 0.89138,-0.835669 z"
         style="font-family:SistersFL;-inkscape-font-specification:SistersFL;fill:#ffffff"
         id="path2192" /><path
         d="m 170.49047,35.116355 q 0,0.529258 0.13928,1.142082 0.13928,0.612825 0.80781,1.197794 0.66854,0.612825 1.47635,0.807814 0.80782,0.19499 1.72705,0 0.91924,-0.194989 1.58778,-0.919237 0.69639,-0.696391 1.16994,-2.11703 V 29.4338 l -1.11423,0.83567 -2.67414,0.529257 q -1.55992,-0.222845 -1.92205,-0.417835 l -1.44849,-1.392783 -0.30641,-0.863526 -0.36213,-1.977752 0.36213,-2.061319 0.64068,-1.197794 1.30921,-1.420638 0.83567,-0.19499 h 2.702 q 0.61283,0.19499 1.97776,1.114226 0,-1.364927 0.0836,-1.448494 0.11143,-0.111423 0.47355,-0.111423 0.38998,0 0.5014,0.139279 0.11142,0.111422 0.33427,0.473546 v 14.150677 l -0.66854,1.949897 -0.94709,0.919237 -5.93326,0.557113 q -0.13927,-0.08357 -0.80781,-0.724247 -0.64068,-0.64068 -0.86353,-1.225649 -0.22284,-0.584969 -0.22284,-1.197794 0,-0.584969 0.0836,-0.668536 0.11142,-0.08357 1.05851,-0.08357 z M 177.39868,23.7791 q -1.58778,-1.197794 -2.08918,-1.587773 h -2.25631 q -1.83847,1.448494 -2.31202,2.534865 v 2.618433 q 1.08637,1.699195 1.6992,2.11703 0.61282,0.417835 2.36773,0.417835 l 1.81062,-1.058515 0.77996,-1.002804 z"
         style="font-family:SistersFL;-inkscape-font-specification:SistersFL;fill:#ffffff"
         id="path2194" /><path
         d="m 208.68059,34.865654 q 0,0.891381 -0.19499,1.086371 L 197.73331,35.840602 197.4269,35.53419 V 13.778916 q 0.19499,-0.19499 0.66853,-0.19499 0.50141,0 0.6964,0.19499 v 20.613192 l 0.5014,0.473546 z"
         style="font-family:SistersFL;-inkscape-font-specification:SistersFL;fill:#ffffff"
         id="path2196" /><path
         d="m 217.42727,30.798727 q 0.66853,-0.64068 0.77995,-0.891381 0.13928,-0.278557 0.13928,-0.473546 0,-0.222846 0.22285,-0.445691 0.2507,-0.250701 0.2507,-0.473546 0,-0.222846 0.22284,-0.445691 0.22285,-0.222845 0.22285,-0.557113 0,-0.362124 0.22284,-0.557114 0.22285,-0.222845 0.55712,-1.364927 0.36212,-1.142082 1.30921,-1.949897 l 0.41784,0.334268 q -0.41784,2.117031 -1.42064,4.596185 l -0.94709,2.172742 -0.91924,2.005608 -0.55711,1.030659 -1.16994,2.200598 q -0.80781,1.587773 -1.19779,2.256309 -0.38998,0.668536 -0.52926,0.807814 -0.11142,0.139278 -1.28136,0.139278 v -0.752103 l 0.89138,-1.643484 q 0.44569,-1.002804 0.66854,-1.225649 0.2507,-0.222846 0.52925,-0.891381 0.30642,-0.668536 0.58497,-1.142083 0.30641,-0.501402 0.30641,-1.309216 l -2.11703,-2.339876 -1.16993,-1.253505 -1.33708,-1.894185 q -0.66853,-1.309216 -0.66853,-1.810618 0,-0.501402 0.0836,-0.584969 0.11143,-0.111423 0.83567,-0.111423 0.36213,0.473547 0.64068,0.891382 0.27856,0.417835 0.27856,0.863525 l 1.4485,2.144886 z"
         style="font-family:SistersFL;-inkscape-font-specification:SistersFL;fill:#ffffff"
         id="path2198" /><path
         d="m 228.37454,25.728996 q 1.81062,-0.974948 2.78557,-1.504206 h 2.67414 q 0.58497,0.19499 0.80782,0.529258 0.22284,0.334268 0.72424,0.64068 0,0.668536 -0.11142,0.779959 -0.0836,0.08357 -0.47355,0.08357 -0.38997,0 -0.58496,-0.08357 -0.16714,-0.111423 -0.6964,-0.584969 h -2.20059 l -0.77996,0.473546 -1.83848,1.392783 q -0.19499,0.139279 -0.44569,0.696392 l -0.22284,7.855297 -0.19499,0.167134 -0.91924,-0.167134 -0.27856,-0.44569 V 23.946234 q 0.22285,-0.362124 0.33427,-0.501402 0.11143,-0.139279 0.47355,-0.139279 0.38998,0 0.5014,0.139279 0.11142,0.139278 0.19499,0.334268 0.11142,0.167134 0.2507,1.949896 z"
         style="font-family:SistersFL;-inkscape-font-specification:SistersFL;fill:#ffffff"
         id="path2200" /><path
         d="m 245.72862,35.562046 -0.72425,0.139278 -0.44569,-0.389979 v -9.080947 q 0.44569,-0.417835 0.69639,-0.417835 0.27856,0 0.6964,0.417835 z m -0.58497,-12.590761 q -0.33427,-0.306412 -0.33427,-0.919236 0,-0.612825 0.0836,-0.779959 0.11142,-0.19499 0.22285,-0.306412 0.11142,-0.139279 0.36212,-0.139279 0.27856,0 0.47355,0.222846 0.22284,0.194989 0.22284,0.919237 0,0.696391 -0.41783,1.114226 z"
         style="font-family:SistersFL;-inkscape-font-specification:SistersFL;fill:#ffffff"
         id="path2202" /><path
         d="m 263.86266,26.871078 q -0.19499,0.612825 -0.19499,0.752103 -0.5014,0 -2.56272,-2.033463 h -2.2006 l -0.86353,0.473546 -1.69919,1.309216 q -0.38998,1.002804 -0.72425,2.869134 l 0.72425,2.813422 1.53206,1.67134 q 1.05852,0.389979 1.89419,0.389979 0.83567,0 1.61562,-0.417835 0.80782,-0.44569 1.30922,-1.058515 0.5014,-0.612825 0.5014,-0.807814 0.5014,0 0.69639,0.222845 0.22285,0.19499 0.22285,0.473546 0,0.250701 -0.80781,1.03066 -0.80782,0.752103 -2.56273,1.615628 l -2.28416,-0.111422 q -0.0836,-0.08357 -0.77996,-0.19499 -0.69639,-0.111423 -1.86633,-1.364927 l -0.91924,-1.643485 -0.41783,-1.309216 v -2.841278 q 0.41783,-1.086371 1.19779,-2.423442 l 1.78277,-1.532062 q 1.7549,-0.529258 2.50701,-0.529258 0.7521,0 1.14208,0.334268 0.38998,0.334268 0.66853,0.334268 0.30642,0 0.89138,0.584969 0.58497,0.584969 1.1978,1.392783 z"
         style="font-family:SistersFL;-inkscape-font-specification:SistersFL;fill:#ffffff"
         id="path2204" /><path
         d="m 269.65664,33.055036 q 0.97494,1.281361 1.5042,1.810618 0.55712,0.501402 1.55992,0.863526 h 2.64629 q 0.89138,-0.584969 1.2535,-1.058515 0.38998,-0.501402 0.38998,-1.364928 0,-0.863526 -0.13928,-1.114227 -0.13927,-0.278556 -1.47635,-1.253505 -3.89979,-1.253504 -4.62404,-1.810618 -0.69639,-0.584969 -0.89138,-1.949896 l 0.22285,-2.061319 q 0.86352,-1.058516 2.25631,-2.033464 h 2.42344 q 1.30922,0.222845 2.00561,0.974948 0.69639,0.752103 1.14208,1.559918 0.44569,0.807814 0.44569,1.08637 0,0.278557 -0.11142,0.38998 -0.0836,0.08357 -0.33427,0.08357 -0.22285,0 -0.64068,-0.557114 -0.41784,-0.584968 -0.91924,-1.364927 -0.47354,-0.779959 -1.2535,-0.891381 -0.75211,-0.139279 -1.72705,-0.02786 -0.97495,0.111423 -1.1978,0.334268 -0.19499,0.19499 -0.58497,0.696392 -0.36212,0.473546 -0.36212,2.256308 l 1.39278,1.114227 3.8998,1.114227 1.42063,1.197793 0.30642,1.03066 v 2.31202 q -0.30642,1.086371 -0.97495,1.559917 -0.64068,0.473546 -1.61563,0.919237 h -3.98336 q -0.44569,-0.445691 -0.77996,-0.557113 -0.30641,-0.111423 -0.97495,-0.891382 -0.64068,-0.752102 -0.69639,-1.448494 -0.0557,-0.724247 0.0279,-0.807814 0.11142,-0.111423 0.38998,-0.111423 z"
         style="font-family:SistersFL;-inkscape-font-specification:SistersFL;fill:#ffffff"
         id="path2206" /></g></g></svg>
