<?xml version="1.0" encoding="UTF-8" standalone="no"?>
<svg
   inkscape:export-ydpi="445.92999"
   inkscape:export-xdpi="445.92999"
   sodipodi:docname="paypal.svg"
   inkscape:version="1.2 (dc2aedaf03, 2022-05-15)"
   id="svg8"
   version="1.1"
   viewBox="0 0 50 50"
   height="40mm"
   width="40mm"
   xmlns:inkscape="http://www.inkscape.org/namespaces/inkscape"
   xmlns:sodipodi="http://sodipodi.sourceforge.net/DTD/sodipodi-0.dtd"
   xmlns="http://www.w3.org/2000/svg"
   xmlns:svg="http://www.w3.org/2000/svg"
   xmlns:rdf="http://www.w3.org/1999/02/22-rdf-syntax-ns#"
   xmlns:cc="http://creativecommons.org/ns#"
   xmlns:dc="http://purl.org/dc/elements/1.1/">
  <defs
     id="defs2">
    <rect
       id="rect1929"
       height="23.434525"
       width="18.142857"
       y="3.4017856"
       x="99.407738" />
    <filter
       id="filter1215"
       inkscape:label="Drop Shadow"
       style="color-interpolation-filters:sRGB">
      <feFlood
         id="feFlood1205"
         result="flood"
         flood-color="rgb(182,182,255)"
         flood-opacity="1" />
      <feComposite
         id="feComposite1207"
         result="composite1"
         operator="in"
         in2="SourceGraphic"
         in="flood" />
      <feGaussianBlur
         id="feGaussianBlur1209"
         result="blur"
         stdDeviation="0"
         in="composite1" />
      <feOffset
         id="feOffset1211"
         result="offset"
         dy="1"
         dx="1.2" />
      <feComposite
         id="feComposite1213"
         result="composite2"
         operator="over"
         in2="offset"
         in="SourceGraphic" />
    </filter>
    <filter
       id="filter1921"
       inkscape:label="Drop Shadow"
       style="color-interpolation-filters:sRGB"
       x="-0.01776446"
       y="-0.01776446"
       width="1.0728865"
       height="1.0479814">
      <feFlood
         id="feFlood1911"
         result="flood"
         flood-color="rgb(182,182,255)"
         flood-opacity="1" />
      <feComposite
         id="feComposite1913"
         result="composite1"
         operator="in"
         in2="SourceGraphic"
         in="flood" />
      <feGaussianBlur
         id="feGaussianBlur1915"
         result="blur"
         stdDeviation="0"
         in="composite1" />
      <feOffset
         id="feOffset1917"
         result="offset"
         dy="0.1"
         dx="0.3" />
      <feComposite
         id="feComposite1919"
         result="composite2"
         operator="over"
         in2="offset"
         in="SourceGraphic" />
    </filter>
  </defs>
  <sodipodi:namedview
     inkscape:window-maximized="1"
     inkscape:window-y="-8"
     inkscape:window-x="-8"
     inkscape:window-height="1027"
     inkscape:window-width="1920"
     showgrid="false"
     inkscape:document-rotation="0"
     inkscape:current-layer="layer1"
     inkscape:document-units="mm"
     inkscape:cy="78.791898"
     inkscape:cx="30.935922"
     inkscape:zoom="3.959798"
     inkscape:pageshadow="2"
     inkscape:pageopacity="0.0"
     borderopacity="1.0"
     bordercolor="#B6B6FF"
     pagecolor="#ffffff"
     id="base"
     inkscape:showpageshadow="2"
     inkscape:pagecheckerboard="0"
     inkscape:deskcolor="#d1d1d1" />
  <metadata
     id="metadata5">
    <rdf:RDF>
      <cc:Work
         rdf:about="">
        <dc:format>image/svg+xml</dc:format>
        <dc:type
           rdf:resource="http://purl.org/dc/dcmitype/StillImage" />
      </cc:Work>
    </rdf:RDF>
  </metadata>
  <g
     id="layer1"
     inkscape:groupmode="layer"
     inkscape:label="Layer 1">
    <text
       transform="matrix(5.0015705,0,0,5.0015705,25,25)"
       id="text20"
       y="21.008152"
       x="105.34451"
       style="font-size:25.4px;line-height:0;font-family:Keifont;-inkscape-font-specification:Keifont;white-space:pre;inline-size:3.60814;stroke:#bcffff;stroke-width:0.565;stroke-linejoin:miter;stroke-miterlimit:4;stroke-dasharray:none;stroke-opacity:1;filter:url(#filter1215)"
       xml:space="preserve" />
    <circle
       r="4.0152502"
       transform="matrix(5.0015705,0,0,5.0015705,-0.0078525,-0.25793045)"
       cy="5"
       cx="5"
       id="path1861"
       style="fill:#00154c;fill-opacity:1;stroke:#bcffff;stroke-width:0.285315;stroke-linejoin:miter;stroke-miterlimit:4;stroke-dasharray:none;stroke-opacity:1;filter:url(#filter1921)" />
    <text
       transform="matrix(5.0015705,0,0,5.0015705,-39.288621,0)"
       style="font-size:10.5833px;line-height:1.25;font-family:Keifont;-inkscape-font-specification:Keifont;white-space:pre;shape-inside:url(#rect1929)"
       id="text1927"
       xml:space="preserve" />
    <path
       style="fill:#009ee3;fill-rule:evenodd;stroke-width:0.212044"
       class="cls-1"
       d="m 23.908354,18.08477 h 8.214584 c 4.410515,0 6.07082,2.232823 5.814247,5.513144 -0.424089,5.415603 -3.698047,8.411785 -8.040709,8.411785 h -2.192534 c -0.595845,0 -0.996607,0.394402 -1.157761,1.463104 l -0.930873,6.212889 c -0.06149,0.402884 -0.273537,0.636132 -0.591603,0.667939 h -5.161152 c -0.48558,0 -0.657336,-0.371077 -0.530109,-1.174724 l 3.146733,-19.917293 c 0.122986,-0.797285 0.559796,-1.176844 1.429177,-1.176844 z"
       id="path8" />
    <path
       style="fill:#113984;fill-rule:evenodd;stroke-width:0.212044"
       class="cls-2"
       d="m 18.770527,11.229387 h 8.223067 c 2.31552,0 5.06361,0.07422 6.899912,1.696352 1.227734,1.083545 1.872348,2.807463 1.723917,4.664968 -0.504664,6.278623 -4.259964,9.796433 -9.298129,9.796433 h -4.054281 c -0.691264,0 -1.147159,0.458015 -1.342239,1.696352 l -1.132315,7.209496 c -0.07421,0.466497 -0.275657,0.742154 -0.636132,0.776081 h -5.074213 c -0.561917,0 -0.761238,-0.424088 -0.614928,-1.361322 l 3.647157,-23.108555 c 0.14631,-0.928753 0.657337,-1.369805 1.658184,-1.369805 z"
       id="path14" />
    <path
       style="fill:#172c70;fill-rule:evenodd;stroke-width:0.212044"
       class="cls-3"
       d="m 21.041519,28.35194 1.435537,-9.090326 c 0.125107,-0.797285 0.561917,-1.178964 1.431298,-1.178964 h 8.214584 c 1.359202,0 2.459711,0.212044 3.320609,0.604325 -0.824851,5.589479 -4.440201,8.693803 -9.173023,8.693803 h -4.04792 c -0.542833,0.0021 -0.941476,0.273537 -1.181085,0.971162 z"
       id="path16" />
  </g>
</svg>
